<svg width="638" height="302" viewBox="0 0 638 302" fill="none" xmlns="http://www.w3.org/2000/svg">
<g clip-path="url(#clip0_266_4125)">
<path d="M57.6601 44.1058C58.5532 44.6783 58.5227 46.2966 57.6067 47.724C56.6907 49.1515 55.225 49.8461 54.3396 49.2507C53.4541 48.6553 53.477 47.0599 54.393 45.6325C55.309 44.205 56.7746 43.5333 57.6601 44.1058Z" fill="#3F468E"/>
<path d="M65.141 39.8084C66.0264 40.3809 66.0035 41.9992 65.0799 43.4267C64.1563 44.8541 62.6983 45.5564 61.8128 44.9534C60.9273 44.3503 60.9502 42.7626 61.8739 41.3351C62.7975 39.9077 64.2555 39.2436 65.141 39.8084Z" fill="#3F468E"/>
<path d="M57.9276 44.8454C57.752 44.5706 57.4314 34.6014 57.4314 34.6014L65.3854 27.6016V40.8837" stroke="#3F468E" stroke-width="0.84" stroke-linecap="round" stroke-linejoin="round"/>
<path d="M140.894 105.951C141.78 106.516 141.757 108.142 140.841 109.57C139.925 110.997 138.459 111.692 137.574 111.096C136.688 110.501 136.711 108.906 137.627 107.471C138.543 106.035 140.009 105.379 140.894 105.951Z" fill="#3F468E"/>
<path d="M148.375 101.654C149.261 102.226 149.23 103.845 148.314 105.272C147.398 106.7 145.933 107.402 145.047 106.799C144.162 106.196 144.185 104.608 145.101 103.181C146.017 101.753 147.482 101.081 148.375 101.654Z" fill="#3F468E"/>
<path d="M141.162 106.692C140.986 106.417 140.666 96.4482 140.666 96.4482L148.589 89.4484V102.715" stroke="#3F468E" stroke-width="0.84" stroke-linecap="round" stroke-linejoin="round"/>
<path d="M99.5446 13.984C100.43 14.5565 100.399 16.1748 99.4835 17.6022C98.5675 19.0297 97.1019 19.7243 96.2164 19.1289C95.3309 18.5335 95.3538 16.9381 96.2698 15.5107C97.1858 14.0832 98.6515 13.4039 99.5446 13.984Z" fill="#3F468E"/>
<path d="M99.8041 14.7248C99.6286 14.45 99.308 4.48083 99.308 4.48083L103.331 1" stroke="#3F468E" stroke-width="0.84" stroke-linecap="round" stroke-linejoin="round"/>
<path d="M111.01 263.901C105.941 263.138 102.247 259.397 101.171 258.023C101.171 258.069 79.5452 216.093 71.0798 206.116C75.759 194.124 91.5067 184.544 98.6897 178.17C100.354 176.697 109.842 168.926 111.804 167.881C121.437 162.751 126.017 154.034 122.918 137.263C119.201 140.141 111.14 134.126 98.4455 131.24C98.4455 131.24 61.1334 167.117 51.9428 184.926C42.5385 203.132 40.9431 207.063 67.7974 238.97C75.24 248.894 98.5294 277.443 98.5294 277.443C98.5294 277.443 105.399 296.129 105.506 296.412C105.613 296.694 111.155 278.282 113.735 269.771C114.453 267.405 113.476 264.26 111.01 263.901Z" fill="#FFC56B"/>
<path d="M93.9265 245.688C93.9799 245.352 94.041 245.016 94.0944 244.673C87.0183 231.49 76.4308 212.422 71.0798 206.124C75.759 194.132 91.5067 184.552 98.6897 178.178C100.354 176.705 109.842 168.934 111.804 167.889C121.437 162.759 126.017 154.042 122.918 137.271C119.201 140.149 111.14 134.134 98.4455 131.248C98.4455 131.248 61.1334 167.125 51.9428 184.934C42.5385 203.14 40.9431 207.071 67.7974 238.978C71.3851 243.765 78.6521 252.879 85.2168 261.031C88.0106 255.856 90.9139 250.741 93.9265 245.688Z" fill="#1E2046"/>
<path d="M78.8889 257.673C82.9117 254.765 94.2778 246.673 98.5143 244.093C94.461 235.277 85.1635 223.162 78.034 214.43C75.743 211.617 74.5644 208.06 74.722 204.435C74.8796 200.811 76.3624 197.37 78.8889 194.766C86.2093 187.202 95.9343 181.087 100.171 176.751C103.678 173.299 107.607 170.303 111.865 167.836C121.453 162.698 125.315 151.706 122.224 135.012C118.506 137.882 111.14 134.149 98.4456 131.264C98.4456 131.264 61.1336 167.141 51.943 184.95C42.5387 203.155 43.4013 203.583 44.8287 208.285C49.6301 218.018 73.7822 251.292 78.8889 257.673Z" fill="#0096C8"/>
<g style="mix-blend-mode:multiply">
<path d="M69.0184 165.545C74.2167 170.652 79.1861 175.995 84.1707 181.338C85.6592 182.949 87.163 184.552 88.6591 186.155C93.3231 182.46 97.6894 179.285 100.17 176.766C103.678 173.314 107.607 170.318 111.865 167.85C121.452 162.713 125.315 151.141 122.223 134.408C118.506 137.278 111.139 134.126 98.4451 131.24C98.4451 131.24 81.2852 147.744 67.3772 163.919L69.0184 165.545Z" fill="#1E2046"/>
</g>
<path d="M101.537 292.022L99.7964 284.114L105.338 287.007L105.063 261.817L115.544 265.336L105.506 296.381C104.523 296.061 103.64 295.491 102.944 294.727C102.248 293.963 101.763 293.03 101.537 292.022Z" fill="#FF937E"/>
<path d="M27.4626 234.46C25.0053 228.102 23.9105 221.299 24.2489 214.491C24.2031 214.491 39.5157 178.385 40.6531 165.34C52.6375 160.172 68.8967 163.981 78.6216 164.576C80.8734 164.714 102.888 172.599 110.85 168.668C127.323 160.546 120.659 142.363 121.842 135.211C117.109 134.608 112.277 134.287 99.0104 130.562C99.0104 130.562 61.6678 130.76 42.2866 136.837C22.4398 143.05 18.4705 144.722 14.6232 186.271C12.7683 198.568 8.79132 235.231 8.79132 235.231C8.79132 235.231 0.234287 253.322 0.096886 253.551C-0.0405151 253.78 17.1957 244.727 25.1726 240.536C26.2384 239.986 27.0624 239.061 27.4854 237.938C27.9084 236.816 27.9002 235.577 27.4626 234.46Z" fill="#FFC56B"/>
<path d="M122.636 135.188C114.638 134.395 106.734 132.838 99.0331 130.54C99.0331 130.54 61.6905 130.738 42.3094 136.814C22.4625 143.028 18.4932 144.699 14.6459 186.248C13.3864 194.576 11.1651 214.072 9.85217 225.797C14.5391 222.041 19.3023 218.392 24.2564 215.011C24.2564 214.843 24.2564 214.667 24.2564 214.492C24.2106 214.492 39.5232 178.386 40.6605 165.34C52.645 160.172 68.9041 163.981 78.629 164.577C80.8809 164.714 102.896 172.6 110.857 168.668C127.322 160.524 121.429 142.341 122.636 135.188Z" fill="#1E2046"/>
<path d="M122.635 135.379C117.903 134.776 112.3 134.265 99.033 130.54C99.033 130.54 61.6905 130.738 42.3093 136.814C22.4624 143.028 18.4473 144.234 13.3024 162.516C12.7146 166.157 5.08121 210.652 4.31787 216.98C9.41698 218.614 26.0807 214.446 31.0729 216.354C31.2027 206.988 36.0499 188.05 38.8284 175.439C39.6353 171.829 41.695 168.621 44.6422 166.386C47.5893 164.15 51.2332 163.03 54.9273 163.226C63.1408 163.653 71.3162 166.104 77.3465 167.042C85.7891 168.325 105.811 170.386 113.773 166.455C130.215 158.295 125.307 140.974 122.635 135.379Z" fill="#0096C8"/>
<path d="M0.0967225 253.559C-0.842185 251.673 5.36376 238.49 5.36376 238.49L8.41712 244.238L25.2564 226.575C25.2564 226.575 30.3937 237.91 28.5464 238.788C26.6991 239.666 0.0967225 253.559 0.0967225 253.559Z" fill="#FF937E"/>
<path d="M6.76844 203.429C10.1577 204.025 13.9057 204.628 17.188 203.284C18.362 202.806 19.3969 202.04 20.1972 201.057C20.9976 200.074 21.5378 198.905 21.7681 197.658C23.0886 192.155 21.6154 185.628 18.4475 181.002C16.959 178.827 14.6308 177.743 12.6843 176.109C12.4935 175.957 12.211 176.231 12.4095 176.392C13.9362 177.651 15.7987 178.552 17.1575 180.002C18.9425 182.077 20.2204 184.539 20.8902 187.193C21.6635 189.866 21.948 192.656 21.7299 195.429C21.5085 197.971 20.7223 200.719 18.4781 202.193C15.0812 204.414 10.6538 203.719 6.8982 203.055C6.6463 203.009 6.53944 203.383 6.79134 203.429H6.76844Z" fill="#FFF8ED"/>
<path d="M34.5384 186.079C29.159 180.526 25.8429 173.299 25.1417 165.599C24.9585 163.431 25.1417 161.324 26.9508 159.851C28.5206 158.671 30.3079 157.812 32.2102 157.324C36.0025 156.324 39.9672 156.163 43.8283 156.851C48.1231 157.589 52.3361 158.742 56.4081 160.294C56.6447 160.378 56.7516 159.996 56.515 159.912C48.9197 157.202 40.294 154.622 32.2484 156.912C28.9813 157.843 25.0883 159.53 24.7219 163.355C24.6183 165.377 24.8112 167.403 25.2944 169.37C26.6006 175.774 29.7099 181.673 34.256 186.369C34.4316 186.545 34.714 186.27 34.5384 186.087V186.079Z" fill="#FFF8ED"/>
<path d="M47.21 137.47L57.5609 146.507C60.4005 148.988 63.2706 152.118 66.8354 153.553C72.8505 155.973 79.5221 151.973 81.8274 146.301C83.2572 142.535 83.3595 138.394 82.1175 134.561C82.0488 134.317 81.6671 134.424 81.7435 134.66C83.6747 141.073 82.2702 148.897 76.0184 152.385C74.6807 153.167 73.1891 153.648 71.6469 153.795C70.1048 153.943 68.549 153.753 67.0873 153.24C65.3203 152.47 63.6948 151.41 62.2783 150.103C60.7516 148.828 59.3165 147.523 57.8357 146.233L47.4924 137.195C47.3016 137.027 47.0268 137.302 47.21 137.47Z" fill="#FFF8ED"/>
<path d="M91.4457 169.127C89.6824 166.035 87.4687 161.661 90.4076 158.516C91.9953 156.806 94.3082 157.264 96.3082 157.845C98.3081 158.425 100.392 159.043 102.415 159.646C104.438 160.249 108.644 161.829 109.705 158.837C110.247 157.31 109.384 155.616 109.491 154.043C109.696 152.222 110.609 150.555 112.033 149.402C115.682 146.219 120.857 146.822 125.3 147.387C125.552 147.425 125.544 147.028 125.3 146.997C121.346 146.494 116.903 145.936 113.277 148.028C110.43 149.684 108.697 152.532 109.232 155.837C109.407 156.929 109.751 158.211 109.086 159.211C108.422 160.211 107.27 160.272 106.247 160.188C104.163 160.012 102.064 159.135 100.064 158.547C96.9418 157.623 92.293 155.364 89.7893 158.616C87.2016 161.982 89.2855 166.165 91.0946 169.302C91.1251 169.337 91.1668 169.36 91.2125 169.367C91.2582 169.375 91.305 169.366 91.3449 169.342C91.3847 169.319 91.4151 169.282 91.4307 169.239C91.4463 169.195 91.4462 169.147 91.4305 169.104L91.4457 169.127Z" fill="#FFF8ED"/>
<path d="M60.7213 172.485C62.0189 174.103 63.7746 175.157 65.3013 176.546C66.828 177.935 68.3547 180.363 67.3394 182.553C66.1868 185.027 62.9579 185.897 60.8052 187.217C58.6526 188.538 57.1183 190.706 58.1717 193.377C58.8358 195.049 60.0724 196.431 60.8739 198.019C61.3441 199.011 61.602 200.09 61.6309 201.188C61.6598 202.285 61.4592 203.377 61.0419 204.392C59.248 209.179 54.4084 211.568 50.0879 213.652C49.8589 213.759 50.088 214.094 50.2864 213.988C54.1031 212.148 58.2251 210.171 60.4999 206.392C61.5339 204.757 62.0647 202.854 62.0266 200.919C61.9426 198.95 61.0113 197.362 59.9656 195.751C58.9198 194.141 57.6755 192.232 58.4389 190.225C58.9809 188.797 60.3396 187.935 61.6144 187.172C63.7594 185.973 66.7364 184.996 67.7669 182.538C69.7439 177.805 63.3166 175.073 60.9808 172.18C60.8205 171.981 60.5457 172.263 60.706 172.454L60.7213 172.485Z" fill="#FFF8ED"/>
<path d="M57.7897 225.833C60.5229 224.696 63.4674 224.154 66.4265 224.245C69.3856 224.336 72.2912 225.057 74.9496 226.36C80.2756 229.018 84.4477 233.529 86.6821 239.047C87.9893 242.154 88.7635 245.46 88.9721 248.825C88.9721 249.077 89.3767 249.077 89.3614 248.825C89.0388 242.718 86.7946 236.87 82.9494 232.115C81.0286 229.793 78.6684 227.873 76.0041 226.465C73.3397 225.057 70.4237 224.188 67.423 223.909C64.0694 223.605 60.6932 224.151 57.6065 225.497C57.3775 225.596 57.6065 225.932 57.805 225.833H57.7897Z" fill="#FFF8ED"/>
<path d="M77.232 193.27C75.1685 193.55 73.2505 194.489 71.7628 195.946C70.2751 197.403 69.2971 199.301 68.974 201.359C68.6508 203.416 68.9997 205.522 69.969 207.366C70.9382 209.209 72.4761 210.69 74.3542 211.59C74.5832 211.704 74.7816 211.368 74.5526 211.254C72.7311 210.399 71.2365 208.975 70.2939 207.197C69.3513 205.419 69.0115 203.383 69.3257 201.395C69.6399 199.407 70.5912 197.575 72.0363 196.174C73.4814 194.774 75.3422 193.88 77.3388 193.628C77.5831 193.59 77.4762 193.216 77.232 193.254V193.27Z" fill="#FFF8ED"/>
<path d="M26.1727 101.021C23.5261 98.5495 20.3558 96.7074 16.8981 95.6318C16.7472 95.5749 16.5857 95.5515 16.4249 95.5631C16.2358 95.6276 16.0796 95.7636 15.9896 95.942C15.8997 96.1204 15.8833 96.3269 15.944 96.5172C16.1027 96.8972 16.3677 97.2232 16.7073 97.4562C18.1195 98.708 19.5088 100.12 20.9209 101.372" fill="#FFC56B"/>
<path d="M20.6455 100.181L24.34 99.9219L24.2484 99.7311C23.8439 99.0822 23.4851 98.2044 23.8897 97.5861C23.9465 97.4776 24.0253 97.3821 24.1211 97.3056C24.2168 97.2291 24.3273 97.1733 24.4457 97.1417C24.5641 97.1101 24.6877 97.1035 24.8088 97.1222C24.9299 97.1408 25.0458 97.1844 25.1492 97.2502C26.0194 97.838 31.0192 100.922 31.1337 104.448C31.1337 104.448 55.2171 110.624 57.8506 110.96C60.4841 111.296 70.3083 103.189 70.3083 103.189L82.6591 112.944C82.6591 112.944 63.1711 126.127 60.3162 126.066C57.5835 125.998 27.6987 113.181 25.2484 112.128C23.1034 112.57 21.05 111.723 19.1798 110.128C18.4312 109.483 17.9237 108.603 17.7407 107.632C17.5576 106.662 17.7098 105.657 18.1722 104.784L20.6455 100.181Z" fill="#FFC56B"/>
<path d="M77.1027 93.3642C69.9426 100.776 59.5459 111.173 57.8665 110.959C57.4543 110.906 56.5154 110.707 55.2254 110.417C54.3094 115.486 53.546 120.585 52.8132 125.684C57.3933 127.669 60.981 129.119 61.7977 129.142C64.645 129.211 85.9803 110.89 85.9803 110.89L93.5679 84.8759C87.0566 85.6545 81.6522 88.6467 77.1027 93.3642Z" fill="#FF937E"/>
<path d="M20.8901 101.371C20.8901 101.371 26.1114 101.073 25.2641 104.837C24.4168 108.6 23.3481 111.707 23.3481 111.707C23.3481 111.707 27.9281 105.371 27.5846 103.676C27.2411 101.982 20.8901 101.371 20.8901 101.371Z" fill="#753231"/>
<path d="M98.8497 49.2816C98.4346 47.4612 98.5339 45.5613 99.1365 43.794C99.7391 42.0268 100.821 40.4619 102.262 39.2743C107.292 35.1064 110.544 39.8239 114.437 38.4117C118.33 36.9995 117.109 35.7629 120.605 31.076C124.101 26.3891 132.948 37.3736 134.406 31.8393C135.864 26.3051 141.62 41.7628 136.177 46.1672C130.734 50.5717 125.841 48.8771 122.567 48.6557C119.292 48.4343 118.368 56.0601 112.727 56.0601C109.254 56.0906 101.071 55.8464 98.8497 49.2816Z" fill="#3F468E"/>
<path d="M81.1479 62.4864C79.9113 61.0665 79.5144 56.0896 80.3846 54.4026C82.6746 49.8226 85.8959 47.5325 90.9568 46.5173C94.8651 45.754 116.628 50.9218 101.163 72.4021" fill="#3F468E"/>
<path d="M80.5526 66.1741C78.6901 56.2506 85.3464 53.5942 87.1097 53.0523C88.5906 52.6019 93.4683 50.4874 98.743 61.6245C98.7683 61.6774 98.8038 61.7248 98.8475 61.7638C98.8912 61.8029 98.9423 61.8328 98.9976 61.852C99.053 61.8712 99.1117 61.8792 99.1702 61.8755C99.2287 61.8718 99.2858 61.8566 99.3384 61.8307C100.262 61.3498 102.293 60.0673 103.834 62.3268C105.376 64.5863 103.758 67.1817 102.392 67.9755C102.002 68.2045 101.109 68.7389 100.987 69.2045C100.934 69.4106 100.606 69.7083 100.102 70.0595L107.01 82.3187C87.3005 101.906 91.621 84.1583 91.621 84.1583L90.5753 74.8074C90.247 74.9448 88.8807 75.7082 88.8654 75.7158C86.3082 76.3494 82.5678 76.9142 80.5526 66.1741Z" fill="#FFC56B"/>
<path d="M103.056 63.0229C103.056 63.0229 100.003 60.6947 100.293 65.748L103.056 63.0229Z" fill="#DB8F42"/>
<path d="M90.6366 65.1584C90.2028 65.3676 89.8408 65.7006 89.5964 66.1155C89.3519 66.5303 89.2359 67.0084 89.263 67.4891C89.2902 67.9699 89.4593 68.4318 89.7489 68.8165C90.0386 69.2012 90.4357 69.4913 90.8903 69.6503C91.3448 69.8093 91.8363 69.8299 92.3025 69.7097C92.7688 69.5894 93.1889 69.3335 93.5098 68.9745C93.8307 68.6155 94.0379 68.1694 94.1053 67.6926C94.1727 67.2158 94.0972 66.7297 93.8884 66.2958C93.7496 66.0075 93.5555 65.7494 93.3169 65.5362C93.0784 65.323 92.8001 65.1589 92.4981 65.0533C92.1962 64.9477 91.8763 64.9026 91.5569 64.9206C91.2375 64.9387 90.9247 65.0195 90.6366 65.1584Z" fill="#FFA64D"/>
<path d="M81.7127 70.654C82.1923 70.326 82.5507 69.8494 82.7328 69.2977C82.9148 68.746 82.9105 68.1497 82.7203 67.6007C82.5265 67.1876 82.2306 66.8307 81.8607 66.5636C81.4908 66.2965 81.0589 66.128 80.6058 66.074C80.7747 67.6422 81.1467 69.1818 81.7127 70.654Z" fill="#FFA64D"/>
<path d="M85.2317 68.2724H84.0485C83.9894 68.2753 83.9305 68.2629 83.8775 68.2364C83.8246 68.2098 83.7794 68.17 83.7464 68.1209C83.7133 68.0717 83.6936 68.0148 83.689 67.9558C83.6844 67.8967 83.6952 67.8375 83.7203 67.7839L84.4836 65.6007" fill="#DB8F42"/>
<path d="M87.9496 61.228C88.4381 61.4799 87.5603 60.167 86.9191 60.083C86.6368 60.0291 86.3447 60.0886 86.106 60.2486C85.8674 60.4087 85.7015 60.6564 85.6443 60.938C86.423 60.7613 87.2389 60.864 87.9496 61.228Z" fill="#183350"/>
<path d="M81.1405 63.6555C80.7359 64.0295 81.2321 62.5257 81.8275 62.2815C82.0849 62.1535 82.3823 62.1323 82.6553 62.2223C82.9283 62.3123 83.1547 62.5064 83.2855 62.7624C82.4882 62.8006 81.7293 63.1166 81.1405 63.6555Z" fill="#183350"/>
<path d="M86.5682 65.5101C86.6063 65.991 86.4537 66.3956 86.2247 66.4108C85.9957 66.4261 85.7667 66.0597 85.7285 65.5864C85.6903 65.1132 85.8354 64.7086 86.072 64.6857C86.3086 64.6628 86.5224 65.0368 86.5682 65.5101Z" fill="#183350"/>
<path d="M83.5376 65.7632C83.5834 66.2212 83.4307 66.6029 83.217 66.6258C83.0032 66.6487 82.7818 66.2899 82.736 65.8624C82.6902 65.4349 82.8429 65.0227 83.0643 65.0075C83.2857 64.9922 83.4994 65.3128 83.5376 65.7632Z" fill="#183350"/>
<path d="M88.6591 68.3647L82.8654 69.1281C82.8654 69.1281 84.392 71.4639 85.7431 71.1586C87.0943 70.8532 88.6591 68.3647 88.6591 68.3647Z" fill="#FFF8ED"/>
<path d="M82.942 52.7623C84.5528 55.367 86.5531 57.7096 88.8732 59.7087C90.4609 61.0063 95.9493 64.8307 99.5599 61.9987C103.171 59.1667 94.9341 42.6633 82.942 52.7623Z" fill="#3F468E"/>
<path d="M106.766 96.1495C117.125 94.2793 130.391 89.2794 135.933 84.3025C142.391 78.4591 147.091 70.9304 149.505 62.5626L157.704 34.777C157.704 34.777 165.291 18.9148 164.711 18.4339C163.757 17.6324 161.589 21.6934 160.642 23.6017C160.638 23.6113 160.633 23.6199 160.625 23.6272C160.618 23.6344 160.609 23.6402 160.6 23.6441C160.59 23.648 160.58 23.6499 160.569 23.6499C160.559 23.6498 160.549 23.6477 160.539 23.6437C160.53 23.6397 160.521 23.6339 160.514 23.6265C160.507 23.6192 160.501 23.6105 160.497 23.6009C160.493 23.5913 160.491 23.5811 160.491 23.5707C160.491 23.5604 160.493 23.5502 160.497 23.5407L162.444 17.1439C163.093 15.434 162.009 15.7317 161.894 15.9989L158.352 23.159C158.342 23.174 158.327 23.1852 158.309 23.1909C158.292 23.1965 158.273 23.1963 158.256 23.1902C158.239 23.1842 158.224 23.1726 158.214 23.1573C158.203 23.142 158.199 23.1239 158.2 23.1056L160.116 14.5714C160.345 13.0447 159.284 13.6936 159.192 13.9226L155.963 21.9376C155.96 21.9477 155.955 21.957 155.949 21.9651C155.942 21.9732 155.934 21.98 155.925 21.9849C155.915 21.9899 155.905 21.993 155.895 21.994C155.885 21.9951 155.874 21.9941 155.864 21.9911C155.854 21.9881 155.845 21.9831 155.837 21.9765C155.828 21.9699 155.822 21.9617 155.817 21.9525C155.812 21.9433 155.809 21.9332 155.808 21.9228C155.807 21.9124 155.808 21.9019 155.811 21.8918C156.284 19.9377 157.398 16.0065 157.146 14.4875C156.971 13.3882 156.475 14.1287 156.299 14.3272C155.482 15.2432 151.757 27.0673 151.757 27.0673C151.757 27.0673 149.414 20.8766 148.704 21.9605C148.223 22.6552 149.62 26.1665 149.765 29.7161C149.856 32.0061 150.528 32.2275 149.765 34.3953L137.765 61.7534C136.831 63.9491 135.541 65.9761 133.949 67.7533C130.46 71.57 124.025 76.5088 113.285 78.3561L106.766 96.1495Z" fill="#FFC56B"/>
<path d="M139.269 58.2269L137.742 61.7765C136.808 63.9721 135.518 65.9991 133.926 67.7763C130.437 71.593 124.002 76.5318 113.262 78.3791L106.827 96.1496C117.186 94.2794 133.201 92.5619 138.75 87.6079C143.13 83.6701 146.709 78.9245 149.292 73.6311C145.923 68.5015 142.582 63.3667 139.269 58.2269Z" fill="#FF937E"/>
<path d="M90.9876 85.2503C90.3693 85.8457 87.293 102.677 87.1709 108.341C87.0259 113.486 91.8731 121.837 93.728 131.135C93.728 131.135 113.575 140.295 122.842 135.959C123.376 128.005 121.75 93.5554 116.453 80.3878C116.453 80.3878 111.72 81.1054 109.063 81.2886C109.025 81.2886 93.2853 94.4333 90.9876 85.2503Z" fill="#FFC56B"/>
<path d="M91.6212 84.1574C91.3999 84.3635 89.2778 85.4933 88.6442 85.852C87.4229 90.1039 84.3313 104.645 84.2321 108.317C84.0871 113.462 88.1022 127.004 89.0488 131.897C89.0488 131.897 98.5142 129.981 127.979 133.255C129.742 122.37 124.162 90.0733 118.88 76.8981C118.88 76.8981 108.72 79.3331 106.415 80.669C106.445 80.669 91.7663 121.302 91.6212 84.1574Z" fill="#FF937E"/>
<g style="mix-blend-mode:multiply" opacity="0.5">
<g style="mix-blend-mode:multiply" opacity="0.5">
<path d="M123.765 93.799C117.279 106.863 109.818 119.42 101.445 131.363C107.514 131.462 116.139 131.935 128.009 133.256C129.215 125.806 126.987 108.31 123.765 93.799Z" fill="#FF937E"/>
</g>
</g>
<path d="M305.242 275.558L304.165 295.191L283.494 296.985L292.73 287.993L290.303 275.352L305.242 275.558Z" fill="#FF937E"/>
<path d="M302.585 276.023L301.486 293.733L304.745 288.29L304.967 276.924L302.585 276.023Z" fill="#E0603D"/>
<path d="M287.235 292.267L282.517 296.534C282.006 296.931 282.372 297.595 283.105 297.603C283.105 297.603 307.532 297.473 307.532 297.145C307.73 295.107 305.326 287.985 304.975 286.092C304.921 285.824 292.708 296.656 291.005 296.015C289.868 295.633 287.578 292.023 287.235 292.267Z" fill="#8CD1B5"/>
<path d="M357.653 275.459L361.034 295.29L337.943 296.985L348.401 287.512L344.752 276.81L357.653 275.459Z" fill="#FF937E"/>
<path d="M352.286 275.596L359.095 287.512L360.82 288.206L358.385 274.848L352.286 275.596Z" fill="#E0603D"/>
<path d="M341.492 292.267L336.775 296.535C336.264 296.931 336.63 297.596 337.363 297.603C337.363 297.603 362.553 297.473 362.606 297.145C362.805 295.107 361.08 287.626 360.744 285.771C360.69 285.504 346.966 296.657 345.271 296.046C344.126 295.634 341.836 292.023 341.492 292.267Z" fill="#8CD1B5"/>
<path d="M328.92 42.854C328.92 42.854 327.729 56.9071 338.157 65.9832C346.614 73.3494 335.149 82.6469 335.149 82.6469C335.149 82.6469 336.729 89.0208 333.691 90.639C319.516 98.2037 302.562 84.3644 299.753 67.2045C292.57 67.8686 295.661 58.1666 299.753 51.4568L328.92 42.854Z" fill="#FF616B"/>
<path d="M248.182 52.5014C248.617 51.738 251.38 55.1654 251.006 54.0891C250.632 53.0128 247.724 48.8374 248.449 48.3336C249.052 47.9137 251.815 53.0281 252.434 52.8373C253.052 52.6464 249.144 47.2038 249.541 46.7305C250.648 45.3413 253.899 52.2418 254.884 51.7991C254.815 51.9594 251.464 46.1657 252.701 45.868C253.273 45.7306 255.922 50.0205 258.334 54.1655C258.371 54.231 258.427 54.2831 258.495 54.3142C258.563 54.3454 258.64 54.3539 258.713 54.3386C258.787 54.3232 258.853 54.2848 258.903 54.2289C258.953 54.173 258.984 54.1027 258.991 54.0281C259.243 52.0128 259.533 49.7915 260.479 50.7304C263.105 59.3027 262.571 61.6767 262.571 61.6767H262.533L277.945 88.7371C278.471 89.6149 279.761 90.2027 280.486 89.4317C282.822 86.9509 299.287 69.5849 299.043 70.4093C298.669 71.6383 297.837 93.4164 296.982 92.8133C289.349 107.378 275.952 106.553 275.952 106.553C265.571 101.263 255.525 64.4553 255.525 64.4553H255.571C253.93 62.7912 247.823 53.2342 248.182 52.5014Z" fill="#FF937E"/>
<path d="M255.533 64.4487C256.431 68.1414 257.132 71.8795 257.632 75.6469C261.27 73.3493 264.694 70.728 267.861 67.8151L262.517 61.7083H262.556C262.556 61.7083 263.09 59.3344 260.464 50.7621C259.517 49.8231 259.227 52.0445 258.975 54.0597C258.968 54.1343 258.938 54.2047 258.888 54.2605C258.838 54.3164 258.771 54.3548 258.698 54.3702C258.625 54.3855 258.548 54.377 258.48 54.3459C258.412 54.3147 258.355 54.2626 258.319 54.1971C255.907 50.0521 253.258 45.7622 252.686 45.8996C251.449 46.1973 254.8 52.0063 254.869 51.8307C253.876 52.2735 250.625 45.3729 249.525 46.7621C249.128 47.2583 253.037 52.7086 252.418 52.8689C251.8 53.0292 249.037 47.9453 248.434 48.3652C247.709 48.869 250.625 53.0368 250.991 54.1207C251.357 55.2047 248.602 51.7315 248.167 52.533C247.732 53.3345 253.922 62.8228 255.563 64.4564L255.533 64.4487Z" fill="#FFC56B"/>
<path d="M300.066 69.5249C300.066 69.5249 298.188 66.1128 294.31 69.4028C290.432 72.6928 279.975 88.5549 279.975 88.5549L290.196 106.417L300.066 69.5249Z" fill="#FFC56B"/>
<g style="mix-blend-mode:multiply">
<path d="M276.258 106.592L298.097 70.3795C298.097 70.3795 297.685 88.8294 296.662 92.3408C292.86 105.47 276.258 106.592 276.258 106.592Z" fill="#FFF8ED"/>
</g>
<path d="M258.915 46.0519H253.93C253.573 46.0516 253.221 45.9703 252.9 45.8141C252.579 45.6579 252.298 45.4308 252.077 45.1501C251.857 44.8693 251.703 44.5421 251.627 44.1933C251.551 43.8444 251.556 43.4829 251.64 43.136L254.487 31.5103C254.589 31.0762 254.834 30.6892 255.183 30.4121C255.533 30.135 255.965 29.984 256.411 29.9836C256.857 29.984 257.289 30.135 257.639 30.4121C257.988 30.6892 258.233 31.0762 258.335 31.5103L261.205 43.1741C261.282 43.5184 261.282 43.8758 261.203 44.2198C261.124 44.5638 260.969 44.8858 260.75 45.1619C260.53 45.4381 260.251 45.6614 259.933 45.8155C259.616 45.9695 259.268 46.0503 258.915 46.0519Z" fill="#FFC56B"/>
<path d="M256.693 38.2893V54.7316" stroke="#020C2B" stroke-width="0.77" stroke-miterlimit="10" stroke-linecap="round"/>
<path d="M256.869 59.4952C255.464 59.4952 254.357 58.5868 254.441 57.5105L255.579 48.923H258.166L259.273 57.5105C259.388 58.5868 258.273 59.4952 256.869 59.4952Z" fill="#020C2B" stroke="#020C2B" stroke-width="0.66" stroke-miterlimit="10"/>
<path d="M307.158 65.0981L300.402 42.4117C300.211 37.0225 300.959 34.4806 302.181 33.16C305.524 29.5494 308.043 28.58 312.646 29.3967C333.073 33.1295 331.63 46.1291 323.256 52.2969C318.447 55.8007 307.158 65.0981 307.158 65.0981Z" fill="#FF616B"/>
<path d="M316.775 46.1593C316.784 46.2123 316.804 46.2628 316.834 46.3075C316.863 46.3521 316.902 46.3898 316.948 46.4181C316.993 46.4463 317.045 46.4644 317.098 46.4711C317.151 46.4778 317.205 46.473 317.256 46.457C318.165 46.167 320.394 45.7471 321.294 48.1669C322.195 50.5867 319.256 53.6629 317.623 52.6401C317.264 52.4187 316.905 53.0981 316.707 53.4874C314.88 57.2752 313.548 61.2827 312.745 65.4107C311.982 69.1053 313.05 73.9143 313.05 73.9143C313.05 73.9143 303.89 72.9678 298.951 71.1892C298.951 71.1892 302.554 59.6246 303.844 56.3194C302.448 55.6324 296.249 55.9759 298.005 45.4265C299.608 35.7779 304.875 34.6024 306.554 34.4039C307.951 34.2283 314.348 34.6329 316.775 46.1593Z" fill="#FF937E"/>
<path d="M306.295 57.1814C306.063 57.408 305.774 57.5684 305.459 57.646C305.143 57.7237 304.813 57.7158 304.502 57.6233C304.191 57.5307 303.91 57.3567 303.688 57.1194C303.467 56.8821 303.313 56.5899 303.242 56.2731H307.242L306.288 57.1814" fill="#1E2046"/>
<path d="M317.234 49.5169C318.287 46.0971 320.615 48.6238 320.615 48.6238L317.234 49.5169Z" fill="#D86859"/>
<path d="M307.646 46.6166C307.143 46.6002 306.646 46.7334 306.219 46.9995C305.792 47.2656 305.453 47.6525 305.246 48.1112C305.039 48.5699 304.973 49.0798 305.056 49.5762C305.139 50.0726 305.367 50.5332 305.712 50.8996C306.057 51.2661 306.503 51.5218 306.994 51.6345C307.484 51.7472 307.997 51.7118 308.468 51.5327C308.938 51.3535 309.345 51.0388 309.636 50.6284C309.927 50.218 310.09 49.7303 310.104 49.2272C310.122 48.5555 309.874 47.9039 309.414 47.4147C308.953 46.9255 308.317 46.6385 307.646 46.6166Z" fill="#FF8169"/>
<path d="M297.746 49.1965C298.321 49.0966 298.844 48.8012 299.226 48.3604C299.608 47.9195 299.827 47.3601 299.845 46.7767C299.845 45.8302 299.013 45.0134 298.257 44.5554C298.257 44.5554 297.326 47.3187 297.746 49.1965Z" fill="#FF8169"/>
<path d="M299.31 47.7544L303.509 48.7773C303.509 48.7773 301.982 50.533 300.807 50.0291C299.631 49.5253 299.31 47.7544 299.31 47.7544Z" fill="white"/>
<path d="M306.852 42.8997C307.257 43.3119 306.814 41.7241 306.211 41.4417C305.608 41.1593 304.684 41.0142 304.562 41.5562C304.44 42.0982 305.883 41.915 306.852 42.8997Z" fill="black"/>
<path d="M299.058 40.9759C298.532 41.2202 299.516 39.8919 300.18 39.8461C300.844 39.8003 301.707 40.0523 301.47 40.7851C301.257 41.3652 300.318 40.4034 299.058 40.9759Z" fill="black"/>
<path d="M304.448 45.3801C304.333 45.8686 304.051 46.2121 303.822 46.1434C303.593 46.0747 303.486 45.6549 303.593 45.1664C303.7 44.6778 303.99 44.3343 304.226 44.403C304.463 44.4717 304.562 44.8916 304.448 45.3801Z" fill="black"/>
<path d="M300.669 44.5411C300.562 45.0067 300.295 45.3044 300.066 45.3044C299.837 45.3044 299.746 44.8311 299.853 44.3655C299.959 43.8999 300.234 43.6022 300.456 43.6022C300.677 43.6022 300.776 44.0754 300.669 44.5411Z" fill="black"/>
<path d="M322.737 38.9538C324.34 41.1293 317.394 34.244 316.409 35.2592C318.142 35.6943 317.402 42.343 317.402 42.343C312.226 44.4499 312.738 36.9157 312.898 35.9997C301.036 44.5796 301.776 33.7631 303.074 30.2594C305.494 23.6947 316.89 26.0992 322.287 31.1448C324.34 33.0685 320.829 36.3737 322.737 38.9538Z" fill="#FF616B"/>
<path d="M301.509 46.9904L299.936 46.6546C300.5 45.8697 301.115 45.1225 301.776 44.418L301.509 46.9904Z" fill="#D86859"/>
<path d="M320.562 67.6028C317.768 67.1542 315.026 66.4253 312.379 65.4272C312.211 65.7707 306.119 70.7706 302.722 69.7783C301.959 69.5893 301.287 69.136 300.826 68.4988C300.365 67.8617 300.144 67.0818 300.203 66.2975C300.455 66.9539 289.517 80.2131 288.234 86.5718C287.028 92.5869 290.272 111.472 290.272 113.831H320.806C320.806 113.831 323.226 75.6789 320.562 67.6028Z" fill="#FFC56B"/>
<g style="mix-blend-mode:multiply">
<path d="M326.447 75.502L296.249 114.661L319.806 115.112C319.806 115.112 326.63 83.7308 326.447 75.502Z" fill="#FFF8ED"/>
</g>
<path d="M337.439 100.822C346.691 97.5549 356.683 97.8526 362.958 96.2419C367.469 93.0588 366.98 93.6924 370.53 91.6085C370.53 91.6085 374.347 89.0665 373.996 90.8069C373.934 91.1657 369.919 95.2496 370.301 95.219C370.683 95.1885 381.232 94.0359 381.346 95.0282C381.461 96.0206 374.782 96.0587 374.843 96.5549C374.904 97.0511 381.614 96.1809 381.972 96.99C382.331 97.7991 375.461 98.5167 375.759 98.822C376.057 99.1273 382.24 98.135 382.446 98.822C382.652 99.509 375.934 100.349 375.85 100.677C375.766 101.005 381.957 100.02 382.537 100.677C382.98 101.143 377.049 102.02 375.331 102.746C371.763 104.263 368.077 105.486 364.309 106.402C361.752 108.005 335.699 118.776 324.386 116.516C324.386 116.516 322.478 113.73 321.608 106.417L337.439 100.822Z" fill="#FF937E"/>
<path d="M382.537 100.645C381.942 100.019 375.759 101.019 375.851 100.645C375.942 100.271 382.652 99.4392 382.446 98.7904C382.24 98.1416 376.049 99.1339 375.759 98.7904C375.469 98.4469 382.324 97.7675 381.973 96.9584C381.621 96.1492 374.896 97.0194 374.843 96.5233C374.79 96.0271 381.469 95.9889 381.347 94.9966C381.225 94.0043 370.66 95.1569 370.301 95.1874C369.942 95.218 373.935 91.1341 373.996 90.7753C374.309 89.0349 370.53 91.5768 370.53 91.5768C366.981 93.6608 367.477 93.0272 362.958 96.2103C361.385 96.6072 358.988 95.3783 357.019 95.6225C357.401 99.485 357.966 106.76 358.584 110.592C361.263 109.5 363.706 106.683 364.309 106.309C368.065 105.411 371.741 104.209 375.301 102.714C377.049 101.989 382.98 101.111 382.537 100.645Z" fill="#FFC56B"/>
<path d="M338.485 100.906L320.997 107.432C320.997 107.432 306.234 70.4791 317.676 67.6548C329.119 64.8304 338.485 100.906 338.485 100.906Z" fill="#FFC56B"/>
<path d="M286.99 76.3401C287.317 78.3677 288.132 80.2854 289.364 81.9278C290.288 83.1568 291.532 84.3247 293.181 83.7827C293.96 83.4679 294.666 82.9978 295.257 82.401C296.151 81.6377 297.021 80.7751 297.876 79.9431C298.731 79.1111 299.402 78.4164 300.166 77.6531C300.911 76.7651 301.753 75.9637 302.677 75.2638C304.807 73.9051 307.333 75.1188 308.99 76.6455C310.517 78.0348 311.654 79.7752 313.295 81.027C313.948 81.5912 314.712 82.0108 315.538 82.2581C316.365 82.5055 317.234 82.575 318.089 82.4621C319.738 82.1339 320.921 80.8744 321.852 79.5538C324.264 76.1188 326.325 71.7983 330.89 70.9586C331.264 70.8899 331.104 70.3174 330.73 70.3861C327.447 70.9891 325.135 73.5463 323.325 76.1798C322.318 77.6531 321.516 79.3172 320.272 80.5843C318.623 82.2178 316.455 82.2636 314.509 81.1186C311.249 79.2027 309.7 74.9509 305.723 74.1722C304.978 74.0287 304.21 74.0669 303.483 74.2835C302.756 74.5001 302.092 74.8887 301.547 75.4165C300.021 76.7829 298.7 78.363 297.235 79.7828C296.349 80.6301 295.471 81.4927 294.532 82.2865C293.303 83.3247 291.975 83.7674 290.716 82.5232C289.058 80.7839 287.99 78.5674 287.662 76.1875C287.594 75.8134 287.021 75.9737 287.09 76.3478L286.99 76.3401Z" fill="#1E2046"/>
<path d="M281.983 82.3392C282.945 84.8612 284.104 87.3038 285.448 89.6443C286.616 91.824 288.058 93.8455 289.738 95.6594C290.468 96.4739 291.353 97.134 292.341 97.6007C293.33 98.0675 294.402 98.3314 295.494 98.3769C297.906 98.3769 300.074 97.1251 301.96 95.6976C302.833 94.926 303.812 94.2834 304.868 93.7893C305.59 93.5476 306.356 93.4682 307.112 93.5566C307.868 93.645 308.595 93.8991 309.242 94.3007C311.471 95.522 312.99 97.606 314.921 99.2166C316.547 100.568 318.471 101.56 320.646 101.239C322.936 100.904 324.905 99.3769 326.57 97.8579C327.631 96.8887 328.613 95.8371 329.508 94.7129C330.336 93.4801 331.252 92.3091 332.249 91.2092C334.539 89.0566 337.76 89.3772 340.646 89.7359C341.027 89.7817 341.02 89.1863 340.646 89.1405C338.417 88.8657 336.004 88.5986 333.867 89.4764C331.73 90.3542 330.646 92.316 329.287 94.0564C327.679 96.2307 325.69 98.0954 323.417 99.5601C322.352 100.288 321.087 100.669 319.797 100.649C318.507 100.63 317.254 100.212 316.211 99.4532C312.944 97.1632 309.982 91.8962 305.288 93.0412C303.089 93.5755 301.471 95.5373 299.563 96.5984C297.158 97.9189 294.448 98.2472 292.044 96.7587C289.639 95.2701 288.021 92.7282 286.586 90.3771C285.003 87.7735 283.66 85.0321 282.571 82.1865C282.433 81.8277 281.861 81.9804 281.998 82.3392H281.983Z" fill="#1E2046"/>
<path d="M320.562 114.318C321.951 114.631 329.317 123.799 332.325 138.524C333.409 143.867 337.378 165.172 344.538 189.309C354.645 223.521 361.332 263.917 362.171 277.505C358.469 278.474 347.057 279.093 344.714 278.948C339.241 261.444 316.47 194.163 306.417 161.286C306.322 160.936 306.101 160.633 305.796 160.436C305.49 160.239 305.123 160.163 304.764 160.222C304.406 160.281 304.082 160.471 303.856 160.755C303.629 161.039 303.516 161.397 303.539 161.76C303.219 196.27 307.165 270.039 305.562 279.039C303.616 280.108 290.257 279.612 288.005 279.306C285.57 250.773 266.632 130.692 291.204 113.082C303.478 112.822 311.898 112.356 320.562 114.318Z" fill="#8064A2"/>
<path d="M292.86 113.34C292.86 113.34 288.715 114.439 283.395 135.927C277.067 161.491 289.807 279.488 289.807 279.488" stroke="white" stroke-width="0.48" stroke-miterlimit="10"/>
<path d="M317.882 113.05C317.882 113.05 322.31 123.981 339.645 188.819C345.752 211.72 352.324 239.047 360.881 277.955" stroke="white" stroke-width="0.48" stroke-miterlimit="10"/>
<path d="M287.082 279.847C286.898 279.664 286.356 272.29 286.356 272.29L306.883 273.183L305.982 280.206L287.082 279.847Z" fill="#B5E8D3"/>
<path d="M342.164 273.008L344.324 279.665L362.866 278.23L362.507 271.024L342.164 273.008Z" fill="#B5E8D3"/>
<g style="mix-blend-mode:multiply" opacity="0.28">
<path d="M291.204 112.776L331.241 135.18C331.241 135.18 329.714 123.432 319.264 112.761L291.204 112.776Z" fill="#8CD1B5"/>
</g>
<path d="M288.845 116.624H321.417V112.005H288.845V116.624Z" fill="#8CD1B5"/>
<path d="M228.427 85.9904C225.959 83.5034 224.096 80.4836 222.979 77.1633C221.862 73.843 221.522 70.3107 221.984 66.8382C222.976 66.6855 223.847 67.4641 224.534 68.2046C226.88 70.5679 228.769 73.3448 230.106 76.3952C231.441 79.4786 231.577 82.9493 230.488 86.1278" fill="#8CD1B5"/>
<path d="M228.893 86.0515C227.073 83.8758 224.807 82.1166 222.248 80.8931C219.689 79.6696 216.897 79.0104 214.061 78.9601C215.475 81.6929 217.67 83.9435 220.366 85.4256C221.715 86.1514 223.202 86.5825 224.73 86.6904C226.258 86.7983 227.791 86.5806 229.229 86.0515" fill="#8CD1B5"/>
<path d="M241.037 87.1895C240.321 82.943 240.417 78.5991 241.32 74.3883C242.235 70.1593 244.412 66.3077 247.564 63.3428C247.691 63.1921 247.85 63.0716 248.03 62.9897C248.209 62.9079 248.405 62.8668 248.602 62.8695C249.75 67.7295 249.645 72.8013 248.297 77.6096C247.327 81.0293 245.617 84.4109 242.678 86.4033" fill="#8CD1B5"/>
<path d="M256.014 83.3499C255.381 86.1371 255.61 89.0511 256.67 91.7053C257.731 94.3596 259.573 96.6288 261.953 98.2121C262.958 96.9659 263.611 95.473 263.843 93.8887C264.076 92.3045 263.879 90.687 263.273 89.2047C262.642 87.7338 261.723 86.4037 260.571 85.2922C259.419 84.1807 258.056 83.3102 256.564 82.7316" fill="#8CD1B5"/>
<path d="M235.648 70.1287C230.77 67.1517 226.236 63.419 223.106 58.6328C219.977 53.8467 218.343 47.9461 219.465 42.2974C226.967 46.0838 232.712 52.6275 235.495 60.5564C236.518 63.5258 237.068 66.938 235.595 69.7165" fill="#8CD1B5"/>
<path d="M243.923 86.334C246.213 83.7157 249.266 80.4486 253.083 81.6471C257.075 82.8913 258.625 87.2271 259.678 90.8071C259.721 90.9293 259.808 91.0308 259.922 91.0911C260.037 91.1514 260.17 91.1661 260.295 91.1322C260.42 91.0983 260.527 91.0184 260.595 90.9085C260.664 90.7986 260.688 90.6669 260.663 90.54C259.495 86.5401 257.731 81.9829 253.358 80.6166C249.129 79.296 245.724 82.6471 243.175 85.563C242.747 86.0592 243.465 86.7843 243.9 86.2882L243.923 86.334Z" fill="#5BC29C"/>
<path d="M235.61 85.9971C239.495 73.9211 233.473 61.929 227.938 51.4712C227.625 50.8911 226.748 51.4025 227.053 51.9827C232.457 62.2038 238.419 73.9211 234.625 85.7299C234.419 86.3559 235.389 86.623 235.61 85.9971Z" fill="#5BC29C"/>
<path d="M243.472 119.509H230.32C228.766 119.51 227.226 119.205 225.79 118.611C224.353 118.017 223.048 117.145 221.949 116.046C220.849 114.948 219.977 113.643 219.382 112.207C218.787 110.771 218.481 109.232 218.481 107.677L224.053 85.3345H248.854L255.312 107.677C255.312 109.232 255.005 110.771 254.41 112.207C253.815 113.643 252.943 114.948 251.844 116.046C250.744 117.145 249.439 118.017 248.002 118.611C246.566 119.205 245.027 119.51 243.472 119.509Z" fill="#0096C8"/>
<path d="M227.595 91.4641C227.771 91.4458 227.935 91.3627 228.054 91.2309C228.173 91.0991 228.238 90.9278 228.238 90.7503C228.238 90.5728 228.173 90.4016 228.054 90.2698C227.935 90.138 227.771 90.0549 227.595 90.0366C227.418 90.0549 227.255 90.138 227.136 90.2698C227.017 90.4016 226.951 90.5728 226.951 90.7503C226.951 90.9278 227.017 91.0991 227.136 91.2309C227.255 91.3627 227.418 91.4458 227.595 91.4641Z" fill="#FCFCFC"/>
<path d="M236.198 98.5471C236.374 98.5288 236.538 98.4457 236.657 98.3139C236.775 98.1821 236.841 98.0109 236.841 97.8333C236.841 97.6558 236.775 97.4846 236.657 97.3528C236.538 97.221 236.374 97.1379 236.198 97.1196C236.021 97.1379 235.858 97.221 235.739 97.3528C235.62 97.4846 235.554 97.6558 235.554 97.8333C235.554 98.0109 235.62 98.1821 235.739 98.3139C235.858 98.4457 236.021 98.5288 236.198 98.5471Z" fill="#FCFCFC"/>
<path d="M225.312 106.906C225.489 106.887 225.652 106.804 225.771 106.673C225.89 106.541 225.956 106.369 225.956 106.192C225.956 106.014 225.89 105.843 225.771 105.711C225.652 105.58 225.489 105.497 225.312 105.478C225.136 105.497 224.972 105.58 224.853 105.711C224.734 105.843 224.669 106.014 224.669 106.192C224.669 106.369 224.734 106.541 224.853 106.673C224.972 106.804 225.136 106.887 225.312 106.906Z" fill="#FCFCFC"/>
<path d="M246.831 91.4641C247.007 91.4458 247.171 91.3627 247.29 91.2309C247.409 91.0991 247.475 90.9278 247.475 90.7503C247.475 90.5728 247.409 90.4016 247.29 90.2698C247.171 90.138 247.007 90.0549 246.831 90.0366C246.654 90.0549 246.491 90.138 246.372 90.2698C246.253 90.4016 246.187 90.5728 246.187 90.7503C246.187 90.9278 246.253 91.0991 246.372 91.2309C246.491 91.3627 246.654 91.4458 246.831 91.4641Z" fill="#FCFCFC"/>
<path d="M249.35 106.395C249.526 106.377 249.69 106.294 249.809 106.162C249.928 106.03 249.994 105.859 249.994 105.682C249.994 105.504 249.928 105.333 249.809 105.201C249.69 105.069 249.526 104.986 249.35 104.968C249.173 104.986 249.01 105.069 248.891 105.201C248.772 105.333 248.706 105.504 248.706 105.682C248.706 105.859 248.772 106.03 248.891 106.162C249.01 106.294 249.173 106.377 249.35 106.395Z" fill="#FCFCFC"/>
<path d="M237.465 116.02C237.641 116.002 237.805 115.919 237.924 115.787C238.043 115.655 238.109 115.484 238.109 115.307C238.109 115.129 238.043 114.958 237.924 114.826C237.805 114.694 237.641 114.611 237.465 114.593C237.288 114.611 237.125 114.694 237.006 114.826C236.887 114.958 236.821 115.129 236.821 115.307C236.821 115.484 236.887 115.655 237.006 115.787C237.125 115.919 237.288 116.002 237.465 116.02Z" fill="#FCFCFC"/>
<path d="M221.419 97.8989C225.77 98.5096 228.641 102.051 230.412 105.807C232.182 109.563 233.785 114.753 230.503 118.219C230.137 118.601 230.717 119.181 231.083 118.799C234.488 115.204 233.175 110.013 231.389 105.99C229.549 101.838 226.427 97.7844 221.641 97.1126C221.122 97.0439 220.877 97.8302 221.419 97.876V97.8989Z" fill="#FCFCFC"/>
<path d="M237.358 85.921C237.218 88.1829 237.531 90.4499 238.279 92.589C239.028 94.728 240.196 96.6959 241.716 98.377C243.236 100.058 245.076 101.419 247.129 102.378C249.182 103.338 251.406 103.878 253.67 103.966C254.197 103.966 254.197 103.203 253.67 103.15C251.513 103.063 249.395 102.545 247.441 101.626C245.487 100.708 243.737 99.4071 242.293 97.8014C240.85 96.1958 239.742 94.3173 239.036 92.2769C238.33 90.2365 238.04 88.0754 238.182 85.921C238.182 85.3943 237.419 85.3943 237.358 85.921Z" fill="#FCFCFC"/>
<path d="M264.014 119.599H209.58V126.134H264.014V119.599Z" fill="#A94846"/>
<path d="M213.939 126.134L272.731 298.152" stroke="#A94846" stroke-width="2" stroke-miterlimit="10"/>
<path d="M258.579 126.134L199.786 298.152" stroke="#A94846" stroke-width="2" stroke-miterlimit="10"/>
<path d="M551.565 277.718L550.489 297.359L529.81 299.153L539.054 290.16L536.619 277.52L551.565 277.718Z" fill="#FF937E"/>
<path d="M548.901 278.184L547.809 295.893L551.069 290.45L551.29 279.092L548.901 278.184Z" fill="#E0603D"/>
<path d="M533.55 294.435L528.84 298.702C528.321 299.099 528.688 299.763 529.42 299.771C529.42 299.771 553.847 299.641 553.847 299.313C554.046 297.275 551.641 290.115 551.29 288.26C551.244 287.993 539.023 298.824 537.321 298.183C536.191 297.801 533.894 294.168 533.55 294.435Z" fill="#45A2B9"/>
<path d="M541.122 29.8241C541.122 29.8241 539.39 35.4194 537.649 43.1291C536.932 46.3351 532.222 46.3962 530.329 51.0373C528.588 55.2738 529.169 60.0981 528.588 62.7927C526.711 71.5635 520.108 63.3728 520.489 68.7696C520.871 74.1665 568.694 105.769 585.892 74.7466C585.892 74.7466 586.465 68.9605 578.373 63.953C570.282 58.9455 570.465 60.0981 570.855 53.9227C571.244 47.7473 572.778 48.1442 566.221 40.8162C562.336 36.4728 563.526 30.9844 559.282 29.4424C555.038 27.9005 541.122 29.8241 541.122 29.8241Z" fill="#FFC56B"/>
<path d="M540.527 50.877C540.527 50.877 545.206 58.0905 543.626 70.51C543.626 70.51 546.908 97.8834 560.48 68.9834L554.832 53.9227L540.527 50.877Z" fill="#FF937E"/>
<path d="M555.977 54.1818C555.733 57.1054 552.619 62.1893 549.871 62.1282C546.55 62.0442 543.344 58.4642 543.252 53.3269C543.252 51.2964 548.68 51.1285 551.397 51.3575C554.115 51.5865 556.222 51.2659 555.977 54.1818Z" fill="#1E2046"/>
<path d="M562.084 48.5174L558.435 48.0823L558.916 44.0137L562.565 44.4488C562.833 44.4809 563.092 44.5657 563.328 44.6983C563.563 44.8308 563.77 45.0086 563.937 45.2214C564.104 45.4341 564.227 45.6777 564.299 45.9381C564.371 46.1985 564.391 46.4706 564.358 46.7388C564.292 47.2759 564.015 47.7646 563.588 48.0979C563.162 48.4313 562.621 48.5821 562.084 48.5174Z" fill="#FF937E"/>
<path d="M538.214 44.5253L541.886 44.4795L541.939 48.571L538.267 48.6244C537.724 48.6305 537.201 48.4211 536.811 48.0419C536.422 47.6628 536.199 47.1448 536.191 46.6016C536.185 46.0583 536.394 45.5347 536.774 45.1455C537.153 44.7564 537.671 44.5333 538.214 44.5253Z" fill="#FF937E"/>
<path d="M538.084 45.6182H539.611V47.3128H538.084C537.859 47.3149 537.641 47.2278 537.48 47.0705C537.318 46.9133 537.225 46.6986 537.221 46.4731C537.221 46.3602 537.244 46.2484 537.287 46.1442C537.331 46.04 537.394 45.9454 537.475 45.8659C537.555 45.7864 537.65 45.7236 537.754 45.6811C537.859 45.6386 537.971 45.6172 538.084 45.6182Z" fill="#D9634C"/>
<path d="M562.481 45.6172L560.954 45.4111L560.725 47.0828L562.252 47.2889C562.365 47.3038 562.48 47.2957 562.59 47.265C562.699 47.2343 562.802 47.1818 562.891 47.1105C562.98 47.0392 563.054 46.9507 563.108 46.8501C563.162 46.7496 563.195 46.6393 563.206 46.5256C563.225 46.3099 563.161 46.0949 563.026 45.9257C562.891 45.7564 562.695 45.6459 562.481 45.6172Z" fill="#D9634C"/>
<path d="M551.809 30.6635C558.816 31.5108 562.717 37.9153 561.862 44.9227L561.793 45.457C560.648 52.9683 554.443 59.014 548.817 58.5101C543.191 58.0063 538.13 49.3501 538.962 42.335L539.031 41.8007C539.878 34.7779 544.802 29.8162 551.809 30.6635Z" fill="#FF937E"/>
<path d="M549.763 53.0971H549.359C548.667 53.0752 548.013 52.7799 547.54 52.2762C547.066 51.7724 546.811 51.1013 546.832 50.4102L552.45 50.5781C552.439 50.92 552.361 51.2564 552.22 51.568C552.079 51.8797 551.878 52.1605 551.629 52.3945C551.379 52.6284 551.086 52.8109 550.766 52.9315C550.446 53.052 550.105 53.1083 549.763 53.0971Z" fill="white"/>
<path d="M553.488 47.2051C553.488 47.7471 553.19 48.1822 552.847 48.1746C552.503 48.167 552.229 47.7242 552.236 47.1822C552.244 46.6403 552.534 46.1975 552.877 46.2052C553.221 46.2128 553.496 46.6555 553.488 47.2051Z" fill="#1E2046"/>
<path d="M548.092 47.0901C548.092 47.6397 547.794 48.0748 547.45 48.0672C547.107 48.0595 546.832 47.6168 546.84 47.0672C546.847 46.5176 547.137 46.0901 547.481 46.0978C547.824 46.1054 548.099 46.5481 548.092 47.0901Z" fill="#1E2046"/>
<path d="M550.481 49.5331H549.252C549.099 49.5331 549 49.2888 549.061 49.0751L549.779 46.5942C549.847 46.35 550.061 46.3347 550.145 46.5942L550.641 49.0751C550.779 49.2812 550.641 49.5331 550.481 49.5331Z" fill="#D9634C"/>
<path d="M545.695 49.4878C545.651 49.1997 545.522 48.9311 545.325 48.7162C545.128 48.5013 544.872 48.3496 544.588 48.2804C544.305 48.2112 544.008 48.2276 543.734 48.3274C543.46 48.4273 543.222 48.6062 543.05 48.8415C542.878 49.0767 542.779 49.3578 542.767 49.6491C542.754 49.9403 542.829 50.2287 542.98 50.4777C543.132 50.7267 543.354 50.9251 543.618 51.0479C543.883 51.1706 544.178 51.2121 544.466 51.1672C544.849 51.1033 545.193 50.8918 545.423 50.5779C545.652 50.2641 545.75 49.8728 545.695 49.4878Z" fill="#FF7C6B"/>
<path d="M557.389 50.0442C557.366 49.8472 557.303 49.6568 557.205 49.4846C557.107 49.3123 556.974 49.1617 556.816 49.0418C556.658 48.9219 556.478 48.8351 556.285 48.7867C556.093 48.7383 555.893 48.7293 555.697 48.7601C555.501 48.791 555.313 48.8611 555.145 48.9663C554.976 49.0715 554.831 49.2096 554.718 49.3723C554.604 49.5349 554.525 49.7189 554.484 49.9131C554.443 50.1072 554.442 50.3076 554.481 50.5022C554.555 50.8755 554.77 51.2057 555.083 51.4235C555.395 51.6414 555.779 51.73 556.155 51.6707C556.531 51.6115 556.869 51.4091 557.099 51.1059C557.329 50.8027 557.433 50.4222 557.389 50.0442Z" fill="#FF7C6B"/>
<path d="M555.008 44.6239C555.473 45.0209 554.863 43.3797 554.199 43.0973C554.055 43.0306 553.9 42.9929 553.742 42.9864C553.584 42.9799 553.427 43.0046 553.279 43.0592C553.13 43.1139 552.994 43.1973 552.878 43.3047C552.762 43.4121 552.669 43.5413 552.603 43.685C553.49 43.7041 554.342 44.0367 555.008 44.6239Z" fill="#1E2046"/>
<path d="M545.328 43.5785C544.802 43.8838 545.718 42.3877 546.412 42.2732C546.722 42.197 547.049 42.2466 547.322 42.4111C547.596 42.5756 547.793 42.8417 547.87 43.151C546.999 42.9945 546.1 43.1456 545.328 43.5785Z" fill="#1E2046"/>
<path d="M538.825 44.3188C538.825 44.3188 545.695 37.5709 546.138 35.3191C546.138 35.3191 544.977 40.8151 555.97 38.3114C559.344 37.548 557.496 46.647 561.885 44.2883C561.885 44.2883 569.275 26.5941 549.672 25.9682C539.176 25.6781 537.565 34.1664 538.825 44.3188Z" fill="#FFC56B"/>
<path d="M560.221 88.4471C571.618 87.3326 586.442 83.0427 592.884 78.1649C600.417 72.4055 606.191 64.6566 609.556 55.7915L620.845 26.38C620.845 26.38 630.463 9.85369 629.876 9.27355C628.914 8.31938 626.212 12.533 625.013 14.5177C625.008 14.5277 625.001 14.5367 624.993 14.544C624.984 14.5513 624.974 14.5569 624.964 14.5605C624.953 14.564 624.942 14.5655 624.931 14.5647C624.92 14.5639 624.909 14.5609 624.899 14.5559C624.889 14.5509 624.88 14.5439 624.872 14.5354C624.865 14.527 624.859 14.5172 624.856 14.5065C624.852 14.4959 624.851 14.4847 624.852 14.4735C624.853 14.4623 624.856 14.4514 624.861 14.4414L627.532 7.67817C628.387 5.88433 627.189 6.15149 627.044 6.38813L622.532 13.8612C622.522 13.8797 622.505 13.8938 622.485 13.9005C622.465 13.9072 622.444 13.9061 622.424 13.8974C622.405 13.8887 622.39 13.8731 622.381 13.8537C622.373 13.8343 622.373 13.8124 622.38 13.7925L625.212 4.70115C625.586 3.0676 624.38 3.67828 624.265 3.93781L620.059 12.3345C620.006 12.4261 619.861 12.3345 619.891 12.2735C620.578 10.1972 622.135 6.037 621.998 4.36528C621.899 3.15157 621.296 3.91491 621.09 4.11338C620.128 5.03702 615.044 17.5329 615.044 17.5329C615.044 17.5329 613.044 10.6094 612.143 11.7162C611.563 12.4338 612.769 16.365 612.617 20.2198C612.517 22.7007 613.243 23.0213 612.189 25.296L596.77 53.906C595.548 56.2057 593.957 58.2893 592.06 60.0738C587.945 63.8905 580.556 68.6995 568.725 69.7529L560.221 88.4471Z" fill="#FF937E"/>
<path d="M534.039 90.0057C499.52 98.0513 481.101 46.5793 481.101 46.5793L475.88 34.7781C475.88 34.7781 463.666 20.038 464.178 19.3739C464.941 18.2823 468.33 21.9998 469.834 23.7631C469.903 23.8471 470.025 23.7631 469.972 23.6562L466.231 17.4198C465.101 15.7862 466.315 15.8167 466.506 16.0686L472.155 22.6792C472.167 22.6984 472.186 22.712 472.208 22.717C472.23 22.722 472.254 22.718 472.273 22.7059C472.292 22.6937 472.306 22.6744 472.311 22.6522C472.316 22.6301 472.312 22.6068 472.3 22.5876L468.025 14.084C467.384 12.5573 468.674 12.9389 468.788 13.1527L474.307 20.7861C474.376 20.87 474.513 20.7861 474.46 20.6945C473.452 18.7632 471.231 14.9084 471.094 13.2366C471.002 12.0229 471.712 12.6794 471.949 12.8397C473.055 13.6031 480.101 25.0989 480.101 25.0989C480.101 25.0989 480.948 17.9465 482.017 18.8854C482.704 19.496 482.154 23.5723 482.941 27.3508C483.437 29.7858 482.773 30.2133 484.185 32.2896L494.421 47.4571C502.894 60.4339 518.55 74.8534 540.718 69.2352L542.756 68.9146L534.039 90.0057Z" fill="#FF937E"/>
<path d="M480.124 25.0762C480.124 25.0762 478.902 26.4044 479.498 29.0608" stroke="#A94846" stroke-width="0.12" stroke-miterlimit="10" stroke-linecap="round"/>
<path d="M475.514 20.8857C475.514 20.8857 471.59 22.4124 470.407 24.336" stroke="#A94846" stroke-width="0.12" stroke-miterlimit="10" stroke-linecap="round"/>
<path d="M540.741 69.2119C532.703 71.3868 524.162 70.7401 516.543 67.3799C513.619 73.0668 506.619 79.5933 503.91 82.0742C510.467 90.364 523.604 93.1273 533.794 90.7533L543.435 67.6012L540.741 69.2119Z" fill="#FF616B"/>
<path d="M586.335 64.3428C580.964 67.442 574.962 69.2893 568.778 69.7472L559.152 88.7925C568.419 93.0291 580.969 85.5712 588.572 81.1133C587.251 75.9303 587.648 69.5182 586.335 64.3428Z" fill="#FF616B"/>
<path d="M544.58 68.8757C543.817 69.3872 532.68 86.2188 531.374 92.2416C530.191 97.7147 536.214 115.615 539.962 123.042C539.962 123.042 554.939 126.966 565.702 124.203C567.87 115.806 572.106 84.5089 569.076 69.349C569.076 69.349 563.076 68.0284 560.206 67.7002C560.206 67.7002 545.191 79.1503 544.58 68.8757Z" fill="#FF937E"/>
<path d="M543.626 67.2266C542.863 67.738 531.061 86.5314 529.764 92.5542C528.581 98.0273 532.412 103.447 532.443 108.874C532.443 108.874 561.595 111.065 572.358 108.294C574.518 99.8975 572.488 84.1116 569.465 68.9593C569.465 68.9593 562.938 66.7304 560.206 67.6998C560.206 67.6998 546.137 81.8827 543.626 67.2266Z" fill="#FF616B"/>
<g style="mix-blend-mode:multiply" opacity="0.5">
<g style="mix-blend-mode:multiply" opacity="0.5">
<path d="M554.656 109.692C561.473 109.692 568.252 109.348 572.358 108.295C573.259 104.806 573.427 100.028 573.122 94.5547C567.8 100.539 561.568 105.647 554.656 109.692Z" fill="#FF616B"/>
</g>
</g>
<path d="M593.434 277.618L598.327 297.457L621.418 299.152L607.93 289.244L605.182 277.908L593.434 277.618Z" fill="#FF937E"/>
<path d="M598.8 277.765L598.67 294.97L596.793 292.802L592.701 277.009L598.8 277.765Z" fill="#E0603D"/>
<path d="M617.868 294.436L622.586 298.703C623.097 299.1 622.731 299.764 621.998 299.771C621.998 299.771 596.808 299.642 596.754 299.313C596.556 297.275 596.151 293.207 596.503 291.359C596.556 291.092 612.395 298.825 614.059 298.229C615.235 297.802 617.525 294.168 617.868 294.436Z" fill="#45A2B9"/>
<path d="M566.282 115.234C567.664 115.547 575.633 125.921 578.641 140.691C579.725 145.996 583.702 167.339 590.854 191.468C600.961 225.681 607.648 266.085 608.495 279.672C604.785 280.642 593.373 281.252 591.03 281.115C585.564 263.612 562.786 196.331 552.733 163.454C552.638 163.104 552.417 162.802 552.113 162.606C551.808 162.41 551.442 162.333 551.084 162.391C550.727 162.449 550.403 162.637 550.176 162.919C549.949 163.202 549.835 163.558 549.855 163.92C549.535 198.438 553.489 272.207 551.878 281.207C549.932 282.275 536.611 281.779 534.321 281.474C531.879 252.933 512.948 132.859 537.52 115.249C549.802 114.989 557.649 113.272 566.282 115.234Z" fill="#0096C8"/>
<path d="M539.176 115.508C539.176 115.508 535.031 116.599 529.703 138.095C523.382 163.621 536.13 281.656 536.13 281.656" stroke="white" stroke-width="0.48" stroke-miterlimit="10"/>
<path d="M564.198 115.219C564.198 115.219 568.625 126.15 585.968 190.988C592.075 213.888 598.64 241.216 607.205 280.123" stroke="white" stroke-width="0.48" stroke-miterlimit="10"/>
<g style="mix-blend-mode:multiply" opacity="0.28">
<path d="M537.519 114.929L577.556 137.333C577.556 137.333 575.969 125.615 565.587 114.929H537.519Z" fill="#8CD1B5"/>
</g>
<path d="M574.755 27.6703C575.641 28.2428 575.618 29.8611 574.702 31.2885C573.786 32.716 572.32 33.4182 571.427 32.8152C570.534 32.2122 570.572 30.6244 571.488 29.197C572.404 27.7695 573.87 27.1436 574.755 27.6703Z" fill="#3F468E"/>
<path d="M582.228 23.3817C583.121 23.9466 583.091 25.5648 582.175 26.9999C581.259 28.435 579.793 29.122 578.908 28.5266C578.022 27.9312 578.045 26.3358 578.961 24.9084C579.877 23.4809 581.312 22.8092 582.228 23.3817Z" fill="#3F468E"/>
<path d="M575.022 28.411C574.839 28.1362 574.526 18.167 574.526 18.167L582.48 11.1748V24.4264" stroke="#3F468E" stroke-width="0.84" stroke-linecap="round" stroke-linejoin="round"/>
<path d="M492.849 110.447C493.734 111.012 493.711 112.63 492.795 114.065C491.879 115.5 490.414 116.187 489.528 115.592C488.643 114.997 488.666 113.401 489.582 111.974C490.498 110.546 492.001 109.875 492.849 110.447Z" fill="#3F468E"/>
<path d="M500.33 106.15C501.215 106.723 501.185 108.341 500.269 109.768C499.353 111.196 497.887 111.891 497.001 111.295C496.116 110.7 496.139 109.104 497.055 107.677C497.971 106.249 499.436 105.578 500.33 106.15Z" fill="#3F468E"/>
<path d="M493.116 111.188C492.94 110.913 492.62 100.944 492.62 100.944L500.573 93.9443V107.196" stroke="#3F468E" stroke-width="0.84" stroke-linecap="round" stroke-linejoin="round"/>
<path d="M589.419 95.5708C589.42 94.7111 589.167 93.8703 588.69 93.1548C588.213 92.4394 587.535 91.8815 586.741 91.5518C585.947 91.2221 585.073 91.1355 584.23 91.3028C583.387 91.4702 582.612 91.884 582.004 92.4919C581.396 93.0998 580.983 93.8744 580.815 94.7176C580.648 95.5609 580.735 96.4348 581.064 97.2288C581.394 98.0228 581.952 98.701 582.667 99.1777C583.383 99.6544 584.223 99.908 585.083 99.9065C585.653 99.9065 586.216 99.7944 586.742 99.5765C587.268 99.3586 587.746 99.0392 588.149 98.6366C588.552 98.234 588.871 97.756 589.089 97.23C589.307 96.7039 589.419 96.1401 589.419 95.5708Z" fill="#3F468E"/>
<path d="M507.864 27.8932C510.258 27.8932 512.2 25.952 512.2 23.5574C512.2 21.1629 510.258 19.2217 507.864 19.2217C505.469 19.2217 503.528 21.1629 503.528 23.5574C503.528 25.952 505.469 27.8932 507.864 27.8932Z" fill="#3F468E"/>
<path d="M489.643 169.316C492.037 169.316 493.979 167.375 493.979 164.98C493.979 162.586 492.037 160.645 489.643 160.645C487.248 160.645 485.307 162.586 485.307 164.98C485.307 167.375 487.248 169.316 489.643 169.316Z" fill="#3F468E"/>
<path d="M613.709 206.621C613.709 205.763 613.454 204.925 612.978 204.212C612.501 203.499 611.824 202.943 611.032 202.615C610.24 202.287 609.368 202.201 608.527 202.368C607.686 202.536 606.913 202.949 606.307 203.555C605.701 204.161 605.288 204.934 605.12 205.775C604.953 206.616 605.039 207.488 605.367 208.28C605.695 209.072 606.251 209.75 606.964 210.226C607.677 210.702 608.515 210.957 609.373 210.957C610.523 210.957 611.625 210.5 612.439 209.687C613.252 208.874 613.709 207.771 613.709 206.621Z" fill="#3F468E"/>
<path d="M633.662 30.4958C636.056 30.4958 637.998 28.5546 637.998 26.16C637.998 23.7654 636.056 21.8242 633.662 21.8242C631.267 21.8242 629.326 23.7654 629.326 26.16C629.326 28.5546 631.267 30.4958 633.662 30.4958Z" fill="#3F468E"/>
<path d="M534.703 56.7847C534.185 55.8952 533.415 55.1791 532.49 54.7271C531.565 54.2751 530.527 54.1073 529.507 54.2451C528.487 54.3828 527.531 54.8199 526.759 55.501C525.987 56.1822 525.435 57.0768 525.171 58.0719C524.908 59.067 524.945 60.1178 525.279 61.0916C525.613 62.0654 526.227 62.9184 527.046 63.5428C527.864 64.1673 528.849 64.5351 529.876 64.5999C530.904 64.6646 531.927 64.4234 532.817 63.9067C534.011 63.2115 534.88 62.071 535.233 60.7357C535.587 59.4004 535.396 57.9794 534.703 56.7847Z" fill="#1E2046"/>
<path d="M527.205 54.0157L527.007 54.1307C526.613 54.3595 526.48 54.8641 526.709 55.2577L531.982 64.3328C532.211 64.7264 532.715 64.8601 533.109 64.6314L533.307 64.5163C533.701 64.2876 533.834 63.783 533.605 63.3893L528.332 54.3143C528.103 53.9206 527.599 53.7869 527.205 54.0157Z" fill="#272B4F"/>
<path d="M523.269 60.6045L521.405 61.6885L523.767 65.752L525.631 64.6681L523.269 60.6045Z" fill="#1E2046"/>
<path d="M526.154 64.5485L514.368 71.0369C514.04 71.2181 513.655 71.2676 513.292 71.1754C512.929 71.0833 512.615 70.8563 512.413 70.5407C512.201 70.2107 512.128 69.8098 512.211 69.4262C512.295 69.0426 512.526 68.7077 512.856 68.495L524.207 61.2051L526.154 64.5485Z" fill="#1E2046"/>
<path d="M521.65 289.046V65.0137" stroke="#1E2046" stroke-width="2.28" stroke-miterlimit="10"/>
<path d="M495.818 301L521.65 274.779" stroke="#1E2046" stroke-width="2.28" stroke-miterlimit="10"/>
<path d="M547.87 301L522.039 274.779" stroke="#1E2046" stroke-width="2.28" stroke-miterlimit="10"/>
<path d="M524.321 54.9917L516.566 47.9385" stroke="#45A2B9" stroke-width="0.57" stroke-miterlimit="10" stroke-linecap="round"/>
<path d="M523.932 56.8167L513.482 55.9541" stroke="#45A2B9" stroke-width="0.57" stroke-miterlimit="10" stroke-linecap="round"/>
</g>
<defs>
<clipPath id="clip0_266_4125">
<rect width="638" height="302" fill="white"/>
</clipPath>
</defs>
</svg>
