<svg xmlns="http://www.w3.org/2000/svg" width="40" height="40" viewBox="0 0 40 40" fill="none">
  <g clip-path="url(#clip0_276_515)">
    <path d="M19.9999 3.33333C10.7999 3.33333 3.33325 10.8 3.33325 20C3.33325 29.2 10.7999 36.6667 19.9999 36.6667C29.1999 36.6667 36.6666 29.2 36.6666 20C36.6666 10.8 29.1999 3.33333 19.9999 3.33333ZM26.6666 21.6667H21.6666V26.6667C21.6666 27.5833 20.9166 28.3333 19.9999 28.3333C19.0833 28.3333 18.3333 27.5833 18.3333 26.6667V21.6667H13.3333C12.4166 21.6667 11.6666 20.9167 11.6666 20C11.6666 19.0833 12.4166 18.3333 13.3333 18.3333H18.3333V13.3333C18.3333 12.4167 19.0833 11.6667 19.9999 11.6667C20.9166 11.6667 21.6666 12.4167 21.6666 13.3333V18.3333H26.6666C27.5833 18.3333 28.3333 19.0833 28.3333 20C28.3333 20.9167 27.5833 21.6667 26.6666 21.6667Z" fill="#0096C8"/>
  </g>
  <defs>
    <clipPath id="clip0_276_515">
      <rect width="40" height="40" fill="white"/>
    </clipPath>
  </defs>
</svg>