<svg xmlns="http://www.w3.org/2000/svg" width="24" height="24" viewBox="0 0 24 24" fill="none">
  <path d="M21.9201 7.2499V7.3799L20.4601 12.7799C20.2875 13.4208 19.9073 13.9864 19.3789 14.3882C18.8505 14.7899 18.2038 15.005 17.5401 14.9999H9.89007C9.13906 15.0029 8.41423 14.7242 7.85877 14.2187C7.30332 13.7133 6.95765 13.0179 6.89007 12.2699L6.24007 4.9099C6.21754 4.66058 6.10232 4.42878 5.91717 4.26029C5.73202 4.0918 5.4904 3.99889 5.24007 3.9999H3.07007C2.80485 3.9999 2.5505 3.89455 2.36296 3.70701C2.17543 3.51947 2.07007 3.26512 2.07007 2.9999C2.07007 2.73469 2.17543 2.48033 2.36296 2.2928C2.5505 2.10526 2.80485 1.9999 3.07007 1.9999H5.24007C5.99107 1.99686 6.71591 2.2756 7.27136 2.78106C7.82682 3.28652 8.17248 3.98194 8.24007 4.7299V4.9999H19.9301C20.2151 4.99767 20.4974 5.0564 20.7579 5.17216C21.0184 5.28792 21.2512 5.45804 21.4406 5.67111C21.63 5.88418 21.7716 6.13528 21.8561 6.40757C21.9405 6.67987 21.9657 6.96706 21.9301 7.2499H21.9201Z" fill="#8064A2"/>
  <path d="M9.07007 22C10.4508 22 11.5701 20.8807 11.5701 19.5C11.5701 18.1193 10.4508 17 9.07007 17C7.68936 17 6.57007 18.1193 6.57007 19.5C6.57007 20.8807 7.68936 22 9.07007 22Z" fill="#8064A2"/>
  <path d="M17.0701 22C18.4508 22 19.5701 20.8807 19.5701 19.5C19.5701 18.1193 18.4508 17 17.0701 17C15.6894 17 14.5701 18.1193 14.5701 19.5C14.5701 20.8807 15.6894 22 17.0701 22Z" fill="#8064A2"/>
</svg>