<svg width="347" height="216" viewBox="0 0 347 216" fill="none" xmlns="http://www.w3.org/2000/svg">
<g clip-path="url(#clip0_266_4527)">
<path d="M267.264 59.5109C267.264 59.5109 268.594 70.0274 263.517 74.379C257.932 79.1609 253.204 97.9261 273.555 103.09C293.906 108.254 317.332 110.27 318.637 82.3569C319.846 56.489 314.407 48.7528 308.179 42.646C302.324 36.9018 267.264 59.5109 267.264 59.5109Z" fill="#352C38"/>
<path d="M270.214 69.6792C270.214 69.6792 270.823 78.1842 278.109 76.9705C285.396 75.7569 275.987 66.3381 270.214 69.6792Z" fill="#F29083"/>
<path d="M312.589 62.1169C312.589 62.1169 317.961 68.7411 311.81 72.8364C305.66 76.9318 306.095 63.6255 312.589 62.1169Z" fill="#F29083"/>
<path d="M287.833 42.0366C287.833 42.0366 270.214 45.9869 271.732 61.4786C273.632 80.8192 287.204 91.2437 297.247 90.3347C307.29 89.4257 312.294 72.1885 310.002 58.4228C308.484 49.3279 302.715 40.2185 287.833 42.0366Z" fill="#FFAC9D"/>
<path d="M271.732 61.4786C271.732 61.4786 271.775 61.7881 271.853 62.3683C271.891 62.6584 271.93 63.0162 272.003 63.432L272.249 64.8826C272.356 65.4193 272.491 66.0043 272.631 66.6474C272.772 67.2905 272.96 67.977 273.182 68.6975C273.664 70.326 274.25 71.9218 274.938 73.4746C275.749 75.3065 276.72 77.0636 277.839 78.7255C279.083 80.5802 280.528 82.2924 282.147 83.8315C282.997 84.6451 283.903 85.3981 284.859 86.0846C285.829 86.7967 286.854 87.4305 287.925 87.98C290.09 89.1313 292.464 89.8351 294.907 90.0494C296.12 90.1672 297.344 90.0921 298.533 89.827C299.697 89.5326 300.794 89.0207 301.768 88.3185C303.66 86.8861 305.207 85.047 306.293 82.9369C307.352 80.9721 308.195 78.8987 308.808 76.7528C309.355 74.8229 309.764 72.8565 310.031 70.8685C310.441 67.886 310.554 64.8702 310.37 61.8654C310.336 61.3191 310.297 60.8355 310.249 60.4149C310.2 59.9942 310.171 59.6316 310.128 59.3463C310.05 58.7661 310.007 58.4567 310.007 58.4567C310.007 58.4567 310.06 58.7613 310.152 59.3415C310.205 59.6268 310.253 59.9846 310.307 60.4052C310.36 60.8259 310.423 61.3142 310.466 61.8558C310.573 62.9437 310.655 64.2733 310.655 65.7964C310.667 67.506 310.57 69.2147 310.365 70.912C310.132 72.9227 309.752 74.9136 309.228 76.8689C308.649 79.0636 307.818 81.1842 306.753 83.1884C305.636 85.3746 304.043 87.2828 302.092 88.773C301.061 89.5266 299.896 90.0764 298.659 90.3927C297.413 90.6785 296.131 90.765 294.858 90.649C292.34 90.4133 289.895 89.6733 287.669 88.4732C286.575 87.915 285.528 87.2681 284.54 86.5391C283.57 85.8342 282.651 85.0619 281.789 84.2279C280.149 82.6401 278.7 80.8665 277.471 78.9431C275.44 75.7995 273.922 72.3524 272.975 68.7313C272.771 68.0012 272.636 67.2808 272.491 66.6571C272.346 66.0333 272.254 65.4144 272.162 64.8777C272.07 64.341 272.012 63.8527 271.954 63.4272C271.896 63.0017 271.867 62.6487 271.833 62.3538L271.732 61.4786Z" fill="#D15A5A"/>
<path d="M286.242 44.9764C286.242 44.9764 291.16 66.6088 315.417 64.3169C315.417 64.3169 317.385 37.4384 294.438 38.096C271.49 38.7536 263.3 47.2827 268.87 71.2021C268.87 71.207 287.881 68.9055 286.242 44.9764Z" fill="#352C38"/>
<path d="M286.315 42.9504C286.315 42.9504 287.224 62.9969 306.661 66.338L286.315 42.9504Z" fill="#352C38"/>
<path d="M279.449 70.2063C279.449 70.2063 279.521 70.4045 279.662 70.7381C279.85 71.1957 280.063 71.6428 280.3 72.0775C280.609 72.6824 281.01 73.2355 281.489 73.7166C281.741 73.9627 282.045 74.148 282.379 74.2581C282.716 74.3531 283.074 74.3413 283.404 74.2243H283.433H283.409L283.481 74.1904L283.651 74.1082C283.742 74.0647 283.844 74.026 283.931 73.9777C284.07 73.8817 284.202 73.7767 284.327 73.6634C284.459 73.5393 284.578 73.4015 284.68 73.2524C284.734 73.175 284.787 73.1074 284.835 73.03L284.956 72.7882C285.239 72.177 285.42 71.5237 285.493 70.8542C285.556 70.3635 285.589 69.8694 285.589 69.3746C285.589 69.012 285.589 68.8041 285.589 68.8041C285.643 68.9885 285.687 69.1757 285.72 69.365C285.817 69.8637 285.869 70.3702 285.875 70.8784C285.876 71.2232 285.85 71.5675 285.797 71.9082C285.744 72.2988 285.64 72.6808 285.488 73.0445L285.357 73.3298C285.309 73.4265 285.246 73.5135 285.188 73.6102C285.073 73.8005 284.934 73.9746 284.772 74.1276C284.6 74.2935 284.412 74.4425 284.211 74.5724C284.115 74.6256 284.023 74.6643 283.931 74.7078L283.791 74.7755L283.723 74.8093H283.684H283.641C283.183 74.9543 282.692 74.9543 282.234 74.8093C281.8 74.6737 281.406 74.4329 281.088 74.1082C280.596 73.5553 280.213 72.9137 279.961 72.2177C279.785 71.7454 279.644 71.2605 279.541 70.7671C279.468 70.4142 279.449 70.2063 279.449 70.2063Z" fill="#1C171E"/>
<path d="M295.584 67.0247L295.796 67.5566C295.932 67.8902 296.149 68.3592 296.435 68.8959C296.745 69.4998 297.146 70.0526 297.624 70.535C297.878 70.7803 298.184 70.9653 298.519 71.0765C298.854 71.1715 299.21 71.1597 299.539 71.0427H299.573H299.548L299.621 71.0088L299.761 70.946C299.853 70.9025 299.955 70.8638 300.037 70.8154C300.178 70.7207 300.312 70.6156 300.438 70.5012C300.569 70.3757 300.687 70.2381 300.791 70.0902C300.839 70.0128 300.897 69.9451 300.946 69.8678L301.067 69.626C301.349 69.0147 301.531 68.3615 301.603 67.6919C301.666 67.2012 301.696 66.707 301.695 66.2124C301.695 65.8498 301.695 65.6418 301.695 65.6418C301.749 65.8263 301.793 66.0135 301.826 66.2027C301.924 66.7013 301.974 67.208 301.976 67.7161C301.979 68.0608 301.955 68.4052 301.903 68.746C301.846 69.1349 301.741 69.515 301.589 69.8774L301.463 70.1675C301.41 70.2594 301.352 70.3513 301.294 70.4431C301.179 70.635 301.039 70.8106 300.878 70.9653C300.706 71.1313 300.518 71.2802 300.317 71.4102C300.221 71.4633 300.129 71.502 300.037 71.5455L299.897 71.6132L299.824 71.6471H299.781H299.742C299.284 71.792 298.793 71.792 298.335 71.6471C297.911 71.4987 297.531 71.2479 297.228 70.917C296.734 70.3653 296.351 69.7233 296.101 69.0264C295.92 68.5556 295.78 68.0704 295.68 67.5759C295.638 67.394 295.606 67.21 295.584 67.0247Z" fill="#1C171E"/>
<path d="M289.119 69.9307C289.071 70.9563 288.951 71.9773 288.761 72.9865C288.669 73.47 288.573 73.9873 288.462 74.4854C288.35 74.9834 288.225 75.4814 288.094 75.9746L287.968 75.6941C289.095 76.3759 290.207 77.0722 291.285 77.8313C290.072 77.3187 288.892 76.7385 287.722 76.1438L287.562 76.0664L287.591 75.8682C287.673 75.3847 287.76 74.8577 287.867 74.3596C287.973 73.8616 288.08 73.3636 288.2 72.8656C288.441 71.8678 288.747 70.8873 289.119 69.9307Z" fill="#D15A5A"/>
<path d="M288.863 80.8289C288.863 80.8289 289.037 80.8869 289.346 80.9643C289.496 81.0078 289.68 81.0513 289.893 81.1045C290.105 81.1577 290.342 81.1964 290.599 81.2544C290.855 81.3124 291.14 81.3559 291.44 81.3849C291.74 81.414 292.054 81.4478 292.383 81.4575C292.715 81.4743 293.047 81.4743 293.379 81.4575C293.548 81.4575 293.717 81.414 293.862 81.3946C294.026 81.3787 294.187 81.3496 294.346 81.3076C294.678 81.2433 295.002 81.1427 295.313 81.0078C295.468 80.9401 295.627 80.8869 295.772 80.8192L296.188 80.5726C296.456 80.4193 296.708 80.2377 296.937 80.0311C297.049 79.9344 297.17 79.8522 297.266 79.7507L297.537 79.4461C297.711 79.2774 297.873 79.0964 298.021 78.9045L298.345 78.421L298.635 78.0245L298.451 78.508C298.388 78.6531 298.311 78.832 298.219 79.0351C298.106 79.2576 297.973 79.4696 297.822 79.6685L297.581 80.0263C297.483 80.1472 297.376 80.2604 297.261 80.3647C297.037 80.6172 296.78 80.8383 296.497 81.0223L296.053 81.3269C295.893 81.414 295.724 81.4816 295.569 81.559C295.228 81.7118 294.871 81.8285 294.505 81.9071C294.323 81.9526 294.137 81.9817 293.949 81.9942C293.766 81.9942 293.582 82.0474 293.398 82.0522C293.041 82.0599 292.685 82.0454 292.33 82.0087C292.003 81.9803 291.68 81.9253 291.363 81.8443C291.053 81.7863 290.773 81.6799 290.512 81.6074C289.933 81.4155 289.379 81.1541 288.863 80.8289Z" fill="#D15A5A"/>
<path d="M292.102 65.5839C292.083 65.3652 292.083 65.1451 292.102 64.9263C292.151 64.343 292.278 63.769 292.48 63.2195C292.776 62.4063 293.24 61.6648 293.843 61.0437C294.207 60.6777 294.622 60.3666 295.076 60.1202C295.56 59.8675 296.08 59.6913 296.618 59.598C297.146 59.5232 297.682 59.5232 298.209 59.598C298.461 59.627 298.71 59.6771 298.954 59.7479C299.19 59.8062 299.421 59.8821 299.645 59.9752C299.861 60.0523 300.071 60.1444 300.274 60.2508C300.472 60.3571 300.67 60.449 300.844 60.565L301.328 60.8987L301.768 61.242C302.022 61.4459 302.261 61.6672 302.483 61.9044C302.658 62.0781 302.819 62.2639 302.967 62.4604C303.233 62.7844 303.363 62.9826 303.363 62.9826C303.363 62.9826 303.127 62.9197 302.745 62.7747L302.063 62.5281C301.802 62.4362 301.516 62.3202 301.202 62.2187L300.719 62.0494L300.201 61.8947C300.027 61.8367 299.848 61.7932 299.665 61.7496C299.483 61.6965 299.299 61.6529 299.113 61.6191C298.742 61.5407 298.366 61.4906 297.987 61.4692C297.62 61.4462 297.252 61.4625 296.889 61.5176C296.538 61.5805 296.194 61.681 295.864 61.8173C295.537 61.9626 295.224 62.1391 294.931 62.3444C294.368 62.7646 293.858 63.2517 293.413 63.7949C292.987 64.2784 292.663 64.7619 292.446 65.0714L292.102 65.5839Z" fill="#1C171E"/>
<path d="M286.885 66.454L286.402 66.1639C286.102 65.985 285.681 65.7384 285.183 65.4724C284.653 65.1765 284.1 64.9227 283.53 64.7133C283.239 64.609 282.939 64.5298 282.635 64.4764C282.347 64.423 282.053 64.4052 281.76 64.4232C281.471 64.4386 281.185 64.4906 280.909 64.5779C280.769 64.6214 280.633 64.6795 280.493 64.7278C280.353 64.7762 280.218 64.8584 280.087 64.9309C279.82 65.079 279.56 65.2403 279.309 65.4144C279.072 65.603 278.825 65.7722 278.617 65.9559C278.409 66.1397 278.196 66.2992 278.018 66.4394L277.534 66.8456C277.395 66.9737 277.25 67.0947 277.099 67.2082C277.125 67.0196 277.16 66.8324 277.205 66.6474C277.249 66.4342 277.312 66.2255 277.394 66.0236C277.481 65.7538 277.591 65.4918 277.723 65.2403C277.879 64.9344 278.06 64.6418 278.264 64.3652C278.51 64.051 278.785 63.7611 279.086 63.4997C279.432 63.2103 279.818 62.9725 280.232 62.7938C281.126 62.4143 282.123 62.3545 283.056 62.6245C283.482 62.7432 283.89 62.9189 284.269 63.1467C284.9 63.524 285.454 64.016 285.904 64.5973C286.215 64.9923 286.477 65.4243 286.682 65.8834C286.766 66.0674 286.834 66.2583 286.885 66.454Z" fill="#1C171E"/>
<path d="M256.042 111.696C256.042 111.696 264.542 155.029 273.047 154.623C281.552 154.217 275.465 114.129 275.465 114.129L256.042 111.696Z" fill="#F29083"/>
<path d="M256.042 111.696C256.042 111.696 264.542 155.029 273.047 154.623C281.552 154.217 275.465 114.129 275.465 114.129L256.042 111.696Z" stroke="#D15A5A" stroke-width="1.24" stroke-miterlimit="10"/>
<path d="M338.051 100.406C338.051 100.406 340.338 144.508 331.987 146.181C323.637 147.854 319.788 107.5 319.788 107.5L338.051 100.406Z" fill="#F29083"/>
<path d="M338.051 100.406C338.051 100.406 340.338 144.508 331.987 146.181C323.637 147.854 319.788 107.5 319.788 107.5L338.051 100.406Z" stroke="#D15A5A" stroke-width="1.24" stroke-miterlimit="10"/>
<path d="M279.531 137.618C279.531 137.618 250.37 165.56 252.396 215.778H336.634C336.634 215.778 349.205 159.888 325.697 129.514C302.189 99.1397 279.531 137.618 279.531 137.618Z" fill="#FC6A5A"/>
<path d="M296.778 152.766C306.327 155.493 316.177 157.055 326.011 158.365C329.952 158.892 334.004 159.376 338.099 159.729C336.131 148.84 332.369 138.15 325.692 129.514C302.203 99.1398 279.526 137.618 279.526 137.618C277.318 139.86 275.28 142.263 273.429 144.808C281.17 147.602 288.868 150.503 296.778 152.766Z" fill="#EA4134"/>
<path d="M279.531 137.618C279.531 137.618 250.37 165.56 252.396 215.778H336.634C336.634 215.778 349.205 159.888 325.697 129.514C302.189 99.1397 279.531 137.618 279.531 137.618Z" stroke="#A50000" stroke-width="0.92" stroke-miterlimit="10"/>
<path d="M254.823 90.6394L254.422 77.2751C254.422 77.2751 289.235 78.8949 294.109 93.0667C294.109 93.0667 310.307 74.8431 328.922 71.6035L335.807 106.837L254.823 90.6394Z" fill="#FDDEC0"/>
<path d="M249.964 79.7023L288.437 87.8011L292.083 142.472L251.584 132.347L249.964 79.7023Z" fill="#0096C8"/>
<path d="M249.964 79.7023L288.437 87.8011L292.083 142.472L251.584 132.347L249.964 79.7023Z" stroke="#1B4268" stroke-width="0.5" stroke-miterlimit="10"/>
<path d="M337.088 74.7318L300.051 87.9172L303.774 142.583L342.547 127.121L337.088 74.7318Z" fill="#0096C8"/>
<path d="M337.088 74.7318L300.051 87.9172L303.774 142.583L342.547 127.121L337.088 74.7318Z" stroke="#1B4268" stroke-width="0.5" stroke-miterlimit="10"/>
<path d="M288.437 87.8012L301.4 87.395L304.64 145.31C304.64 145.31 296.942 148.144 290.057 144.904L288.437 87.8012Z" fill="#0096C8"/>
<path d="M288.437 87.8012L301.396 87.2791H301.507V87.3903L302.406 101.862L303.286 116.338L304.954 145.291V145.538L304.727 145.62C304.126 145.826 303.514 145.999 302.894 146.137C302.28 146.282 301.661 146.398 301.043 146.5L300.105 146.621C299.79 146.664 299.476 146.679 299.138 146.708C298.799 146.737 298.509 146.746 298.171 146.756C297.832 146.766 297.537 146.78 297.203 146.756C296.87 146.732 296.575 146.756 296.236 146.756L295.269 146.679C294.955 146.679 294.646 146.592 294.331 146.553C294.017 146.514 293.703 146.461 293.398 146.384L292.47 146.171L291.566 145.891L291.111 145.746L290.671 145.562L289.936 145.185L289.767 145.117V144.919L289.385 130.641L289.047 116.362L288.727 102.084L288.437 87.8012ZM288.437 87.8012L288.969 102.075L289.453 116.348L289.936 130.621L290.362 144.895L290.188 144.629L291.034 144.977L291.454 145.151L291.894 145.286L292.765 145.557L293.659 145.76C293.954 145.833 294.259 145.876 294.559 145.92C294.858 145.963 295.163 146.021 295.468 146.036L296.382 146.108C296.691 146.108 296.996 146.108 297.3 146.108C297.605 146.108 297.914 146.108 298.219 146.108C298.523 146.108 298.833 146.108 299.138 146.06C299.442 146.011 299.752 146.011 300.051 145.973L300.965 145.847C301.57 145.75 302.174 145.634 302.769 145.489C303.362 145.359 303.948 145.198 304.524 145.006L304.311 145.335L302.74 116.372L302.024 101.886L301.309 87.4048L301.425 87.5111L288.437 87.8012Z" fill="#1B4268"/>
<path d="M245.874 104.598C245.874 104.598 244.713 96.8622 247.131 95.7888C249.548 94.7154 266.805 101.286 250.97 99.4586C250.97 99.4586 277.868 105.425 251.777 103.032C251.777 103.032 273.328 106.948 252.396 105.623C252.396 105.623 269.319 109.685 251.405 107.79L250.709 113.302C250.709 113.302 248.586 114.684 245.874 104.598Z" fill="#FFAC9D"/>
<path d="M245.874 104.599C245.691 103.467 245.576 102.325 245.53 101.18C245.465 100.029 245.543 98.8742 245.762 97.7423C245.867 97.1553 246.107 96.6007 246.464 96.1226C246.658 95.8745 246.92 95.6881 247.218 95.5859C247.515 95.5128 247.821 95.4835 248.127 95.4988C249.284 95.5743 250.43 95.7737 251.545 96.0935C252.658 96.3908 253.754 96.7491 254.828 97.1669C255.371 97.375 255.902 97.6123 256.419 97.8777C256.684 98.0161 256.94 98.1695 257.188 98.337C257.319 98.4254 257.442 98.5258 257.555 98.6368C257.707 98.7733 257.812 98.9544 257.855 99.1542C257.864 99.2251 257.859 99.2972 257.84 99.3661C257.821 99.435 257.788 99.4994 257.744 99.5555C257.676 99.6438 257.591 99.7163 257.492 99.7683C257.34 99.8462 257.177 99.9032 257.009 99.9375C256.714 99.9985 256.415 100.039 256.114 100.058C255.525 100.092 254.944 100.087 254.369 100.058C253.213 100.02 252.067 99.9036 250.926 99.7779L251.038 99.1349C253.025 99.5797 255.002 100.049 256.975 100.556C257.942 100.813 258.948 101.079 259.929 101.374C260.413 101.519 260.896 101.673 261.38 101.857C261.876 102.024 262.361 102.224 262.83 102.457C262.965 102.525 263.093 102.606 263.212 102.698L263.314 102.79C263.355 102.836 263.392 102.884 263.425 102.935C263.469 103.017 263.496 103.108 263.503 103.201C263.503 103.313 263.468 103.421 263.401 103.511C263.262 103.67 263.073 103.778 262.864 103.815C262.714 103.854 262.579 103.873 262.444 103.897C261.923 103.956 261.4 103.983 260.877 103.98C259.847 103.98 258.827 103.941 257.807 103.883C255.771 103.757 253.745 103.583 251.719 103.399L251.811 102.703C253.407 103.003 254.993 103.322 256.574 103.67C257.367 103.844 258.16 104.028 258.948 104.231C259.339 104.333 259.731 104.444 260.128 104.56C260.532 104.676 260.928 104.822 261.312 104.995C261.431 105.049 261.541 105.119 261.641 105.203C261.745 105.287 261.813 105.408 261.83 105.541C261.829 105.624 261.808 105.705 261.767 105.777C261.726 105.849 261.668 105.909 261.597 105.952C261.373 106.059 261.13 106.123 260.882 106.141C260.456 106.184 260.05 106.194 259.639 106.204C258.822 106.204 258.01 106.204 257.222 106.155C255.597 106.088 253.982 105.981 252.387 105.865L252.454 105.382C253.755 105.715 255.041 106.064 256.322 106.45C256.961 106.644 257.599 106.847 258.232 107.084C258.546 107.2 258.861 107.326 259.17 107.475C259.344 107.548 259.506 107.644 259.654 107.761C259.699 107.8 259.737 107.848 259.765 107.901C259.791 107.94 259.805 107.987 259.805 108.034C259.805 108.081 259.791 108.127 259.765 108.167C259.686 108.252 259.58 108.308 259.465 108.326C259.126 108.389 258.78 108.417 258.435 108.409C258.097 108.409 257.763 108.409 257.43 108.38C256.762 108.341 256.095 108.288 255.428 108.23C254.098 108.109 252.773 107.944 251.449 107.78C252.78 107.896 254.111 107.994 255.442 108.075C256.105 108.114 256.772 108.148 257.439 108.162C257.768 108.162 258.102 108.162 258.406 108.162C258.731 108.164 259.056 108.13 259.373 108.061C259.424 108.053 259.472 108.033 259.514 108.002C259.514 108.002 259.514 108.046 259.514 108.036C259.514 108.027 259.514 108.007 259.47 107.988C259.346 107.897 259.211 107.821 259.069 107.761C258.769 107.627 258.462 107.509 258.15 107.408C257.521 107.2 256.883 107.016 256.245 106.832C254.964 106.475 253.668 106.151 252.377 105.865L252.449 105.382C254.059 105.469 255.674 105.541 257.285 105.58C258.092 105.58 258.895 105.58 259.702 105.58C260.103 105.58 260.5 105.546 260.882 105.498C261.037 105.485 261.19 105.451 261.336 105.396C261.313 105.418 261.294 105.445 261.282 105.476C261.271 105.506 261.266 105.538 261.269 105.57C261.269 105.686 261.317 105.677 261.298 105.667C261.237 105.626 261.174 105.589 261.109 105.556C260.754 105.402 260.389 105.273 260.016 105.169C259.634 105.058 259.248 104.952 258.861 104.855C258.082 104.657 257.299 104.483 256.511 104.308C254.935 103.97 253.349 103.661 251.763 103.375L251.859 102.679C253.881 102.853 255.902 103.017 257.928 103.129C258.938 103.177 259.949 103.216 260.95 103.221C261.434 103.222 261.918 103.199 262.4 103.153C262.511 103.138 262.621 103.117 262.729 103.09C262.821 103.09 262.932 102.998 262.859 103.066C262.859 103.066 262.806 103.148 262.826 103.201C262.815 103.229 262.815 103.26 262.826 103.288L262.787 103.254C262.703 103.193 262.616 103.137 262.526 103.085C262.087 102.87 261.635 102.682 261.172 102.524C260.688 102.36 260.205 102.205 259.721 102.041C258.754 101.746 257.787 101.475 256.82 101.214C254.861 100.698 252.891 100.215 250.912 99.7634L251.023 99.1203C252.154 99.2557 253.286 99.3669 254.408 99.4298C254.968 99.4668 255.529 99.4749 256.09 99.454C256.361 99.4452 256.631 99.4161 256.898 99.3669C257.011 99.3439 257.121 99.3082 257.226 99.2606C257.255 99.2476 257.281 99.2296 257.304 99.2074C257.275 99.1303 257.228 99.0609 257.168 99.0043C257.076 98.9148 256.978 98.8324 256.874 98.7577C256.649 98.5992 256.415 98.4554 256.172 98.3274C255.677 98.0591 255.167 97.8186 254.645 97.6069C253.596 97.1743 252.524 96.8014 251.434 96.49C250.888 96.3353 250.336 96.1951 249.78 96.079C249.233 95.9567 248.677 95.8743 248.117 95.8324C247.852 95.8118 247.585 95.8264 247.324 95.876C247.074 95.9518 246.852 96.0998 246.686 96.3015C246.346 96.7376 246.11 97.2451 245.994 97.7858C245.749 98.8966 245.638 100.033 245.666 101.17C245.672 102.316 245.741 103.461 245.874 104.599Z" fill="#D15A5A"/>
<path d="M345.54 95.5472C345.54 95.5472 346.991 87.869 344.626 86.6941C342.262 85.5191 324.749 91.4228 340.647 90.214C340.647 90.214 313.537 95.1314 339.68 93.7533C339.68 93.7533 317.99 96.8285 338.965 96.316C338.965 96.316 321.897 99.7006 339.869 98.5208L340.352 104.057C340.352 104.057 342.426 105.537 345.54 95.5472Z" fill="#FFAC9D"/>
<path d="M345.54 95.547C345.716 94.4179 345.829 93.2799 345.879 92.1382C345.951 91.0062 345.884 89.8696 345.68 88.7537C345.588 88.2088 345.371 87.6926 345.047 87.2451C344.888 87.0388 344.673 86.8827 344.428 86.7954C344.17 86.7341 343.905 86.7081 343.64 86.7181C343.077 86.741 342.517 86.8024 341.962 86.9018C341.406 86.9937 340.85 87.1145 340.299 87.2499C339.195 87.5194 338.107 87.8503 337.04 88.2411C336.513 88.4394 335.986 88.6521 335.488 88.8987C335.241 89.0186 335.002 89.1542 334.772 89.3049C334.667 89.3747 334.567 89.4523 334.473 89.537C334.406 89.5888 334.355 89.6572 334.323 89.7352L334.4 89.7932C334.504 89.8472 334.614 89.8863 334.729 89.9093C334.991 89.9705 335.258 90.011 335.527 90.0301C336.086 90.0737 336.648 90.0882 337.209 90.0737C338.341 90.0737 339.482 89.9818 340.618 89.8947L340.705 90.5475C338.713 90.9198 336.721 91.326 334.743 91.7659C333.776 91.9884 332.771 92.2204 331.794 92.4815C331.31 92.6073 330.827 92.7426 330.343 92.8925C329.874 93.0238 329.414 93.1853 328.965 93.376C328.874 93.422 328.785 93.4737 328.699 93.5308L328.661 93.5646C328.67 93.5525 328.678 93.5385 328.682 93.5235C328.686 93.5086 328.687 93.493 328.685 93.4776C328.685 93.4244 328.656 93.3519 328.656 93.3422C328.656 93.3325 328.695 93.3422 328.786 93.3712C328.894 93.4043 329.004 93.4286 329.115 93.4437C329.596 93.5142 330.08 93.5578 330.566 93.5743C331.568 93.6033 332.577 93.6033 333.593 93.5743C335.614 93.5453 337.644 93.4631 339.67 93.3664L339.738 94.0626C338.142 94.2899 336.547 94.5462 334.961 94.8121C334.168 94.9523 333.375 95.1022 332.592 95.2666C332.195 95.3488 331.808 95.4358 331.422 95.5374C331.045 95.6249 330.675 95.7397 330.314 95.8806C330.247 95.9072 330.183 95.943 330.126 95.987C330.126 95.987 330.126 95.987 330.155 95.8903C330.162 95.8576 330.16 95.8235 330.149 95.7919C330.138 95.7602 330.118 95.7323 330.092 95.7114C330.238 95.7694 330.391 95.81 330.546 95.8323C330.924 95.8951 331.32 95.929 331.717 95.958C332.514 96.0112 333.322 96.0354 334.134 96.0499C335.744 96.0789 337.359 96.0499 338.969 96.0499L339.022 96.5334C337.717 96.7848 336.411 97.0604 335.116 97.3699C334.473 97.5246 333.825 97.6841 333.182 97.8534C332.865 97.9421 332.554 98.047 332.248 98.1677C332.104 98.2212 331.966 98.291 331.837 98.3756L331.789 98.4239C331.789 98.4239 331.789 98.3949 331.789 98.3901C331.829 98.4211 331.875 98.4441 331.925 98.4578C332.242 98.5339 332.566 98.5792 332.892 98.5932C333.22 98.6173 333.554 98.627 333.888 98.6367C334.555 98.6367 335.217 98.6367 335.884 98.6367C337.219 98.6077 338.553 98.5609 339.888 98.4965C338.558 98.6125 337.229 98.7237 335.889 98.7914C335.222 98.8252 334.555 98.8543 333.888 98.8639C333.554 98.8639 333.215 98.8639 332.882 98.8639C332.537 98.8627 332.193 98.8238 331.857 98.7479C331.742 98.726 331.639 98.6664 331.562 98.5786C331.536 98.5382 331.522 98.4912 331.522 98.4433C331.522 98.3953 331.536 98.3483 331.562 98.3079C331.593 98.2569 331.632 98.2111 331.678 98.1725C331.829 98.0659 331.991 97.9767 332.161 97.9066C332.481 97.7663 332.795 97.6551 333.128 97.5488C333.767 97.3409 334.41 97.1571 335.062 96.9927C336.363 96.6543 337.664 96.3545 338.974 96.0789L339.027 96.5624C337.408 96.6156 335.793 96.6591 334.168 96.6639C333.356 96.6639 332.548 96.6639 331.75 96.6156C331.339 96.5914 330.933 96.5672 330.508 96.5044C330.261 96.4767 330.021 96.4029 329.802 96.2868C329.733 96.2417 329.677 96.1798 329.639 96.1071C329.601 96.0343 329.582 95.9531 329.584 95.871C329.593 95.8043 329.616 95.7402 329.651 95.6828C329.686 95.6253 329.732 95.5758 329.787 95.5374C329.889 95.4583 330.002 95.3933 330.121 95.3439C330.512 95.1851 330.915 95.0558 331.325 94.9571C331.721 94.8508 332.123 94.7589 332.519 94.6719C333.312 94.4978 334.11 94.3479 334.908 94.1883C336.503 93.8982 338.104 93.6355 339.709 93.4002L339.777 94.1013C337.741 94.2125 335.71 94.3092 333.67 94.3527C332.65 94.3527 331.63 94.3818 330.6 94.3527C330.077 94.3325 329.556 94.2841 329.038 94.2077C328.903 94.1787 328.767 94.1545 328.622 94.111C328.415 94.0623 328.23 93.9468 328.095 93.7822C328.032 93.6898 328 93.5798 328.003 93.4679C328.015 93.3754 328.047 93.2865 328.095 93.2068C328.13 93.157 328.169 93.1101 328.211 93.0666L328.317 92.9796C328.439 92.8917 328.568 92.8156 328.704 92.7523C329.185 92.5353 329.681 92.3542 330.189 92.2108C330.672 92.0609 331.156 91.9255 331.673 91.7998C332.64 91.5435 333.655 91.3163 334.651 91.0987C336.644 90.6635 338.64 90.2719 340.647 89.9093L340.729 90.5523C339.583 90.6345 338.433 90.7071 337.277 90.7022C336.702 90.7022 336.121 90.7022 335.536 90.6249C335.235 90.596 334.936 90.5443 334.642 90.4701C334.472 90.4314 334.309 90.3679 334.158 90.2816C334.06 90.2271 333.976 90.151 333.912 90.0591C333.83 89.9406 333.797 89.7951 333.82 89.653C333.874 89.463 333.986 89.2942 334.139 89.1695C334.258 89.0641 334.386 88.9687 334.521 88.8842C334.773 88.7256 335.034 88.5834 335.304 88.4587C335.83 88.2133 336.369 87.997 336.919 87.8108C338.009 87.426 339.12 87.1032 340.246 86.8438C341.371 86.5607 342.524 86.3986 343.684 86.3603C343.989 86.3588 344.294 86.4012 344.588 86.486C344.881 86.6013 345.136 86.7974 345.323 87.0517C345.659 87.5432 345.878 88.1058 345.961 88.6956C346.133 89.8366 346.166 90.9943 346.058 92.1431C345.954 93.2871 345.781 94.4238 345.54 95.547Z" fill="#D15A5A"/>
<path d="M150.67 148.646L144.331 215.777H206.704L209.871 150.247L150.67 148.646Z" fill="#FDDEC0"/>
<path d="M208.972 168.848L209.871 150.247L150.67 148.646L148.832 168.098L208.972 168.848Z" fill="#EFC8A8"/>
<path d="M176.726 196.945L175.3 215.778H206.704L207.724 194.619L176.726 196.945Z" fill="#EFC8A8"/>
<path d="M202.73 194.861L189.738 196.045L183.244 196.635C181.078 196.833 178.893 197.037 176.746 197.172L176.954 196.964L175.503 215.792L175.126 215.763L176.514 196.906V196.713H176.707C178.873 196.505 181.059 196.355 183.21 196.229L189.718 195.779L202.73 194.861Z" fill="#C98D61"/>
<path d="M209.112 163.384L206.704 215.777" stroke="#C98D61" stroke-width="0.9" stroke-miterlimit="10"/>
<path d="M149.06 161.933L144.331 215.777" stroke="#C98D61" stroke-width="0.9" stroke-miterlimit="10"/>
<path d="M153.513 68.6735L165.891 67.484C165.891 67.484 161.82 9.46241 164.871 7.64923C167.922 5.83606 189.269 7.04967 192.62 16.7006C194.07 20.9555 202.672 58.7663 184.4 62.586L184.583 68.4849C184.583 68.4849 191.517 68.2431 197.261 68.2673C203.005 68.2915 194.844 83.0387 175.551 81.4866C156.259 79.9345 153.513 68.6735 153.513 68.6735Z" fill="#FFAC9D"/>
<path d="M197.256 68.2673C191.512 68.2673 184.579 68.4849 184.579 68.4849L184.395 62.586C172.268 62.4361 166.988 52.2002 164.532 43.2455C165.04 55.6138 165.891 67.4985 165.891 67.4985L153.513 68.688C153.513 68.688 156.259 79.9442 175.547 81.5011C194.834 83.058 203.001 68.306 197.256 68.2673Z" fill="#F29083"/>
<path d="M164.929 35.3739C164.929 35.3739 161.399 30.4227 158.948 35.5383C155.8 42.1189 162.332 48.9655 166.756 43.9466C171.18 38.9277 164.929 35.3739 164.929 35.3739Z" fill="#FFAC9D"/>
<path d="M164.706 47.5874L165.006 52.5628C165.103 54.2212 165.199 55.8797 165.325 57.5333L165.673 62.5038C165.804 64.1622 165.92 65.8159 166.065 67.4695V67.6339H165.901L153.527 68.8717L153.721 68.6009C154.174 69.9733 154.862 71.2562 155.756 72.3916C156.642 73.548 157.669 74.5891 158.812 75.491C161.131 77.2768 163.751 78.6327 166.548 79.4945C167.944 79.9316 169.363 80.2899 170.799 80.5679C172.249 80.8338 173.7 81.0514 175.15 81.1674C178.064 81.4613 181.004 81.3523 183.887 80.8435C186.777 80.3419 189.558 79.344 192.107 77.894C193.373 77.1704 194.555 76.3094 195.632 75.3266C196.717 74.3614 197.628 73.2165 198.325 71.942C198.668 71.3206 198.867 70.6297 198.905 69.9209C198.922 69.5784 198.829 69.2395 198.639 68.9539C198.434 68.6973 198.141 68.5252 197.817 68.4703C197.466 68.4103 197.109 68.3876 196.754 68.4027H195.651H193.441C190.492 68.4027 187.546 68.443 184.603 68.5235H184.53V68.4655L184.197 62.5715H184.617V68.4703L184.559 68.4172C187.506 68.2979 190.452 68.2076 193.398 68.1464L195.608 68.1174H196.715C197.095 68.0916 197.476 68.1111 197.851 68.1754C198.261 68.2453 198.631 68.4639 198.891 68.7895C199.122 69.1242 199.242 69.5235 199.234 69.9306C199.207 70.6989 199.002 71.4505 198.634 72.1257C197.934 73.452 197.006 74.645 195.893 75.6505C194.802 76.6662 193.602 77.5581 192.315 78.3099C189.734 79.8064 186.911 80.839 183.974 81.3608C181.047 81.8863 178.061 82.0051 175.102 81.7138C173.622 81.5848 172.154 81.385 170.697 81.1142C169.238 80.8379 167.798 80.4714 166.384 80.0167C163.537 79.1228 160.873 77.7277 158.517 75.8971C157.348 74.9666 156.299 73.8947 155.394 72.7059C154.468 71.5153 153.758 70.1718 153.295 68.7363L153.223 68.4897H153.489L165.871 67.3389L165.722 67.5178C165.596 65.8594 165.499 64.2009 165.388 62.5425C165.277 60.884 165.204 59.2256 165.117 57.5671C165.03 55.9087 164.962 54.2454 164.895 52.5869L164.706 47.5874Z" fill="#D15A5A"/>
<path d="M158.773 10.2505C158.773 10.2505 155.771 -2.64964 148.571 0.947699C141.372 4.54504 150.684 12.9485 150.684 12.9485C150.684 12.9485 149.185 2.45143 144.984 10.2505C140.782 18.0496 156.37 20.148 158.773 10.2505Z" fill="#76413B"/>
<path d="M148.571 0.947699C145.187 2.64967 145.453 5.4202 146.695 7.87161C145.984 8.55655 145.4 9.36193 144.969 10.2505C140.772 18.0496 156.371 20.148 158.774 10.2505C158.774 10.2505 155.771 -2.64964 148.571 0.947699Z" stroke="#54201C" stroke-width="1.3" stroke-linecap="round" stroke-linejoin="round"/>
<path d="M195.869 38.4488C195.869 38.4488 196.27 47.447 193.872 48.8492C191.473 50.2514 196.869 41.0501 189.67 41.0501C182.47 41.0501 175.469 38.9469 174.473 42.7473C173.477 46.5477 174.957 51.6488 170.373 46.6492C167.714 43.7481 167.191 33.6524 167.225 25.6357C169.159 24.5043 171.524 21.8692 170.271 15.8494C170.271 15.8494 181.271 7.45079 192.619 16.7004C192.619 16.7004 191.469 2.195 171.872 2.6495C154.465 3.05082 149.669 22.8507 159.47 34.2471C159.47 34.2471 162.279 32.2115 164.261 34.4067C163.942 42.7231 164.982 61.0966 180.169 62.934C202.841 65.7093 197.672 49.2505 195.869 38.4488Z" fill="#965450"/>
<path d="M192.619 16.7007C192.619 16.7007 192.59 16.4251 192.484 15.9222C192.327 15.1949 192.115 14.4805 191.851 13.7851C191.447 12.7063 190.923 11.6763 190.289 10.7148C189.473 9.46862 188.481 8.34662 187.344 7.38337C186.695 6.83713 186.007 6.33937 185.285 5.89414C184.509 5.43176 183.701 5.02616 182.867 4.68053C181.043 3.96157 179.136 3.47425 177.191 3.22999C175.107 2.95227 173.002 2.88101 170.905 3.01724C168.747 3.13574 166.626 3.63159 164.639 4.48229C162.668 5.35019 160.891 6.60281 159.412 8.16666C157.992 9.70209 156.866 11.4852 156.09 13.4273C155.37 15.2492 154.918 17.1663 154.751 19.1182C154.601 20.8727 154.677 22.6391 154.978 24.374C155.241 25.8431 155.647 27.2829 156.192 28.6725C156.322 28.9771 156.448 29.2769 156.564 29.567C156.68 29.8571 156.835 30.1133 156.965 30.3744C157.202 30.9015 157.502 31.3415 157.734 31.7621C158.117 32.3999 158.537 33.0149 158.991 33.6043L159.475 34.228L158.967 33.6236C158.486 33.0516 158.04 32.451 157.632 31.825C157.386 31.414 157.076 30.974 156.815 30.4518L156.385 29.6492C156.259 29.3639 156.124 29.069 155.984 28.7595C154.661 25.716 154.082 22.401 154.296 19.0892C154.424 17.0813 154.859 15.1048 155.587 13.229C156.372 11.2193 157.519 9.37071 158.972 7.77501C160.497 6.13715 162.335 4.82184 164.377 3.9069C166.428 3.03064 168.616 2.52008 170.842 2.39834C172.979 2.27197 175.123 2.35618 177.244 2.64977C179.233 2.91992 181.176 3.45661 183.022 4.24536C183.875 4.61235 184.7 5.04393 185.488 5.53635C186.218 6.00476 186.913 6.52678 187.567 7.0981C188.705 8.10102 189.683 9.27169 190.468 10.5697C191.076 11.5637 191.571 12.6228 191.943 13.7271C192.187 14.4328 192.373 15.1572 192.499 15.8932C192.553 16.16 192.593 16.4296 192.619 16.7007Z" fill="#54201C"/>
<path d="M164.261 34.4067C164.261 34.4067 164.261 34.692 164.261 35.2384C164.261 35.7848 164.261 36.5777 164.261 37.5883C164.261 38.0959 164.295 38.652 164.315 39.2612C164.334 39.8704 164.382 40.5329 164.455 41.2339C164.582 42.804 164.802 44.3652 165.112 45.9095C165.458 47.7363 165.97 49.5278 166.64 51.262C167.01 52.2056 167.436 53.1259 167.917 54.018C168.427 54.9387 169.005 55.8196 169.648 56.6532C170.993 58.3974 172.684 59.8458 174.613 60.9081C176.624 61.9728 178.837 62.6021 181.107 62.7551C183.374 63.0041 185.662 63.0041 187.929 62.7551C190.149 62.4844 192.32 61.8171 193.973 60.502C195.555 59.205 196.64 57.4012 197.044 55.3961C197.436 53.5884 197.573 51.7345 197.45 49.8888C197.368 48.1627 197.15 46.5864 196.966 45.1939C196.782 43.8014 196.565 42.5829 196.4 41.5821C196.067 39.5852 195.917 38.4392 195.917 38.4392C195.917 38.4392 196.13 39.5755 196.546 41.5627C196.749 42.5298 196.995 43.7579 197.251 45.1504C197.538 46.7101 197.743 48.2836 197.866 49.8647C198.032 51.7517 197.932 53.6527 197.571 55.5121C197.357 56.5386 196.989 57.5267 196.478 58.4422C195.938 59.4057 195.217 60.256 194.355 60.9468C192.595 62.3635 190.313 63.0743 188.031 63.3644C185.714 63.6182 183.376 63.6036 181.063 63.3208C178.724 63.152 176.445 62.4931 174.376 61.3868C172.382 60.2889 170.646 58.7772 169.285 56.953C168.639 56.0894 168.061 55.1778 167.554 54.226C167.077 53.3133 166.657 52.3719 166.297 51.4071C165.648 49.6422 165.162 47.8213 164.846 45.9675C164.574 44.4049 164.393 42.8275 164.305 41.2436C164.252 40.5425 164.247 39.8801 164.223 39.2661C164.198 38.652 164.223 38.0959 164.223 37.5883C164.223 36.5729 164.257 35.7799 164.29 35.2384C164.324 34.6968 164.261 34.4067 164.261 34.4067Z" fill="#54201C"/>
<path d="M185.57 27.5507C185.734 28.0583 185.875 28.5757 186.024 29.0882C186.174 29.6008 186.305 30.1181 186.445 30.6306C186.709 31.6654 186.962 32.7017 187.204 33.7396C187.688 35.8139 188.108 37.9027 188.481 40.0253L188.519 40.2574L188.297 40.2816C187.33 40.3734 186.363 40.4653 185.396 40.5427C184.429 40.62 183.462 40.7071 182.495 40.7699C183.462 40.5959 184.429 40.4508 185.396 40.2864C186.363 40.122 187.33 39.9915 188.297 39.8512L188.118 40.1075C187.586 38.0429 187.117 35.9638 186.692 33.875C186.485 32.8306 186.289 31.783 186.102 30.7322C186.015 30.2051 185.923 29.6781 185.845 29.1511C185.768 28.6241 185.633 28.0825 185.57 27.5507Z" fill="#D15A5A"/>
<path d="M164.116 43.9659C163.806 43.8831 163.503 43.7731 163.212 43.6371C162.904 43.5061 162.62 43.3247 162.371 43.1004C162.226 42.9673 162.132 42.7877 162.105 42.5927C162.099 42.4828 162.12 42.373 162.168 42.2736C162.211 42.183 162.269 42.1011 162.342 42.0318C162.6 41.7957 162.905 41.6162 163.236 41.5048L163.086 41.674C163.242 40.6973 163.308 39.7085 163.285 38.7198C163.268 38.2391 163.203 37.7613 163.091 37.2934C162.999 36.8543 162.777 36.4533 162.453 36.1426C162.376 36.0737 162.289 36.0152 162.197 35.9686L162.129 35.9347C162.09 35.9347 162.129 35.9347 162.129 35.9347H162.086C162.029 35.9139 161.97 35.8962 161.912 35.8816C161.717 35.826 161.51 35.8362 161.322 35.9106C160.92 36.1261 160.598 36.4651 160.403 36.8776C160.167 37.3117 159.971 37.7665 159.818 38.2363C159.658 38.7125 159.522 39.1967 159.412 39.6868C159.432 39.1782 159.494 38.6721 159.595 38.1734C159.689 37.6641 159.841 37.1675 160.05 36.6939C160.16 36.4484 160.298 36.2164 160.461 36.0024C160.636 35.7718 160.861 35.5834 161.119 35.4512C161.404 35.3192 161.725 35.2835 162.032 35.3497C162.096 35.3639 162.159 35.3817 162.221 35.4029H162.264L162.332 35.4319L162.439 35.4754C162.572 35.5388 162.699 35.6166 162.816 35.7075C163.239 36.0934 163.534 36.5996 163.662 37.158C163.791 37.6703 163.86 38.1962 163.865 38.7246C163.878 39.7546 163.766 40.7823 163.531 41.7853L163.497 41.9158L163.381 41.9545C163.101 42.0321 162.836 42.1581 162.598 42.3268C162.553 42.3578 162.515 42.3979 162.487 42.4446C162.459 42.4912 162.44 42.5434 162.434 42.5976C162.446 42.7213 162.496 42.838 162.579 42.9312C162.779 43.1649 163.015 43.3642 163.28 43.5211C163.55 43.6844 163.83 43.8329 164.116 43.9659Z" fill="#D15A5A"/>
<path d="M185.981 27.952C186.041 27.3028 186.219 26.6702 186.508 26.0856C186.799 25.468 187.186 24.9002 187.654 24.403C187.934 24.1089 188.247 23.8477 188.587 23.6245C188.958 23.3767 189.364 23.186 189.791 23.0588C189.897 23.0201 190.013 23.0008 190.125 22.9718H190.168H190.25H190.318H190.453C190.55 22.9718 190.714 22.9718 190.845 22.9427H191.208C191.671 22.9909 192.12 23.1271 192.532 23.3441C193.183 23.7068 193.724 24.2379 194.099 24.8816C194.349 25.3012 194.524 25.7609 194.616 26.2403C194.656 26.4197 194.675 26.603 194.674 26.7867L194.239 26.4724C193.964 26.2887 193.596 26.0179 193.166 25.752C192.734 25.4687 192.263 25.2488 191.768 25.0992C191.542 25.0354 191.308 25.0013 191.072 24.9977H190.898C190.85 24.9977 190.835 24.9977 190.753 24.9977H190.618H190.55C190.487 24.9977 190.419 24.9977 190.357 25.0412C190.091 25.1135 189.832 25.2089 189.583 25.3265C189.318 25.4559 189.059 25.5995 188.809 25.7568C188.328 26.0711 187.863 26.4101 187.417 26.7722L185.981 27.952Z" fill="#76413B"/>
<path d="M181.798 26.9124L181.262 26.5981C180.928 26.4047 180.454 26.1146 179.903 25.8293C178.805 25.2443 177.35 24.5625 176.035 24.5915C175.709 24.596 175.384 24.6382 175.068 24.7172C174.903 24.7414 174.749 24.8188 174.584 24.8574C174.42 24.8961 174.27 24.9928 174.101 25.046C173.932 25.0992 173.801 25.2056 173.646 25.2781C173.492 25.3506 173.356 25.457 173.206 25.5392C172.931 25.7278 172.65 25.9018 172.409 26.0952C172.167 26.2886 171.925 26.4579 171.722 26.6223C171.519 26.7867 171.325 26.9269 171.18 27.0526C170.881 27.304 170.697 27.4394 170.697 27.4394C170.737 27.2323 170.787 27.0274 170.847 26.8253C170.91 26.5917 170.993 26.3637 171.093 26.1436C171.147 26.013 171.209 25.8777 171.272 25.7326C171.335 25.5876 171.432 25.4473 171.519 25.2974C171.711 24.9669 171.933 24.6545 172.181 24.3643C172.321 24.2095 172.471 24.0597 172.626 23.8808C172.781 23.7019 172.974 23.5906 173.158 23.4456C173.563 23.1552 174.008 22.9241 174.478 22.759C174.979 22.5866 175.505 22.4936 176.035 22.4834C176.556 22.4886 177.073 22.5667 177.572 22.7155C178.034 22.8543 178.476 23.0509 178.888 23.3005C180.066 24.0148 181.009 25.0587 181.6 26.3032C181.683 26.5002 181.75 26.704 181.798 26.9124Z" fill="#76413B"/>
<path d="M175.687 31.8732C175.687 33.3237 175.252 34.5373 174.72 34.5325C174.188 34.5277 173.801 33.3334 173.811 31.8635C173.82 30.3936 174.246 29.1993 174.754 29.1993C175.261 29.1993 175.696 30.4033 175.687 31.8732Z" fill="#1C171E"/>
<path d="M190.231 32.0424C190.231 33.4929 189.796 34.7066 189.264 34.7066C188.732 34.7066 188.365 33.4929 188.398 32.0424C188.432 30.5919 188.829 29.3782 189.341 29.3831C189.854 29.3879 190.236 30.558 190.231 32.0424Z" fill="#1C171E"/>
<path d="M175.871 43.7484L192.484 46.0644C192.484 46.0644 186.073 52.9497 175.871 43.7484Z" fill="white"/>
<path d="M206.67 100.648C206.67 100.648 215.069 137.85 225.871 135.848C236.672 133.846 219.469 85.4465 219.469 85.4465L206.67 100.648Z" fill="#F29083"/>
<path d="M189.365 66.9474C189.365 66.9474 206.467 62.7505 215.166 73.2331C223.864 83.7157 225.668 99.0334 225.668 99.0334L207.067 105.319L189.365 66.9474Z" fill="#0096C8"/>
<path d="M201.738 92.4817L201.294 92.8201L207.072 105.348L225.672 99.0623C225.672 99.0623 224.435 88.5797 219.072 79.011C213.425 83.6285 207.574 88.0237 201.738 92.4817Z" fill="#558AB5"/>
<path d="M232.533 34.6727C232.533 34.6727 229.212 22.3721 238.36 18.1655C238.36 18.1655 241.183 29.4991 232.533 34.6727Z" fill="#965450"/>
<path d="M238.476 25.9017C238.94 23.34 238.901 20.7122 238.36 18.1655C236.695 18.9027 235.258 20.0712 234.197 21.5501C235.618 23.02 237.035 24.4705 238.476 25.9017Z" fill="#FC6A5A"/>
<path d="M232.089 33.788C230.454 35.4416 227.79 41.1906 223.642 53.8344C218.376 69.9016 212.7 91.0311 214.097 91.4711C215.494 91.9111 223.443 71.5697 228.714 55.4977C232.62 43.6081 233.965 37.4046 233.834 34.7985C233.244 34.46 232.664 34.1361 232.089 33.788Z" fill="#FC6A5A"/>
<path d="M232.089 33.788C230.938 34.9532 229.275 38.1396 226.944 44.3527C228.491 44.9974 230.031 45.6421 231.562 46.2868C233.293 40.209 233.926 36.6165 233.834 34.7888C233.244 34.46 232.664 34.1361 232.089 33.788Z" fill="#FDDEC0"/>
<path d="M225.073 51.4507C225.073 51.4507 233.873 50.2467 235.87 54.6467C237.867 59.0467 240.27 133.459 228.269 135.848C218.947 137.714 209.073 127.449 222.67 68.6396C222.67 68.6396 216.669 67.0391 219.072 64.2396C219.072 64.2396 215.872 61.0387 220.272 59.8396C220.272 59.8396 217.854 56.6388 221.872 56.2374C221.872 56.2471 217.893 52.2485 225.073 51.4507Z" fill="#FFAC9D"/>
<path d="M228.269 135.848C227.506 136.009 226.727 136.079 225.948 136.056H225.653L225.363 136.017L224.778 135.945C224.394 135.87 224.015 135.766 223.646 135.635C222.16 135.093 220.865 134.126 219.923 132.855C218.976 131.597 218.236 130.197 217.728 128.706C217.207 127.228 216.814 125.707 216.553 124.161C216.486 123.779 216.408 123.393 216.355 123.006L216.205 121.845C216.089 121.067 216.036 120.288 215.968 119.51C215.901 118.731 215.872 117.948 215.828 117.17C215.785 116.391 215.78 115.608 215.77 114.825C215.76 114.041 215.77 113.263 215.77 112.485C215.77 111.706 215.77 110.918 215.833 110.139L215.954 107.799C216.002 107.021 216.075 106.242 216.128 105.464C216.234 103.907 216.423 102.36 216.573 100.803C216.723 99.2459 216.935 97.7035 217.148 96.1611C217.361 94.6187 217.569 93.0666 217.83 91.529C218.091 89.9915 218.313 88.449 218.603 86.9115C218.894 85.3739 219.15 83.8412 219.459 82.3133C219.769 80.7854 220.054 79.2526 220.388 77.7296C220.721 76.2065 221.026 74.6737 221.355 73.1555L222.389 68.596L222.578 68.9103C222.008 68.7462 221.451 68.5427 220.91 68.301C220.36 68.065 219.839 67.7665 219.358 67.4114C219.111 67.2237 218.887 67.0079 218.69 66.7683C218.48 66.5136 218.334 66.2117 218.265 65.8883C218.198 65.5561 218.23 65.2113 218.357 64.8971C218.415 64.7461 218.49 64.6018 218.579 64.4668C218.665 64.3367 218.758 64.2123 218.86 64.0945V64.4281C218.682 64.2366 218.521 64.0313 218.376 63.814C218.223 63.5998 218.09 63.3715 217.98 63.1323C217.92 63.0124 217.87 62.8879 217.83 62.76C217.785 62.6312 217.753 62.4984 217.733 62.3635L217.699 62.1604V61.9477C217.699 61.8752 217.699 61.8075 217.699 61.7349L217.748 61.527C217.748 61.4593 217.781 61.3868 217.801 61.3191L217.898 61.1305L217.999 60.942C218.038 60.8839 218.086 60.8356 218.13 60.7824C218.214 60.671 218.311 60.5703 218.42 60.4826L218.748 60.2457C218.859 60.1734 218.976 60.1104 219.097 60.0571L219.45 59.8879L220.185 59.6461L220.073 59.9798C219.94 59.7922 219.82 59.5951 219.716 59.3899C219.612 59.1847 219.527 58.9712 219.459 58.7517C219.421 58.6415 219.392 58.5283 219.372 58.4132C219.347 58.2972 219.334 58.1789 219.334 58.0602C219.315 57.9385 219.315 57.8145 219.334 57.6928L219.363 57.5139L219.43 57.3398C219.43 57.2818 219.479 57.2238 219.508 57.1657L219.614 57.0158C219.681 56.9112 219.766 56.8195 219.865 56.7451C219.954 56.6642 220.052 56.5929 220.156 56.5323L220.475 56.3728C220.582 56.3301 220.692 56.2945 220.803 56.2664C220.91 56.2374 221.021 56.1987 221.132 56.1745L221.799 56.073L221.688 56.3824C221.392 56.0659 221.137 55.7134 220.929 55.3332C220.709 54.9483 220.578 54.5186 220.547 54.0761C220.526 53.6163 220.676 53.165 220.968 52.8093C221.26 52.4808 221.62 52.2187 222.022 52.0405C222.409 51.8625 222.812 51.7232 223.226 51.6247C223.637 51.528 224.053 51.4506 224.468 51.3926C224.884 51.3346 225.295 51.291 225.716 51.2669C226.137 51.2427 226.548 51.2185 226.968 51.2088C228.64 51.1544 230.31 51.3401 231.929 51.76C232.738 51.9756 233.507 52.3201 234.206 52.7803C234.553 53.015 234.868 53.2928 235.144 53.6071C235.417 53.9213 235.644 54.273 235.817 54.6515C235.635 54.2777 235.402 53.931 235.125 53.6216C234.838 53.3161 234.513 53.048 234.158 52.8238C233.457 52.3818 232.69 52.0553 231.886 51.8567C230.272 51.4721 228.611 51.3223 226.954 51.4119C226.538 51.4119 226.127 51.4554 225.716 51.4941C225.305 51.5328 224.894 51.5908 224.483 51.6488C224.072 51.7069 223.676 51.7939 223.279 51.8954C222.885 51.9993 222.502 52.1385 222.133 52.3113C221.776 52.474 221.458 52.7114 221.2 53.0075C220.959 53.302 220.838 53.6768 220.861 54.0567C220.896 54.4474 221.016 54.8255 221.214 55.164C221.411 55.5139 221.65 55.8386 221.925 56.131L222.172 56.3824L221.819 56.4405L221.19 56.542C221.089 56.542 220.992 56.6 220.895 56.629C220.796 56.6548 220.699 56.6888 220.605 56.7306L220.334 56.8659C220.238 56.9046 220.185 56.9868 220.102 57.04C220.026 57.0958 219.962 57.1665 219.914 57.2479L219.832 57.3591L219.778 57.4897L219.73 57.6202L219.706 57.7604C219.689 57.8548 219.689 57.9514 219.706 58.0457C219.702 58.1452 219.714 58.2446 219.74 58.3407C219.756 58.4413 219.782 58.5401 219.817 58.6356C219.881 58.8318 219.96 59.0226 220.054 59.2062C220.149 59.3877 220.258 59.5622 220.378 59.7283L220.552 59.9653L220.262 60.062L219.58 60.2989C219.469 60.3424 219.367 60.4004 219.261 60.4536C219.154 60.5023 219.05 60.5589 218.952 60.6228L218.676 60.8308C218.591 60.9 218.514 60.9796 218.449 61.0677C218.411 61.109 218.375 61.1526 218.342 61.1982L218.275 61.3384L218.197 61.4835L218.163 61.6382L218.125 61.7929C218.125 61.851 218.125 61.9042 218.125 61.9573V62.1217L218.159 62.2861C218.174 62.3968 218.202 62.5055 218.241 62.6101C218.277 62.7217 218.322 62.83 218.376 62.934C218.476 63.1465 218.596 63.3489 218.734 63.5384C218.868 63.733 219.019 63.9158 219.184 64.0848L219.329 64.2299L219.198 64.4184C219.113 64.5209 219.036 64.6291 218.966 64.7424C218.895 64.8489 218.835 64.9623 218.787 65.0808C218.7 65.3071 218.678 65.5535 218.724 65.7916C218.782 66.0346 218.894 66.2611 219.053 66.454C219.224 66.6605 219.418 66.8456 219.633 67.0052C220.084 67.3341 220.57 67.6099 221.084 67.8272C221.6 68.0553 222.132 68.2475 222.675 68.4026L222.921 68.4703L222.868 68.7169L221.853 73.2764C221.509 74.7995 221.21 76.3274 220.886 77.8504C220.562 79.3735 220.276 80.9014 219.977 82.4293C219.677 83.9572 219.411 85.4899 219.13 87.0227C218.85 88.5554 218.603 90.0882 218.347 91.6257C218.091 93.1633 217.864 94.7009 217.646 96.2385C217.429 97.776 217.245 99.3281 217.051 100.871C216.858 102.413 216.703 103.96 216.597 105.512C216.534 106.291 216.461 107.064 216.413 107.838L216.283 110.168C216.234 110.942 216.229 111.721 216.2 112.499C216.171 113.277 216.162 114.051 216.167 114.83C216.171 115.608 216.167 116.382 216.196 117.16C216.225 117.939 216.239 118.712 216.307 119.486C216.374 120.259 216.408 121.033 216.515 121.802L216.65 122.957C216.703 123.344 216.771 123.726 216.834 124.108C217.078 125.638 217.448 127.145 217.941 128.615C218.409 130.092 219.109 131.486 220.015 132.744C220.915 134.012 222.168 134.987 223.617 135.548C223.98 135.684 224.352 135.795 224.73 135.882L225.305 135.964L225.595 136.007H225.885C226.683 136.051 227.484 135.998 228.269 135.848Z" fill="#D15A5A"/>
<path d="M162.071 67.247C162.071 67.247 165.673 79.5476 177.369 79.2478C189.066 78.948 189.365 66.9472 189.365 66.9472C189.365 66.9472 206.772 63.9495 210.065 72.0483C213.357 80.1472 211.568 165.047 211.568 165.047L147.072 163.558C147.072 163.558 138.069 74.1564 142.571 70.8589C147.072 67.5613 162.071 67.247 162.071 67.247Z" fill="#0096C8"/>
<path d="M183.945 108.67C174.947 102.867 167.312 95.2811 159.673 87.8398C154.074 82.3858 148.344 76.6368 143.959 70.061C143.471 70.2764 143.006 70.5405 142.571 70.8492C138.069 74.1467 140.946 163.548 140.946 163.548L211.573 165.047C211.573 165.047 212.033 143.371 212.057 120.878C202.203 118.108 192.576 114.24 183.945 108.67Z" fill="#0096C8"/>
<path d="M142.571 70.8492C142.242 71.2071 142.013 71.6459 141.909 72.1209C141.773 72.5855 141.662 73.0568 141.575 73.5327C141.396 74.4998 141.27 75.4426 141.159 76.4048C140.946 78.3389 140.811 80.2729 140.7 82.207C140.482 86.0751 140.381 89.9432 140.308 93.8113C140.173 101.548 140.158 109.308 140.216 117.059C140.342 132.554 140.664 148.047 141.183 163.539L140.961 163.321L158.619 163.689L176.272 164.09L211.568 164.897L211.414 165.047L211.689 126.12L212.018 87.192L211.897 126.12L211.718 165.047V165.202H211.563L176.267 164.506L158.614 164.162L140.956 163.776H140.738V163.558C140.294 148.06 140.023 132.56 139.926 117.059C139.926 113.191 139.926 109.322 139.926 105.454C139.955 101.586 139.994 97.7181 140.1 93.8258C140.207 89.9335 140.352 86.0896 140.584 82.2215C140.714 80.2874 140.869 78.3534 141.096 76.4193C141.217 75.4523 141.353 74.4853 141.541 73.5472C141.631 73.0705 141.747 72.5992 141.889 72.1354C141.998 71.6537 142.233 71.2097 142.571 70.8492Z" fill="#1B4268"/>
<path d="M138.369 73.8472C138.369 73.8472 116.471 123.349 123.67 132.352C130.87 141.355 185.773 119.452 185.773 119.452L173.172 110.154L145.873 113.756L159.073 78.6581L138.369 73.8472Z" fill="#FFAC9D"/>
<path d="M160.591 128.31C173.97 124.157 185.773 119.447 185.773 119.447L173.173 110.149L148.479 113.403C150.902 119.375 155.389 124.166 160.591 128.31Z" fill="#F29083"/>
<path d="M148.267 107.364L159.068 78.6485L138.364 73.8472C138.364 73.8472 133.017 85.935 128.477 99.2558C134.356 103.462 141.159 105.957 148.267 107.364Z" fill="#F29083"/>
<path d="M130.067 119.346C130.067 119.346 130.207 119.239 130.493 119.065C130.778 118.891 131.184 118.625 131.731 118.33C132.277 118.035 132.949 117.697 133.723 117.315C134.496 116.933 135.405 116.565 136.392 116.159L137.953 115.598C138.495 115.405 139.051 115.192 139.641 115.033C140.816 114.704 142.034 114.274 143.345 114.027L145.327 113.592L145.839 113.481L146.323 113.398L147.348 113.234L151.521 112.562C152.923 112.359 154.311 112.112 155.703 111.967L159.769 111.484C161.085 111.324 162.366 111.189 163.575 111.053L166.988 110.729C171.214 110.333 174.043 110.164 174.043 110.164L167.022 111.068L163.638 111.489C162.434 111.658 161.167 111.837 159.852 112.001L155.8 112.523C154.422 112.683 153.029 112.949 151.627 113.157L147.454 113.79L146.425 113.945L145.912 114.022L145.428 114.124L143.461 114.539C142.16 114.781 140.941 115.158 139.767 115.458C139.177 115.598 138.621 115.792 138.074 115.966L136.508 116.478C136.024 116.657 135.541 116.851 135.091 117.02C134.641 117.189 134.206 117.339 133.814 117.503C133.026 117.852 132.335 118.137 131.784 118.427C131.233 118.717 130.817 118.91 130.507 119.08C130.198 119.249 130.067 119.346 130.067 119.346Z" fill="#D15A5A"/>
<path d="M162.071 67.247C162.071 67.247 146.173 54.0471 135.961 70.2497C125.75 86.4522 125.16 92.4477 125.16 92.4477C125.16 92.4477 141.662 103.849 155.461 105.648L162.071 67.247Z" fill="#0096C8"/>
<path d="M146.333 62.412L145.172 62.7021C144.79 62.8036 144.423 62.968 144.051 63.0986C143.677 63.2299 143.315 63.3916 142.967 63.5821C142.605 63.7458 142.257 63.9399 141.928 64.1623C141.599 64.3799 141.261 64.583 140.937 64.815L140.018 65.5693C139.712 65.8211 139.423 66.0924 139.153 66.3816C138.882 66.6669 138.582 66.928 138.335 67.2374L137.581 68.1561C137.46 68.3109 137.33 68.4607 137.214 68.6396L136.88 69.1232C136.435 69.7807 135.981 70.4238 135.589 71.1152L133.142 75.2154C132.722 75.8923 132.349 76.5934 131.972 77.2897L130.86 79.3785C130.478 80.0747 130.091 80.7662 129.753 81.4866L128.699 83.6237C128.336 84.3296 128.022 85.0743 127.708 85.785C127.393 86.4958 127.05 87.2356 126.784 87.9753C126.518 88.7151 126.209 89.4259 125.991 90.2092L125.648 91.3406C125.571 91.7177 125.455 92.1094 125.411 92.472L125.314 92.2593C126.455 93.0281 127.626 93.7727 128.81 94.4883C129.995 95.2039 131.189 95.9098 132.398 96.5867C132.997 96.93 133.607 97.2588 134.216 97.5876C134.825 97.9164 135.429 98.25 136.048 98.5546C136.667 98.8592 137.276 99.1977 137.9 99.4926L139.771 100.392L141.667 101.238C142.295 101.528 142.938 101.784 143.601 102.041C144.263 102.297 144.877 102.577 145.535 102.795L147.469 103.496C148.122 103.709 148.789 103.902 149.447 104.105C150.104 104.308 150.776 104.482 151.448 104.642C152.12 104.802 152.783 105.005 153.465 105.101L155.505 105.459L155.297 105.614L157.275 94.4931L159.301 83.4061L157.507 94.527L155.665 105.648L155.631 105.827L155.457 105.798L153.392 105.459C152.701 105.367 152.028 105.164 151.347 105.019C150.665 104.874 149.993 104.7 149.33 104.482C148.668 104.265 147.991 104.091 147.329 103.878L145.366 103.216C144.703 102.998 144.07 102.732 143.432 102.461C142.793 102.191 142.141 101.954 141.498 101.664L139.564 100.817L137.678 99.923C137.049 99.628 136.435 99.2992 135.816 98.9898C135.197 98.6803 134.578 98.3515 133.969 98.0228C133.36 97.694 132.741 97.37 132.142 97.017C130.926 96.3337 129.729 95.6278 128.549 94.8993C127.36 94.174 126.19 93.4487 125.034 92.6413L124.923 92.5639V92.4285C124.976 92.003 125.097 91.6307 125.179 91.2294L125.542 90.0641C125.769 89.2905 126.088 88.5604 126.354 87.8061C126.62 87.0518 126.982 86.3556 127.292 85.6013C127.601 84.847 127.93 84.1508 128.298 83.4303L129.371 81.2884C129.714 80.5728 130.111 79.8813 130.502 79.1851L131.673 77.0963C132.064 76.4049 132.441 75.7038 132.872 75.0317L135.367 70.9605C135.763 70.2739 136.232 69.6163 136.691 68.9684L137.035 68.4849C137.16 68.3302 137.291 68.1803 137.422 68.0014L138.195 67.0876C138.456 66.7829 138.766 66.5219 139.046 66.2414C139.322 65.9538 139.618 65.6857 139.931 65.4388L140.898 64.699C141.222 64.4718 141.57 64.2735 141.909 64.0559C142.595 63.6521 143.315 63.3076 144.06 63.0261C144.442 62.9052 144.81 62.7456 145.196 62.6537L146.333 62.412Z" fill="#1B4268"/>
<path d="M199.872 107.751C186.073 90.949 182.171 91.2487 177.07 94.8509C171.969 98.4531 169.271 96.9494 169.271 96.9494C159.673 91.2487 152.667 84.233 146.773 94.5318C140.772 105.053 174.377 142.849 190.569 140.751C206.762 138.652 213.672 124.548 199.872 107.751ZM190.004 106.678C189.153 108.413 185.396 108.317 181.615 106.46C177.834 104.603 175.455 101.693 176.296 99.9568C177.137 98.221 180.909 98.3225 184.69 100.174C188.471 102.026 190.855 104.942 190.004 106.678Z" fill="white"/>
<path d="M175.571 100.846C175.571 100.846 178.269 96.05 181.856 95.7502C185.444 95.4504 200.157 102.95 185.159 100.846C185.173 100.846 182.471 111.75 175.571 100.846Z" fill="#FFAC9D"/>
<path d="M159.47 112.649C161.9 112.649 163.87 110.679 163.87 108.249C163.87 105.819 161.9 103.849 159.47 103.849C157.04 103.849 155.07 105.819 155.07 108.249C155.07 110.679 157.04 112.649 159.47 112.649Z" fill="#965450"/>
<path d="M169.067 123.847C171.498 123.847 173.467 121.877 173.467 119.447C173.467 117.017 171.498 115.047 169.067 115.047C166.637 115.047 164.667 117.017 164.667 119.447C164.667 121.877 166.637 123.847 169.067 123.847Z" fill="#6F96BD"/>
<path d="M185.381 132.159C187.099 130.44 187.099 127.654 185.381 125.936C183.663 124.218 180.877 124.218 179.158 125.936C177.44 127.654 177.44 130.44 179.158 132.158C180.877 133.877 183.663 133.877 185.381 132.159Z" fill="#5D8584"/>
<path d="M195.467 133.846C197.897 133.846 199.867 131.876 199.867 129.446C199.867 127.016 197.897 125.046 195.467 125.046C193.037 125.046 191.067 127.016 191.067 129.446C191.067 131.876 193.037 133.846 195.467 133.846Z" fill="#FFA65B"/>
<path d="M197.068 120.245C199.498 120.245 201.468 118.275 201.468 115.845C201.468 113.415 199.498 111.445 197.068 111.445C194.638 111.445 192.668 113.415 192.668 115.845C192.668 118.275 194.638 120.245 197.068 120.245Z" fill="#FC6A5A"/>
<path d="M63.5069 139.068C63.5069 139.068 42.0679 161.653 42.8077 215.778H119.343C119.343 215.778 120.861 153.69 92.566 141.157C64.2708 128.624 63.5069 139.068 63.5069 139.068Z" fill="#0096C8"/>
<path d="M76.2233 193.454C70.3825 191.964 63.9808 189.653 58.4397 187.516C54.0881 185.843 49.1949 184.015 45.6459 181.264C44.0987 186.438 42.7448 206.847 42.798 215.777H76.2233V193.454Z" fill="#0096C8"/>
<path d="M98.6244 144.585C96.722 143.247 94.6928 142.099 92.566 141.157C64.266 128.619 63.5069 139.068 63.5069 139.068C61.7647 140.94 60.2071 142.975 58.8555 145.146C72.0738 146.802 85.4581 146.613 98.6244 144.585Z" fill="#0096C8"/>
<path d="M119.343 215.778C119.343 215.778 120.861 153.69 92.566 141.157C64.2708 128.624 63.5068 139.068 63.5068 139.068C63.5068 139.068 42.5514 159.236 42.8076 215.778" stroke="#1B4268" stroke-width="0.5" stroke-miterlimit="10"/>
<path d="M49.8331 183.803C50.365 184.044 50.9017 184.286 51.4384 184.513C51.9751 184.741 52.5021 184.997 53.0437 185.215L54.6586 185.896C55.1953 186.133 55.7417 186.336 56.2832 186.559L57.9078 187.216C58.4445 187.439 58.9909 187.647 59.5421 187.85L62.8251 189.073L66.142 190.19C66.6932 190.378 67.2444 190.577 67.8053 190.727L69.488 191.21L71.1706 191.694C71.7266 191.868 72.2972 191.979 72.8677 192.105L76.2765 192.849H76.1798L83.2101 191.399C85.5551 190.915 87.8953 190.432 90.2452 189.992L97.2851 188.619L104.34 187.303L97.3383 188.875L90.3274 190.388C87.992 190.901 85.647 191.355 83.3068 191.868L76.2862 193.318H76.2281H76.1846L72.7468 192.54C72.1763 192.409 71.6009 192.293 71.0449 192.114L69.3574 191.631L67.6699 191.147C67.1042 190.993 66.553 190.789 66.0018 190.596L62.6849 189.445L59.4212 188.154C58.8764 187.942 58.3349 187.719 57.7966 187.487L56.1865 186.791C55.6498 186.554 55.1083 186.332 54.5812 186.075L52.9856 185.34C51.9267 184.833 50.8775 184.349 49.8331 183.803Z" fill="#1B4268"/>
<path d="M76.0492 215.778L75.9718 204.444V193.115H76.4892C76.4892 193.115 76.4892 198.777 76.4892 204.444C76.4892 210.111 76.407 215.778 76.407 215.778H76.0492Z" fill="#1B4268"/>
<path d="M90.5352 80.5146C90.5352 80.5146 88.4223 97.9549 91.101 97.5004C93.7796 97.0459 105.026 90.6684 107.395 102.113C109.765 113.558 93.5669 136.443 93.5669 136.443L57.4 136.012C57.4 136.012 51.3319 101.359 60.9394 97.9259C70.5468 94.493 76.581 104.008 76.2426 89.1695C75.8993 74.108 90.5352 80.5146 90.5352 80.5146Z" fill="#965450"/>
<path d="M75.8123 95.257C76.1001 93.2374 76.2439 91.1998 76.2426 89.1598C76.5569 74.0936 90.5352 80.5146 90.5352 80.5146C90.5352 80.5146 90.0034 84.9291 89.81 89.2614C86.2658 91.8288 79.8834 94.1352 75.8123 95.257Z" fill="#76413B"/>
<path d="M72.8387 48.0952C72.8387 48.0952 64.8607 42.0223 56.317 55.5026C47.7733 68.983 57.4532 83.0629 68.4677 83.2321C79.4821 83.4013 72.8387 48.0952 72.8387 48.0952Z" fill="#EFC8A8"/>
<path d="M72.8387 48.0952C72.8387 48.0952 64.8607 42.0223 56.317 55.5026C47.7733 68.983 57.4532 83.0629 68.4677 83.2321C79.4821 83.4013 72.8387 48.0952 72.8387 48.0952Z" stroke="#C98D61" stroke-width="1.06" stroke-miterlimit="10"/>
<path d="M78.665 50.5078C78.665 50.5078 64.1209 49.1685 62.4286 65.3178C60.277 85.872 72.6646 98.2693 84.559 89.1551C96.4535 80.0408 98.0539 50.0243 78.665 50.5078Z" fill="#965450"/>
<path d="M90.8398 75.4958C90.8398 75.4958 91.7391 66.5121 95.6749 68.2721C99.6107 70.0321 97.1255 82.0329 90.4385 78.6096" fill="#965450"/>
<path d="M78.665 50.5078C78.665 50.5078 78.3507 50.4836 77.7656 50.5078C76.918 50.5307 76.073 50.6131 75.2369 50.7543C73.9447 50.9763 72.6835 51.3512 71.48 51.8713C69.7818 52.5915 68.2467 53.6477 66.9671 54.9763C65.6875 56.305 64.6898 57.8786 64.0338 59.6026C63.2397 61.6919 62.7669 63.8894 62.6317 66.1204C62.4213 68.5092 62.4213 70.9118 62.6317 73.3006C62.8353 75.7679 63.3303 78.2024 64.1064 80.5533C64.8526 82.8994 65.9976 85.0993 67.491 87.0565C68.2286 88.0012 69.0759 88.855 70.0149 89.5998C70.9375 90.31 71.9588 90.8817 73.0465 91.297C74.1005 91.6919 75.214 91.9045 76.3393 91.9255C77.421 91.961 78.5015 91.8239 79.5401 91.5194C81.4584 90.9558 83.2428 90.0101 84.7862 88.7392C86.1066 87.6728 87.2704 86.426 88.2434 85.0355C88.7269 84.4359 89.0557 83.8073 89.4135 83.2561C89.7713 82.7049 90.0179 82.1489 90.2838 81.6702C90.7673 80.7032 91.1058 79.8957 91.304 79.3445L91.6376 78.508L91.333 79.3542C91.1493 79.9151 90.8157 80.708 90.366 81.7137C90.1194 82.1972 89.8583 82.7533 89.544 83.3383C89.2297 83.9234 88.8768 84.5423 88.4223 85.166C88.1998 85.4755 87.9968 85.8188 87.7357 86.133L86.9475 87.1001C86.3511 87.7793 85.7046 88.4128 85.0135 88.9954C83.4476 90.3284 81.6287 91.3316 79.6658 91.9449C78.5863 92.2815 77.4602 92.4447 76.3296 92.4284C75.1456 92.4246 73.9717 92.2101 72.8628 91.795C71.7184 91.3682 70.6431 90.7752 69.6716 90.035C68.691 89.2672 67.8048 88.3859 67.0316 87.4095C65.4823 85.4068 64.2914 83.1509 63.5117 80.7419C62.7415 78.3458 62.2547 75.8679 62.0611 73.3586C61.8649 70.9363 61.8794 68.5015 62.1046 66.0817C62.2546 63.8001 62.7688 61.5573 63.6277 59.4383C64.3934 57.5345 65.5554 55.8154 67.0365 54.3952C68.2993 53.2116 69.7762 52.2795 71.3881 51.6488C72.6196 51.1601 73.9052 50.8208 75.2175 50.6383C76.0584 50.5191 76.9067 50.461 77.756 50.4642C78.3507 50.4739 78.665 50.5078 78.665 50.5078Z" fill="#54201C"/>
<path d="M92.566 47.336C92.566 47.336 80.7876 36.6987 93.1366 31.5735C105.485 26.4482 105.481 44.111 97.3141 46.7703C97.3141 46.7703 101.298 47.5294 104.91 40.4846C104.91 40.4991 103.58 53.4138 92.566 47.336Z" fill="#EFC8A8"/>
<path d="M92.566 47.3362C91.8736 46.684 91.2273 45.9845 90.6319 45.2426C90.0238 44.5037 89.4727 43.7198 88.9832 42.8976C88.4899 42.0756 88.097 41.1974 87.8131 40.2817C87.519 39.3647 87.4154 38.3972 87.5084 37.4387C87.6208 36.4725 87.9768 35.5508 88.5432 34.76C89.114 33.9768 89.8236 33.3049 90.6368 32.7776C91.44 32.2404 92.2934 31.7822 93.1849 31.4093C93.6346 31.2497 94.06 31.0466 94.5339 30.9258L95.2398 30.7227C95.4767 30.6695 95.7233 30.6308 95.9554 30.5873C96.9168 30.4126 97.9036 30.434 98.8565 30.6502C99.8299 30.8929 100.711 31.4157 101.39 32.1539C102.059 32.8906 102.555 33.7679 102.841 34.7213C103.12 35.6627 103.257 36.6406 103.247 37.6224C103.245 39.5852 102.735 41.514 101.767 43.2215C101.282 44.0767 100.662 44.8474 99.9299 45.5037C99.1918 46.1556 98.3278 46.6493 97.3915 46.9542L97.3624 46.5287C97.5587 46.5459 97.7561 46.5459 97.9523 46.5287C98.1571 46.5083 98.3605 46.476 98.5616 46.432C98.7646 46.3982 98.9629 46.316 99.1611 46.2628C99.3594 46.2096 99.5528 46.1129 99.7413 46.0211C99.9299 45.9292 100.118 45.8325 100.297 45.7213L100.829 45.378L101.313 44.9863C101.487 44.8606 101.627 44.7011 101.796 44.5608C101.956 44.4179 102.108 44.2662 102.251 44.1063L102.676 43.6228C102.821 43.4633 102.942 43.2844 103.078 43.1393C103.213 42.9943 103.343 42.8009 103.464 42.6268L103.822 42.0853C103.933 41.9064 104.064 41.7323 104.17 41.5437L104.804 40.422L105.113 39.8756L105.036 40.4897C104.929 41.2259 104.767 41.9532 104.552 42.6655C104.346 43.377 104.082 44.0707 103.764 44.7397C103.6 45.0734 103.426 45.3973 103.232 45.7068C103.035 46.0204 102.822 46.3238 102.594 46.6158C102.358 46.9023 102.103 47.1721 101.83 47.4232C101.556 47.6715 101.262 47.8963 100.95 48.0953C100.635 48.29 100.302 48.452 99.9541 48.5788C99.7834 48.6497 99.6071 48.7063 99.427 48.7481C99.2504 48.8018 99.0691 48.839 98.8855 48.8593C98.5193 48.9173 98.1491 48.9464 97.7783 48.9463C97.4106 48.9327 97.0441 48.8972 96.6807 48.8399C96.3166 48.7817 95.9565 48.701 95.6025 48.5982C95.2447 48.5063 94.9014 48.3613 94.5532 48.2452L93.5427 47.8052L92.566 47.3362ZM92.566 47.3362L93.533 47.8197L94.5484 48.2501C94.9014 48.3613 95.2398 48.5015 95.5976 48.5885C95.9514 48.6899 96.3117 48.7675 96.6759 48.8206C97.0391 48.8786 97.4057 48.9125 97.7734 48.9221C98.1397 48.9187 98.505 48.8864 98.8662 48.8254C99.0483 48.8035 99.228 48.7647 99.4029 48.7094C99.5798 48.6676 99.7528 48.611 99.9202 48.5402C100.259 48.4131 100.583 48.2511 100.887 48.0566C101.195 47.8607 101.485 47.6374 101.753 47.3894C102.017 47.1345 102.262 46.8615 102.488 46.5723C102.709 46.2811 102.914 45.9776 103.102 45.6633C103.281 45.349 103.45 45.025 103.585 44.6962C103.883 44.028 104.129 43.3378 104.32 42.6316C104.513 41.9273 104.653 41.2098 104.741 40.4848L104.968 40.5525L104.398 41.7129C104.291 41.9015 104.165 42.0804 104.054 42.269L103.701 42.8202C103.58 43.0039 103.445 43.1732 103.319 43.3521C103.194 43.531 103.063 43.7099 102.923 43.8743L102.493 44.3578C102.342 44.529 102.18 44.6905 102.009 44.8413C101.849 44.9912 101.704 45.1556 101.525 45.2909L101.013 45.7116L100.462 46.0839C100.273 46.2048 100.075 46.3015 99.8815 46.4127C99.6881 46.5239 99.4706 46.5964 99.2675 46.6835C99.0644 46.7705 98.842 46.8382 98.6196 46.8817C98.3983 46.9336 98.1737 46.9708 97.9475 46.9929C97.7129 47.0193 97.4761 47.0193 97.2416 46.9929L96.3422 46.8575L97.2126 46.5626C98.09 46.2624 98.8964 45.7852 99.5818 45.1604C100.269 44.5324 100.85 43.7977 101.303 42.9846C101.762 42.1711 102.108 41.2993 102.333 40.393C102.571 39.4881 102.699 38.5579 102.715 37.6224C102.733 36.6907 102.611 35.7616 102.352 34.8664C102.098 33.9733 101.649 33.1476 101.037 32.4488C100.413 31.7704 99.6102 31.2811 98.7211 31.037C97.8175 30.8161 96.8787 30.7783 95.9603 30.9258C95.0253 31.0693 94.1102 31.3208 93.2332 31.6752C92.3532 32.0218 91.5094 32.4542 90.7141 32.9662C89.9087 33.4605 89.2034 34.1018 88.635 34.8567C88.0643 35.6139 87.6965 36.5043 87.5665 37.4435C87.4561 38.3898 87.5467 39.3487 87.8324 40.2576C88.1069 41.1712 88.4917 42.048 88.9783 42.8685C89.4572 43.6937 89.9987 44.4809 90.5981 45.2233C91.205 45.9717 91.8625 46.6777 92.566 47.3362Z" fill="#C98D61"/>
<path d="M93.4995 48.1759C95.5401 47.3457 96.5213 45.0184 95.691 42.9777C94.8608 40.9371 92.5334 39.9559 90.4928 40.7862C88.4522 41.6165 87.471 43.9438 88.3013 45.9844C89.1316 48.025 91.4589 49.0062 93.4995 48.1759Z" fill="#6F96BD"/>
<path d="M70.7256 47.1473C70.7256 47.1473 70.5322 68.2285 91.4249 73.3538C91.4249 73.3538 91.1396 67.5129 95.2253 68.6105C99.311 69.7081 96.7435 75.4474 96.7435 75.4474C96.7435 75.4474 108.135 63.843 97.1206 49.0475C87.7308 36.4182 70.7256 47.1473 70.7256 47.1473Z" fill="#FDDEC0"/>
<path d="M96.7435 75.4475C97.5464 74.5441 98.259 73.5644 98.871 72.5222C99.4912 71.4904 100.02 70.4065 100.452 69.2827C101.332 67.0402 101.78 64.6516 101.772 62.2427C101.771 61.0439 101.648 59.8483 101.405 58.6744C101.355 58.3791 101.289 58.087 101.206 57.7992C101.129 57.5091 101.066 57.219 100.974 56.9289C100.786 56.3632 100.621 55.7878 100.384 55.2366C99.9407 54.1237 99.4171 53.0442 98.8178 52.0067C98.5083 51.4942 98.1844 50.9865 97.8507 50.4837C97.5171 49.9808 97.1642 49.4876 96.8064 49.0331C96.4436 48.5544 96.0528 48.0975 95.6363 47.6648C95.4283 47.4569 95.2349 47.2296 95.0174 47.0314L94.3453 46.4415C93.435 45.6707 92.4291 45.0206 91.3523 44.5074C90.2722 44.0085 89.1357 43.6416 87.9677 43.4147C86.8037 43.2168 85.6232 43.1326 84.4429 43.1633C83.2496 43.1892 82.0607 43.317 80.8891 43.5453C79.7115 43.7661 78.5489 44.06 77.4078 44.4253C76.267 44.7953 75.1469 45.2263 74.0522 45.7162C72.9574 46.1966 71.8933 46.7441 70.8659 47.3553L70.9771 47.1619C70.9854 47.902 71.0322 48.6412 71.1173 49.3764C71.1995 50.1162 71.3107 50.856 71.4461 51.5861C71.5815 52.3162 71.741 53.0366 71.9296 53.7716C72.1182 54.5065 72.3261 55.2221 72.5582 55.9135C72.7902 56.605 73.0417 57.3206 73.3414 58.012C73.6412 58.7034 73.9362 59.3755 74.3085 60.0379C74.468 60.3715 74.6518 60.7003 74.8355 61.0049C75.0192 61.3095 75.203 61.6577 75.406 61.972C75.7929 62.6102 76.2329 63.2146 76.6632 63.8238C77.0935 64.433 77.5867 64.9987 78.1137 65.5403L78.486 65.9609L78.8825 66.3526C79.1533 66.6137 79.4047 66.8893 79.6851 67.1359L80.5265 67.8708C80.8117 68.1174 81.1163 68.3543 81.4065 68.5671C81.6953 68.8045 81.9972 69.0256 82.3106 69.2295L83.2341 69.8629C83.8869 70.2304 84.5106 70.651 85.1682 70.9701L86.1691 71.4778L87.2038 71.9227C87.8855 72.2369 88.6011 72.4545 89.3071 72.7156C90.013 72.9767 90.7576 73.1411 91.4635 73.3539C90.7431 73.1556 90.013 72.9864 89.2926 72.7591C88.5721 72.5319 87.842 72.3143 87.1651 72.0097L86.1207 71.5842L85.1005 71.1007C84.4139 70.7912 83.7757 70.3851 83.1133 70.0273L82.1462 69.4132C81.8271 69.2101 81.5225 68.9926 81.2227 68.7605C80.9229 68.5284 80.6087 68.3205 80.3234 68.0739L79.4434 67.339C79.1533 67.0924 78.897 66.8168 78.6214 66.5605L78.2153 66.164L77.8333 65.7482C77.3111 65.2018 76.8421 64.6071 76.3827 64.022C75.9234 63.437 75.4882 62.8084 75.0869 62.1654C74.8742 61.8511 74.6856 61.5223 74.497 61.1983C74.3085 60.8744 74.1151 60.5408 73.9458 60.2071C73.588 59.5399 73.2689 58.8533 72.9788 58.1619C72.6887 57.4704 72.4083 56.7597 72.1617 56.0441C71.9151 55.3285 71.7023 54.5935 71.5138 53.8731C71.3252 53.1527 71.1511 52.4226 71.0302 51.6634C70.9094 50.9043 70.774 50.1694 70.687 49.4199C70.5999 48.6705 70.5419 47.9162 70.5322 47.1474V47.0314L70.6434 46.9637C71.6873 46.3347 72.7693 45.7712 73.883 45.2762C74.9858 44.7736 76.1157 44.333 77.2676 43.9562C78.4244 43.5758 79.6052 43.2721 80.8021 43.0472C82.0029 42.8209 83.221 42.698 84.4429 42.6798C85.6683 42.6586 86.8927 42.759 88.0983 42.9795C89.3045 43.2169 90.477 43.6018 91.5892 44.1255C92.7011 44.6508 93.7398 45.3188 94.6789 46.1127L95.3655 46.7219C95.5927 46.9299 95.7958 47.1619 96.0086 47.3844C96.4281 47.8239 96.822 48.2873 97.1883 48.772C97.5703 49.2556 97.8943 49.7681 98.2521 50.2661C98.6099 50.7641 98.8951 51.296 99.2191 51.823C99.8215 52.8825 100.342 53.9865 100.776 55.1254C101.008 55.6863 101.172 56.2762 101.356 56.8564C101.443 57.1465 101.506 57.4463 101.583 57.7412C101.661 58.0362 101.724 58.3359 101.772 58.6357C102.005 59.8318 102.115 61.0485 102.101 62.2669C102.098 63.4842 101.968 64.6979 101.714 65.8884C101.462 67.0757 101.103 68.2377 100.641 69.36C100.182 70.4831 99.6249 71.5639 98.9773 72.5899C98.3274 73.6128 97.5793 74.5699 96.7435 75.4475Z" fill="#C98D61"/>
<path d="M64.3288 71.1345C64.3288 71.1345 64.3578 71.3134 64.411 71.618C64.485 72.0344 64.5835 72.4461 64.7059 72.8509C64.8574 73.4099 65.0921 73.9429 65.4022 74.432C65.4926 74.5546 65.5911 74.6709 65.6971 74.7801C65.8055 74.8799 65.9257 74.9659 66.0549 75.0364C66.3186 75.177 66.6191 75.2327 66.9156 75.196H66.9446H67.0123L67.1429 75.1718C67.2251 75.1718 67.3169 75.1331 67.3943 75.1089C67.6778 75.0016 67.9362 74.837 68.1534 74.6254C68.268 74.5221 68.3731 74.4089 68.4677 74.287C68.8125 73.8219 69.0802 73.3043 69.2606 72.7542C69.4017 72.356 69.5163 71.949 69.6039 71.5358C69.6716 71.2311 69.7006 71.0522 69.7006 71.0522C69.738 71.6488 69.6925 72.2476 69.5653 72.8316C69.5078 73.1197 69.427 73.4027 69.3235 73.6777C69.2012 73.9938 69.0387 74.2928 68.84 74.5674C68.7435 74.7214 68.6282 74.8627 68.4967 74.9881C68.3658 75.1269 68.2179 75.2487 68.0567 75.3507C67.8819 75.4582 67.6974 75.5488 67.5055 75.6215L67.2492 75.6843L67.1187 75.7133H67.0558H66.9543C66.5483 75.752 66.1401 75.6659 65.7842 75.4667C65.4546 75.2711 65.18 74.9949 64.9864 74.6641C64.6731 74.1151 64.4679 73.5111 64.382 72.8848C64.3178 72.4575 64.2871 72.0259 64.2901 71.5938C64.3095 71.3133 64.3288 71.1345 64.3288 71.1345Z" fill="#1C171E"/>
<path d="M78.3748 71.3714C78.3748 71.3714 78.399 71.5455 78.457 71.8549C78.531 72.2713 78.6295 72.683 78.7519 73.0879C78.9013 73.6476 79.1361 74.1809 79.4482 74.669C79.5386 74.7915 79.6371 74.9078 79.7431 75.0171C79.8515 75.1168 79.9717 75.2029 80.1009 75.2734C80.362 75.4163 80.6618 75.4722 80.9568 75.4329H80.9906H81.0535H81.184C81.271 75.4329 81.3629 75.3991 81.4403 75.3749C81.5741 75.3173 81.7048 75.2527 81.8319 75.1815C81.9609 75.0989 82.0822 75.0051 82.1946 74.901C82.3116 74.8003 82.417 74.6868 82.5088 74.5626C82.856 74.0982 83.1254 73.5806 83.3066 73.0299C83.4477 72.6317 83.5623 72.2246 83.6499 71.8114C83.7176 71.5068 83.7466 71.3279 83.7466 71.3279C83.784 71.9244 83.7385 72.5232 83.6113 73.1072C83.5521 73.3955 83.4696 73.6784 83.3647 73.9534C83.2436 74.2715 83.081 74.5723 82.8812 74.8479C82.7801 74.9984 82.6634 75.1378 82.533 75.2637C82.4031 75.4036 82.2552 75.5255 82.093 75.6263C81.9205 75.7347 81.7374 75.8255 81.5466 75.8971C81.4548 75.9261 81.3726 75.9358 81.2856 75.9599L81.1598 75.989H81.0922H80.9954C80.5879 76.0274 80.1782 75.9414 79.8205 75.7424C79.493 75.544 79.2191 75.2684 79.0227 74.9397C78.7114 74.3919 78.5079 73.7896 78.4232 73.1652C78.3567 72.7366 78.3259 72.3032 78.3313 71.8694C78.3352 71.7027 78.3498 71.5363 78.3748 71.3714Z" fill="#1C171E"/>
<path d="M72.447 71.4683C72.418 71.8502 72.3696 72.2225 72.3261 72.5948C72.2826 72.9672 72.2343 73.3443 72.1811 73.7166C72.0699 74.4612 71.9442 75.201 71.8088 75.9408C71.7459 76.3131 71.6685 76.6805 71.596 77.048C71.5235 77.4155 71.451 77.7878 71.3688 78.1504C71.2141 78.8854 71.04 79.601 70.8611 80.3504L70.6435 80.0361C71.2141 80.1522 71.7846 80.2682 72.3503 80.3939C72.6356 80.4568 72.916 80.5341 73.1965 80.6018C73.4769 80.6695 73.7622 80.7421 74.0426 80.8243C73.7525 80.8243 73.4624 80.8243 73.1723 80.7807C72.8822 80.7372 72.5872 80.7469 72.302 80.7227C71.7217 80.6792 71.1415 80.6163 70.5661 80.5535C70.5002 80.5462 70.4398 80.5131 70.3982 80.4615C70.3565 80.4099 70.3369 80.3439 70.3437 80.2779V80.244C70.4743 79.4994 70.6048 78.7597 70.7595 78.0247C70.8272 77.6572 70.9094 77.2898 70.9916 76.9223C71.0738 76.5548 71.1464 76.1874 71.2382 75.8247C71.4075 75.0898 71.5864 74.3742 71.7846 73.6344C71.8861 73.2718 71.9877 72.9091 72.0989 72.5513C72.2101 72.1935 72.3213 71.8261 72.447 71.4683Z" fill="#54201C"/>
<path d="M72.2439 83.4206C72.2439 83.4206 77.3691 88.5507 82.4992 82.8501L72.2439 83.4206Z" fill="white"/>
<path d="M93.3155 77.6619C93.5179 77.466 93.6964 77.2469 93.8473 77.0091C93.9187 76.8977 93.971 76.7751 94.0021 76.6465C94.0132 76.5874 94.0132 76.5267 94.0021 76.4676C94.005 76.4097 93.9951 76.3519 93.9731 76.2984C93.9731 76.2452 93.9247 76.2017 93.9005 76.1533C93.8763 76.105 93.8232 76.0711 93.7845 76.0324C93.7436 75.9868 93.6921 75.9519 93.6346 75.9309L93.475 75.839L93.2865 75.7762C93.2279 75.7481 93.1662 75.727 93.1027 75.7133L92.7062 75.6166C92.6562 75.6052 92.6112 75.5778 92.578 75.5385C92.5449 75.4993 92.5254 75.4503 92.5225 75.399C92.4984 74.961 92.4984 74.5219 92.5225 74.0839C92.5422 73.6444 92.5906 73.2067 92.6676 72.7736C92.7396 72.3278 92.8663 71.8925 93.0447 71.4777C93.1369 71.2579 93.2554 71.0501 93.3977 70.8588C93.5454 70.6512 93.7347 70.4766 93.9537 70.3463C94.184 70.2167 94.4437 70.1484 94.708 70.1481C94.7805 70.1443 94.8531 70.1443 94.9256 70.1481L95.0851 70.1819C95.1998 70.198 95.312 70.2289 95.4188 70.2738C95.652 70.3642 95.8623 70.5052 96.0345 70.6866C96.2068 70.868 96.3366 71.0854 96.4148 71.323C96.5561 71.7544 96.6039 72.211 96.555 72.6623C96.5222 73.0971 96.4345 73.5261 96.2939 73.9388C96.3405 73.5149 96.3486 73.0877 96.3181 72.6623C96.2947 72.2556 96.1998 71.8563 96.0376 71.4826C95.9667 71.318 95.8621 71.1702 95.7305 71.0486C95.5989 70.927 95.4433 70.8344 95.2737 70.7766C95.1814 70.7447 95.0856 70.7236 94.9884 70.7138H94.8289H94.7225C94.5506 70.718 94.3832 70.7699 94.239 70.8637C93.9432 71.0827 93.7179 71.3836 93.5911 71.7292C93.4399 72.1058 93.3249 72.496 93.2478 72.8944C93.0983 73.7181 93.0142 74.5524 92.9964 75.3894L92.8078 75.1573L93.2333 75.2975C93.3059 75.324 93.3769 75.3547 93.446 75.3894L93.6491 75.4909L93.8473 75.6311C94.0608 75.7758 94.2099 75.9977 94.2632 76.25C94.2801 76.3346 94.2801 76.4217 94.2632 76.5063C94.2532 76.5868 94.2304 76.6651 94.1955 76.7384C94.1352 76.8786 94.0519 77.0077 93.9489 77.1203C93.7695 77.335 93.5554 77.518 93.3155 77.6619Z" fill="#54201C"/>
<path d="M75.7397 69.5389C75.7677 69.3539 75.8097 69.1712 75.8655 68.9926C76.0094 68.5153 76.2176 68.0598 76.4844 67.6387C76.8758 67.012 77.3968 66.4762 78.0123 66.0673C78.3807 65.8252 78.7833 65.6394 79.2065 65.5161C79.6548 65.3911 80.1195 65.3356 80.5846 65.3517C81.0404 65.3817 81.4897 65.4761 81.9191 65.6321C82.1232 65.6991 82.3207 65.7849 82.5089 65.8884C82.6958 65.977 82.8753 66.0805 83.0456 66.1979C83.2151 66.3001 83.3768 66.4148 83.5292 66.5412C83.6756 66.6546 83.816 66.7756 83.9498 66.9038L84.3124 67.2713L84.6219 67.6436C84.7971 67.8588 84.9586 68.0849 85.1054 68.3205C85.2246 68.4973 85.3297 68.6832 85.4197 68.8765C85.508 69.0412 85.5871 69.2107 85.6566 69.3842C85.6566 69.3842 85.4729 69.2827 85.1731 69.0989L84.6509 68.7701C84.4478 68.6444 84.2302 68.4994 83.9837 68.3592C83.7371 68.2189 83.5001 68.0545 83.2052 67.9095C83.0746 67.8273 82.9296 67.7596 82.7845 67.6871C82.6395 67.6145 82.4993 67.5372 82.3494 67.484C82.0543 67.3495 81.7487 67.2395 81.4355 67.1552C81.1325 67.0708 80.8213 67.019 80.5072 67.0005C80.2028 66.9875 79.8979 67.0086 79.5982 67.0633C79.299 67.1294 79.0061 67.2217 78.723 67.3389C78.1801 67.5885 77.6689 67.9018 77.2 68.2721C76.76 68.6009 76.4022 68.9297 76.1459 69.1618L75.7397 69.5389Z" fill="#1C171E"/>
<path d="M71.2093 69.3309L70.8611 69.007C70.6387 68.8039 70.3341 68.5235 69.9666 68.2092C69.5764 67.8688 69.161 67.5585 68.724 67.2808C68.4989 67.1425 68.2628 67.0228 68.0181 66.923C67.5596 66.7326 67.0622 66.6546 66.5675 66.6958L66.1904 66.749C66.0647 66.7877 65.939 66.807 65.8132 66.8457C65.5666 66.9182 65.3297 67.0197 65.0783 67.1164C64.8269 67.2132 64.5948 67.3244 64.4062 67.4452C63.9759 67.658 63.6084 67.8659 63.3473 68.011C63.2079 68.0926 63.0642 68.1668 62.917 68.2334C62.9723 68.082 63.0353 67.9335 63.1056 67.7885C63.1816 67.6198 63.2722 67.458 63.3763 67.305C63.4981 67.0955 63.6372 66.8966 63.7922 66.7103C63.976 66.4815 64.1799 66.2695 64.4014 66.0769C64.6608 65.856 64.9428 65.6631 65.2427 65.5015C65.5828 65.3202 65.9477 65.1899 66.3258 65.1147C66.734 65.0469 67.1505 65.0469 67.5587 65.1147C67.9613 65.1841 68.351 65.3146 68.7143 65.5015C69.0483 65.6771 69.3573 65.8966 69.633 66.1543C70.0899 66.5863 70.465 67.0974 70.7402 67.6628C70.9246 68.0502 71.0641 68.4574 71.1561 68.8764C71.1868 69.0261 71.2046 69.1782 71.2093 69.3309Z" fill="#1C171E"/>
<path d="M66.9253 96.9058C66.9253 96.9058 64.0242 112.228 75.2804 113.428C89.5247 114.946 93.3251 96.5045 93.3251 96.5045C93.3251 96.5045 101.492 90.2189 107.376 97.4716C113.26 104.724 105.481 135.645 99.5914 143.048L55.3403 140.2C55.3403 140.2 45.2783 92.9169 66.9253 96.9058Z" fill="#FFA65B"/>
<path d="M107.376 97.4763C105.582 95.2763 103.576 94.3334 101.656 94.0917C100.926 99.3813 96.6034 104.134 92.9529 107.63C88.345 112.011 83.2052 115.584 77.2774 117.953C69.5411 121.048 61.3891 122.45 53.1887 123.596C53.5411 129.182 54.2663 134.739 55.3597 140.229L99.6108 143.076C105.481 135.65 113.265 104.69 107.376 97.4763Z" fill="#EF924D"/>
<path d="M109.349 103.191L109.431 105.793V108.404L109.339 111.01L109.155 113.611L108.885 116.208L108.522 118.794L108.038 121.362L107.502 123.91L106.854 126.444L106.124 128.948L105.302 131.429L104.402 133.885L103.435 136.302L102.372 138.686L101.231 141.041L100.017 143.357L99.9396 143.497H99.7752C96.0747 143.207 92.3678 142.904 88.6544 142.588L77.5578 141.674L72.0119 141.273L66.4563 140.944L60.8959 140.727L55.3355 140.64H55.1228L55.0938 140.427C54.6586 137.231 54.1267 134.04 53.6964 130.839C53.2661 127.638 52.8503 124.418 52.6859 121.168C52.6423 120.361 52.6133 119.549 52.6037 118.751C52.594 117.953 52.6037 117.131 52.6037 116.333C52.6037 115.536 52.6859 114.718 52.7536 113.916L52.8793 112.707L53.0388 111.503L53.2371 110.304L53.474 109.114L53.7593 107.935L54.0832 106.765L54.4507 105.609L54.8617 104.468L55.3452 103.346L55.8287 102.244L55.3452 103.351L54.91 104.482L54.5184 105.628L54.1702 106.789L53.8656 107.959L53.6045 109.139L53.387 110.328L53.2129 111.527L53.0727 112.726L52.9711 113.93C52.9179 114.738 52.8841 115.54 52.8648 116.348C52.8454 117.155 52.8648 117.958 52.8648 118.765C52.8648 119.573 52.9228 120.376 52.9711 121.183C53.1742 124.403 53.5949 127.604 54.0735 130.795C54.5522 133.986 55.1131 137.173 55.5531 140.383L55.3065 140.171L60.8814 140.238L66.4515 140.436L72.0167 140.746L77.5723 141.133C81.276 141.423 84.9829 141.736 88.6931 142.071C92.4033 142.406 96.1005 142.728 99.7849 143.038L99.548 143.168L100.762 140.872L101.903 138.536L102.976 136.167L103.977 133.749L104.9 131.332L105.737 128.871L106.491 126.381L107.158 123.871L107.739 121.333L108.222 118.78L108.633 116.212L108.952 113.626L109.18 111.034L109.315 108.433L109.368 105.831L109.349 103.191Z" fill="#DD7128"/>
<path d="M32.8376 102.795C32.8376 102.795 0.645258 101.369 0.359985 69.7565C0.359985 69.7565 33.1229 69.7565 32.8376 102.795Z" fill="#5D8584"/>
<path d="M35.6855 80.0023C35.6855 80.0023 16.3159 65.7579 25.1449 39.5515C25.1449 39.5515 47.6476 52.3501 35.6855 80.0023Z" fill="#5D8584"/>
<path d="M42.8076 86.5537C42.8076 86.5537 33.4081 56.6436 52.2071 37.274C52.2071 37.274 64.1741 58.6357 42.8076 86.5537Z" fill="#5D8584"/>
<path d="M45.3702 105.358C45.3702 105.358 41.0959 82.2842 61.3261 79.4315C61.3213 79.4267 60.4703 101.083 45.3702 105.358Z" fill="#5D8584"/>
<path d="M8.04785 75.4475C8.04785 75.4475 37.6727 91.6839 39.6696 130.423C39.6696 130.423 40.5255 81.1433 29.4143 50.3773" stroke="#396666" stroke-width="2.36" stroke-linecap="round" stroke-linejoin="round"/>
<path d="M49.3592 49.5214C49.3592 49.5214 38.5333 99.6569 41.6665 125.868C41.6665 125.868 40.245 104.787 55.055 89.4016" stroke="#396666" stroke-width="2.36" stroke-linecap="round" stroke-linejoin="round"/>
<path d="M24.8838 116.773L29.4772 146.471H55.3935L59.982 115.211L24.8838 116.773Z" fill="#FC6A5A"/>
<path d="M58.5169 125.206L59.9675 115.212L24.8644 116.773L25.991 124.026C36.841 124.582 47.6959 124.945 58.5169 125.206Z" fill="#EA4134"/>
<path d="M62.9363 111.145H19.6377V119.273H62.9363V111.145Z" fill="#FC6A5A"/>
<path d="M104.34 116.469C104.34 116.469 93.5137 150.934 87.2473 153.501C80.981 156.069 57.3372 134.697 57.3372 134.697C57.3372 134.697 32.9681 140.156 52.8454 133.44C52.8454 133.44 31.9818 136.694 52.2071 131.279C52.2071 131.279 35.6855 133.561 51.9219 129.001C51.9219 129.001 32.5523 129.572 57.6225 126.154C57.6225 126.154 45.9408 115.613 60.1851 125.868L81.832 138.415C81.832 138.415 91.5023 101.098 95.5058 99.6715C99.5092 98.2452 104.34 116.469 104.34 116.469Z" fill="#965450"/>
<path d="M86.8267 121.492C89.9545 123.755 93.4096 125.528 97.0724 126.748C98.2086 127.12 99.3497 127.444 100.5 127.715C102.778 121.429 104.34 116.449 104.34 116.449C104.34 116.449 99.5044 98.216 95.5058 99.6375C93.388 100.397 89.6601 111.29 86.6333 121.328L86.8267 121.492Z" fill="#76413B"/>
<path d="M88.4803 114.757L81.9625 138.449C81.9581 138.466 81.9502 138.482 81.9395 138.496C81.9287 138.51 81.9152 138.522 81.8999 138.53C81.8845 138.539 81.8676 138.544 81.8501 138.546C81.8326 138.548 81.8149 138.546 81.7981 138.541H81.7691L60.0739 126.057C59.0585 125.332 58.0383 124.606 57.0084 123.905C55.9785 123.204 54.9438 122.503 53.8704 121.913C53.735 121.841 53.5996 121.773 53.4691 121.715C53.4081 121.687 53.345 121.665 53.2805 121.647H53.2321C53.2321 121.647 53.2321 121.647 53.2805 121.647C53.3261 121.622 53.3607 121.581 53.3772 121.531C53.3772 121.454 53.3772 121.478 53.3772 121.492C53.3865 121.516 53.3978 121.539 53.411 121.56C53.4463 121.62 53.4851 121.678 53.5271 121.734C53.6141 121.85 53.7108 121.966 53.8075 122.082C54.2088 122.542 54.644 122.986 55.0888 123.422C55.9737 124.297 56.8875 125.148 57.8062 125.984C57.8316 126.009 57.8519 126.038 57.8657 126.07C57.8796 126.103 57.8867 126.138 57.8867 126.173C57.8867 126.208 57.8796 126.243 57.8657 126.275C57.8519 126.308 57.8316 126.337 57.8062 126.361C57.7652 126.408 57.7082 126.437 57.6466 126.444C55.964 126.676 54.2846 126.919 52.6084 127.174C50.9355 127.43 49.2577 127.701 47.604 128.03C47.1882 128.112 46.7772 128.204 46.3711 128.3C45.9706 128.386 45.5776 128.504 45.1962 128.653C45.1323 128.677 45.0721 128.71 45.0172 128.75C45.0172 128.75 45.0172 128.75 45.0511 128.677C45.0558 128.649 45.0543 128.62 45.0468 128.593C45.0393 128.565 45.0259 128.54 45.0076 128.518C44.9786 128.484 45.0076 128.518 45.0366 128.518C45.2164 128.573 45.4009 128.612 45.5878 128.634C45.9939 128.687 46.4146 128.711 46.8353 128.731C48.5179 128.803 50.2199 128.779 51.9025 128.731C51.9712 128.731 52.0373 128.757 52.0892 128.802C52.1411 128.847 52.1753 128.909 52.1857 128.977C52.1962 129.044 52.1822 129.114 52.1463 129.172C52.1103 129.231 52.0548 129.275 51.9895 129.296C50.7711 129.64 49.5719 129.993 48.3535 130.375C47.7539 130.568 47.1544 130.766 46.5693 130.984C46.2744 131.09 45.9843 131.206 45.7038 131.332C45.5668 131.391 45.4329 131.457 45.3025 131.53C45.2422 131.562 45.184 131.597 45.1285 131.637C45.0801 131.666 45.0318 131.724 45.0511 131.699C45.0643 131.672 45.0712 131.643 45.0712 131.612C45.0712 131.582 45.0643 131.552 45.0511 131.525C45.0124 131.467 45.0027 131.477 45.0124 131.482C45.0625 131.5 45.1144 131.513 45.1671 131.52C45.3093 131.546 45.4532 131.56 45.5975 131.564C45.9021 131.564 46.2115 131.564 46.5258 131.564C47.1495 131.564 47.7781 131.491 48.4018 131.438C49.659 131.322 50.9161 131.172 52.1684 131.003C52.2079 130.997 52.2483 130.999 52.287 131.009C52.3257 131.019 52.362 131.037 52.3937 131.061C52.4253 131.086 52.4517 131.116 52.4711 131.151C52.4906 131.186 52.5028 131.224 52.5069 131.264C52.5165 131.337 52.4992 131.411 52.4583 131.473C52.4174 131.534 52.3556 131.579 52.2845 131.598C50.7614 132.009 49.2432 132.425 47.7346 132.874C46.9803 133.102 46.226 133.334 45.4863 133.585C45.1188 133.711 44.7513 133.841 44.3935 133.986C44.2195 134.059 44.0406 134.136 43.91 134.219C43.8394 134.256 43.7716 134.298 43.7069 134.344C43.6682 134.393 43.7069 134.344 43.7069 134.344C43.7212 134.314 43.7285 134.281 43.7285 134.248C43.7285 134.214 43.7212 134.181 43.7069 134.151C43.6682 134.083 43.6489 134.078 43.6392 134.073C43.6296 134.069 43.7263 134.098 43.8036 134.107H44.0744H44.6449C45.0269 134.107 45.4186 134.069 45.8102 134.035C46.5887 133.972 47.372 133.885 48.1553 133.793C49.717 133.609 51.2787 133.392 52.8357 133.155C52.9084 133.148 52.9813 133.167 53.0411 133.209C53.1008 133.251 53.1433 133.314 53.1609 133.385C53.1785 133.456 53.17 133.531 53.1369 133.596C53.1038 133.661 53.0484 133.712 52.9807 133.74C51.3223 134.301 49.6638 134.871 48.0344 135.495C47.6282 135.65 47.2221 135.814 46.8256 135.978C46.4291 136.143 46.0278 136.327 45.67 136.525C45.5843 136.572 45.5019 136.626 45.4234 136.684C45.3964 136.702 45.372 136.723 45.3509 136.747C45.3509 136.747 45.3509 136.747 45.3509 136.709C45.358 136.675 45.3574 136.64 45.349 136.606C45.3407 136.573 45.3248 136.542 45.3025 136.515C45.2348 136.452 45.2638 136.486 45.3025 136.486C45.3427 136.49 45.3832 136.49 45.4234 136.486H45.7232C46.139 136.486 46.5742 136.428 46.9997 136.375C48.7258 136.148 50.4471 135.824 52.1636 135.49C53.88 135.157 55.5965 134.789 57.3033 134.417C57.3472 134.406 57.393 134.406 57.4369 134.417C57.4807 134.428 57.5212 134.449 57.5548 134.48C59.9288 136.607 62.3657 138.676 64.8413 140.693C67.3169 142.709 69.8408 144.667 72.4228 146.538C74.9888 148.431 77.6837 150.142 80.4878 151.659C81.873 152.419 83.3524 152.993 84.8878 153.366C85.6285 153.557 86.4072 153.543 87.1409 153.327C87.8403 153 88.4568 152.519 88.9444 151.92C89.9656 150.707 90.866 149.397 91.6328 148.008C92.4209 146.625 93.151 145.204 93.8376 143.763C95.2204 140.886 96.4776 137.961 97.6719 134.982C100.056 129.05 102.207 123.025 104.209 116.952C102.275 123.049 100.191 129.098 97.8749 135.065C96.7097 138.043 95.4912 141.002 94.1277 143.903C93.4459 145.354 92.7255 146.78 91.9374 148.182C91.1697 149.6 90.2626 150.938 89.2297 152.176C88.7083 152.823 88.0471 153.344 87.2957 153.699C86.8963 153.845 86.4731 153.914 86.0482 153.902C85.6339 153.901 85.2208 153.857 84.8152 153.772C83.2384 153.402 81.718 152.823 80.2944 152.05C78.8438 151.325 77.4803 150.498 76.1217 149.633C74.763 148.767 73.4478 147.868 72.1423 146.94C69.5265 145.083 66.9978 143.12 64.5077 141.104C62.0176 139.087 59.5807 137.023 57.1873 134.886L57.4339 134.953C55.7222 135.337 54.0058 135.7 52.2845 136.041C50.5583 136.38 48.837 136.713 47.0819 136.946C46.6377 137.007 46.1906 137.046 45.7425 137.062C45.6234 137.069 45.5039 137.069 45.3847 137.062L45.1816 137.033C45.0654 137.011 44.9589 136.953 44.877 136.868C44.8382 136.821 44.8111 136.765 44.7976 136.706C44.7842 136.646 44.7849 136.584 44.7997 136.525C44.8215 136.459 44.8542 136.397 44.8964 136.341C44.9476 136.284 45.0043 136.232 45.0656 136.186C45.1638 136.113 45.2672 136.047 45.375 135.988C45.7696 135.771 46.1764 135.578 46.5935 135.408C46.9997 135.234 47.4106 135.069 47.8216 134.924C49.4656 134.291 51.124 133.716 52.7873 133.15L52.9275 133.74C51.3674 133.982 49.8008 134.199 48.2278 134.393C47.4397 134.489 46.6515 134.576 45.8586 134.639C45.4621 134.673 45.0656 134.702 44.6643 134.717C44.4612 134.717 44.2581 134.717 44.0502 134.717C43.9438 134.717 43.8375 134.717 43.7263 134.692C43.5866 134.681 43.4504 134.643 43.325 134.581C43.2499 134.537 43.1881 134.474 43.1461 134.397C43.1221 134.345 43.1097 134.288 43.1097 134.231C43.1097 134.173 43.1221 134.116 43.1461 134.064C43.1893 133.972 43.254 133.893 43.3346 133.832C43.4292 133.761 43.5295 133.698 43.6344 133.643C43.8278 133.542 44.0115 133.464 44.2001 133.387C44.5773 133.232 44.9544 133.102 45.3315 132.971C46.0858 132.715 46.8449 132.488 47.604 132.26C49.1223 131.811 50.6453 131.395 52.1732 130.989L52.2941 131.579C51.0305 131.746 49.767 131.89 48.5034 132.009C47.8651 132.067 47.2317 132.11 46.5693 132.135C46.2454 132.135 45.9263 132.135 45.6023 132.135C45.4305 132.128 45.2593 132.11 45.0898 132.081C44.9867 132.062 44.8861 132.032 44.79 131.989C44.6993 131.949 44.6234 131.881 44.5724 131.796C44.5377 131.735 44.5194 131.666 44.5194 131.595C44.5194 131.525 44.5377 131.456 44.5724 131.395C44.6385 131.289 44.7258 131.199 44.8287 131.129C44.9027 131.077 44.9803 131.03 45.0608 130.989C45.2107 130.906 45.3605 130.834 45.5104 130.766C45.8102 130.636 46.11 130.52 46.4098 130.408C47.0093 130.186 47.6185 129.988 48.2229 129.794C49.4366 129.412 50.6405 129.059 51.8783 128.721L51.9653 129.282C50.2585 129.32 48.5807 129.34 46.8498 129.282C46.4243 129.282 45.9939 129.233 45.5588 129.175C45.3247 129.15 45.0944 129.098 44.8722 129.021C44.7778 128.989 44.6929 128.934 44.6256 128.861C44.5898 128.82 44.5639 128.771 44.5496 128.718C44.5354 128.666 44.5333 128.61 44.5434 128.557C44.5573 128.476 44.5962 128.401 44.6546 128.344C44.76 128.247 44.8831 128.171 45.0172 128.121C45.4295 127.963 45.8529 127.835 46.2841 127.739C46.6999 127.638 47.1205 127.551 47.5364 127.469C49.2141 127.14 50.8919 126.874 52.5697 126.618C54.2475 126.361 55.9543 126.134 57.6176 125.897L57.4774 126.381C56.549 125.535 55.6352 124.679 54.7455 123.789C54.3055 123.344 53.8655 122.895 53.4497 122.411C53.3434 122.285 53.2418 122.164 53.1451 122.029C53.0484 121.894 53.0484 121.889 53.0001 121.807C52.9763 121.763 52.9554 121.718 52.9372 121.671C52.897 121.587 52.8868 121.491 52.9082 121.401C52.9211 121.357 52.9427 121.316 52.9718 121.282C53.0009 121.247 53.0369 121.218 53.0774 121.197C53.1285 121.173 53.185 121.161 53.2418 121.164C53.3021 121.165 53.3621 121.173 53.4207 121.188C53.5077 121.214 53.5932 121.245 53.677 121.28C53.8317 121.347 53.9768 121.42 54.117 121.497C55.2291 122.121 56.2541 122.832 57.2888 123.543C58.3235 124.253 59.3341 124.993 60.3495 125.718L81.9528 138.333L81.7594 138.411L88.4803 114.757Z" fill="#54201C"/>
<path d="M84.6847 116.749C84.6847 116.749 90.9704 91.6839 102.628 93.9612C114.285 96.2386 105.761 119.031 103.769 124.157C96.7857 123.761 90.1061 121.169 84.6847 116.749Z" fill="#FFA65B"/>
<path d="M102.628 93.9613L103.653 94.2079L104.62 94.5995C104.92 94.7833 105.239 94.9428 105.524 95.1508L105.935 95.4892L106.143 95.6536L106.322 95.8518C106.575 96.1016 106.803 96.3752 107.004 96.669L107.308 97.109L107.555 97.5925C107.724 97.9026 107.868 98.226 107.985 98.5595C108.115 98.889 108.223 99.2266 108.309 99.5701C108.492 100.257 108.62 100.957 108.691 101.664C108.74 102.017 108.749 102.37 108.773 102.723C108.798 103.076 108.802 103.428 108.802 103.781C108.802 104.134 108.802 104.487 108.802 104.84C108.802 105.193 108.802 105.551 108.744 105.899C108.701 106.605 108.619 107.306 108.536 108.007C108.454 108.708 108.338 109.405 108.208 110.101C108.077 110.797 107.947 111.484 107.792 112.17C107.487 113.548 107.129 114.912 106.738 116.266C105.955 118.973 105.041 121.638 104.025 124.263L103.958 124.447H103.784C102.903 124.423 102.025 124.347 101.153 124.22C100.723 124.147 100.288 124.089 99.8623 124.002C99.4368 123.915 99.0016 123.847 98.5761 123.736C98.1506 123.625 97.7251 123.547 97.3045 123.422C96.8838 123.296 96.4632 123.19 96.0425 123.064L94.7999 122.653C94.3889 122.513 93.9827 122.344 93.5717 122.194C93.1608 122.044 92.7643 121.865 92.363 121.686C91.9616 121.507 91.5603 121.348 91.1735 121.144L89.9889 120.526C89.5973 120.337 89.2298 120.095 88.8478 119.882C88.4658 119.67 88.0839 119.457 87.7309 119.206L86.643 118.471C86.2755 118.234 85.9371 117.958 85.5938 117.692L84.5591 116.89L84.4575 116.812L84.4914 116.686C84.6606 116.072 84.8298 115.468 85.0232 114.864C85.2166 114.259 85.4004 113.66 85.6083 113.06C85.8162 112.461 86.0193 111.866 86.2417 111.276C86.4641 110.686 86.6768 110.086 86.9283 109.506L87.6632 107.761C87.7841 107.466 87.9291 107.185 88.0597 106.9L88.4658 106.044L88.872 105.188C89.0171 104.908 89.1718 104.632 89.3217 104.352L90.2355 102.694L89.3894 104.386L88.9687 105.232L88.5867 106.097L88.2096 106.963C88.0887 107.253 87.9485 107.538 87.8373 107.833L87.1555 109.593C86.9186 110.178 86.7397 110.783 86.5221 111.373C86.3045 111.963 86.1111 112.562 85.9226 113.162C85.734 113.761 85.5454 114.366 85.3714 114.97C85.1973 115.574 85.0281 116.179 84.8878 116.783L84.8202 116.585L85.8549 117.354C86.203 117.61 86.5366 117.881 86.9089 118.103L87.992 118.809C88.345 119.051 88.7318 119.239 89.0992 119.462C89.4667 119.684 89.839 119.907 90.2307 120.09L91.3814 120.671C91.7634 120.869 92.1696 121.019 92.5612 121.198C92.9528 121.377 93.3493 121.546 93.7555 121.681C94.1616 121.817 94.5581 121.991 94.9643 122.131L96.1924 122.527C96.6082 122.653 97.024 122.755 97.435 122.875C97.846 122.996 98.2715 123.074 98.6922 123.175C99.1128 123.277 99.5335 123.344 99.9541 123.431C100.375 123.518 100.805 123.567 101.226 123.635C102.077 123.741 102.942 123.833 103.779 123.857L103.518 124.036C104.543 121.43 105.452 118.785 106.259 116.097C106.656 114.757 107.018 113.403 107.333 112.04C107.487 111.358 107.632 110.676 107.768 109.99C107.903 109.303 108.019 108.617 108.13 107.925C108.242 107.234 108.314 106.542 108.372 105.846C108.416 105.498 108.425 105.15 108.445 104.802C108.464 104.454 108.483 104.105 108.483 103.757C108.483 103.409 108.483 103.061 108.483 102.713C108.483 102.365 108.483 102.017 108.42 101.669C108.362 100.976 108.252 100.29 108.092 99.6136C108.018 99.2742 107.923 98.9399 107.806 98.6127C107.701 98.2809 107.57 97.9576 107.415 97.6457L107.183 97.1622L106.902 96.727C106.717 96.4341 106.503 96.1604 106.264 95.9099L106.09 95.7116L105.892 95.5424L105.5 95.2039C105.229 94.9864 104.915 94.8268 104.625 94.6334C104.335 94.44 103.987 94.3433 103.658 94.2079L102.628 93.9613Z" fill="#DD7128"/>
<path d="M22.2486 129.814C22.2486 129.814 19.6715 124.152 21.2816 122.798C22.8917 121.444 37.5421 122.701 25.0191 124.766C25.0191 124.766 46.9126 123.451 26.4213 127.324C26.4213 127.324 43.7698 125.612 27.4609 129.171C27.4609 129.171 41.299 128.581 27.1756 131.047L27.8477 135.398C27.8477 135.398 26.5325 136.965 22.2486 129.814Z" fill="#965450"/>
<path d="M22.2486 129.814C21.8627 128.994 21.5252 128.153 21.238 127.295C20.9382 126.426 20.7434 125.526 20.6578 124.611C20.613 124.139 20.6759 123.663 20.8415 123.219C20.9415 122.981 21.1098 122.779 21.3251 122.638C21.5365 122.516 21.7645 122.425 22.002 122.368C22.9045 122.173 23.8252 122.076 24.7483 122.077C25.6666 122.061 26.585 122.094 27.4995 122.179C27.983 122.227 28.4182 122.285 28.8727 122.377C29.105 122.423 29.3343 122.482 29.5593 122.556C29.6799 122.599 29.7978 122.649 29.9123 122.706C30.0594 122.78 30.1795 122.898 30.2556 123.045C30.2782 123.098 30.2898 123.156 30.2898 123.214C30.2898 123.272 30.2782 123.329 30.2556 123.383C30.2213 123.467 30.1703 123.542 30.1057 123.605C30.0065 123.698 29.896 123.778 29.7769 123.842C29.5638 123.954 29.3423 124.05 29.1145 124.128C28.6745 124.282 28.2296 124.403 27.78 124.514C26.8855 124.742 25.9861 124.896 25.0868 125.056L25.0239 124.514C26.6437 124.418 28.2586 124.345 29.8591 124.306C30.6714 124.306 31.4788 124.273 32.2766 124.306C32.6828 124.306 33.0889 124.306 33.4999 124.345C33.9202 124.362 34.3387 124.409 34.7522 124.485C34.8712 124.508 34.9878 124.542 35.1004 124.587L35.1971 124.635C35.2396 124.663 35.28 124.693 35.3179 124.727C35.3733 124.779 35.4149 124.844 35.4388 124.916C35.4666 125.002 35.4666 125.095 35.4388 125.182C35.368 125.339 35.245 125.467 35.0907 125.544C34.9843 125.607 34.8828 125.651 34.7812 125.699C34.3963 125.857 34.0023 125.993 33.6015 126.105C32.8133 126.337 32.0204 126.521 31.2274 126.7C29.6463 127.053 28.0556 127.357 26.46 127.667L26.3778 127.087C27.6639 126.971 28.9501 126.869 30.2459 126.792C30.889 126.753 31.5369 126.719 32.1799 126.705C32.5039 126.705 32.8278 126.705 33.147 126.705C33.4836 126.703 33.8198 126.727 34.1527 126.777C34.2546 126.792 34.3539 126.821 34.4476 126.864C34.4984 126.884 34.5446 126.914 34.5836 126.953C34.6226 126.991 34.6537 127.036 34.6749 127.087C34.6963 127.152 34.699 127.222 34.6828 127.288C34.6666 127.355 34.632 127.416 34.583 127.464C34.4343 127.596 34.2621 127.7 34.0753 127.768C33.7562 127.894 33.4467 127.991 33.1373 128.088C32.5087 128.271 31.885 128.431 31.2564 128.571C29.9993 128.871 28.7422 129.142 27.4802 129.408L27.4318 129.021C28.4956 128.992 29.5593 128.977 30.6279 128.992C31.1597 128.992 31.6964 129.016 32.2283 129.059C32.4974 129.077 32.7653 129.11 33.0309 129.156C33.1738 129.177 33.3135 129.216 33.4467 129.272C33.4917 129.294 33.5326 129.323 33.5676 129.359C33.5943 129.387 33.6125 129.422 33.6202 129.459C33.6279 129.497 33.6248 129.536 33.6111 129.572C33.5679 129.655 33.4981 129.721 33.4129 129.76C33.1676 129.883 32.9099 129.979 32.6441 130.046C32.383 130.123 32.1268 130.181 31.8657 130.244C31.3435 130.365 30.8261 130.466 30.2991 130.568C29.2547 130.766 28.2055 130.931 27.1562 131.09C28.1958 130.887 29.2402 130.669 30.2749 130.442C30.7923 130.326 31.3096 130.205 31.8221 130.07C32.0784 130.002 32.3347 129.93 32.5813 129.848C32.8292 129.778 33.0691 129.683 33.2969 129.562C33.3318 129.542 33.3629 129.516 33.3887 129.485C33.3887 129.485 33.3887 129.528 33.3887 129.519L33.3452 129.495C33.2308 129.454 33.1125 129.425 32.9922 129.408C32.736 129.374 32.4749 129.354 32.2089 129.34C31.6868 129.34 31.1549 129.316 30.6279 129.34C29.569 129.34 28.5052 129.379 27.4463 129.432C27.3998 129.43 27.3553 129.412 27.3208 129.381C27.2862 129.349 27.2638 129.307 27.2575 129.261C27.2511 129.214 27.2612 129.168 27.2861 129.128C27.3109 129.089 27.3488 129.059 27.3932 129.045C28.6455 128.755 29.8978 128.46 31.1355 128.136C31.7593 127.971 32.3733 127.802 32.9826 127.609C33.2823 127.512 33.5821 127.411 33.8626 127.29C33.9767 127.244 34.0853 127.186 34.1865 127.116C34.1865 127.116 34.1285 127.154 34.1865 127.275C34.2445 127.396 34.2494 127.348 34.23 127.348C34.177 127.328 34.1218 127.315 34.0656 127.309C33.7614 127.265 33.4543 127.244 33.147 127.246H32.1799C31.5417 127.246 30.9035 127.299 30.2459 127.343C28.9694 127.43 27.6881 127.536 26.4116 127.667C26.3393 127.669 26.2687 127.644 26.2135 127.597C26.1582 127.551 26.1221 127.485 26.1119 127.413C26.1018 127.342 26.1183 127.269 26.1584 127.209C26.1985 127.148 26.2594 127.105 26.3294 127.087C27.9153 126.782 29.4964 126.463 31.0679 126.12C31.856 125.936 32.6344 125.743 33.4032 125.53C33.7805 125.424 34.1518 125.299 34.5153 125.153C34.5966 125.119 34.6757 125.08 34.7522 125.037C34.8199 125.012 34.8876 124.921 34.8441 124.993C34.8006 125.066 34.8199 125.075 34.8441 125.114C34.8455 125.127 34.8497 125.14 34.8563 125.152C34.863 125.164 34.872 125.174 34.8828 125.182H34.8489C34.7725 125.15 34.6932 125.125 34.612 125.109C34.2302 125.04 33.8441 124.996 33.4564 124.979C33.0599 124.95 32.6586 124.94 32.2573 124.93C31.4547 124.93 30.6472 124.93 29.8397 124.93C28.2296 124.964 26.6147 125.027 25.0046 125.109C24.969 125.111 24.9334 125.106 24.8998 125.094C24.8662 125.082 24.8353 125.064 24.8088 125.04C24.7823 125.016 24.7607 124.988 24.7454 124.955C24.73 124.923 24.7212 124.888 24.7193 124.853C24.7181 124.787 24.7403 124.723 24.7818 124.671C24.8234 124.62 24.8817 124.585 24.9466 124.572C25.8411 124.427 26.7356 124.263 27.6156 124.089C28.0507 123.987 28.4907 123.876 28.9065 123.741C29.1109 123.674 29.3097 123.592 29.5013 123.494C29.5837 123.455 29.6602 123.405 29.7285 123.344C29.7487 123.329 29.7652 123.309 29.7769 123.286C29.7355 123.236 29.6845 123.195 29.627 123.165C29.5386 123.118 29.4464 123.077 29.3514 123.045C29.1467 122.969 28.9366 122.909 28.7228 122.866C28.2852 122.77 27.843 122.698 27.398 122.648C26.5005 122.548 25.5982 122.496 24.6951 122.493C23.797 122.477 22.8996 122.552 22.0165 122.716C21.8098 122.755 21.6096 122.824 21.4218 122.919C21.2439 123.036 21.1058 123.205 21.0253 123.402C20.8592 123.808 20.7897 124.247 20.8222 124.684C20.8749 125.586 21.0373 126.479 21.3057 127.343C21.5768 128.182 21.8915 129.007 22.2486 129.814Z" fill="#54201C"/>
</g>
<defs>
<clipPath id="clip0_266_4527">
<rect width="345.707" height="216" fill="white" transform="translate(0.359985)"/>
</clipPath>
</defs>
</svg>
